<svg xmlns="http://www.w3.org/2000/svg" xmlns:xlink="http://www.w3.org/1999/xlink" width="19.172" height="19.172" viewBox="0 0 19.172 19.172">
  <defs>
    <linearGradient id="linear-gradient" x1="0.146" y1="0.146" x2="0.854" y2="0.854" gradientUnits="objectBoundingBox">
      <stop offset="0.001" stop-color="#ffd96e"/>
      <stop offset="0.209" stop-color="#ffaa25"/>
      <stop offset="0.376" stop-color="#e03a64"/>
      <stop offset="0.524" stop-color="#dc247c"/>
      <stop offset="0.739" stop-color="#5f3786"/>
      <stop offset="1" stop-color="#31428f"/>
    </linearGradient>
  </defs>
  <path id="Path_475" data-name="Path 475" d="M-323.384-1825.051a9.586,9.586,0,0,0-9.586,9.586,9.586,9.586,0,0,0,9.586,9.586,9.586,9.586,0,0,0,9.586-9.586A9.586,9.586,0,0,0-323.384-1825.051Zm5.81,11.906a3.5,3.5,0,0,1-3.491,3.491h-4.64a3.5,3.5,0,0,1-3.491-3.491v-4.64a3.5,3.5,0,0,1,3.491-3.491h4.64a3.5,3.5,0,0,1,3.491,3.491Zm-3.93-2.32a1.835,1.835,0,0,1-1.833,1.833,1.835,1.835,0,0,1-1.833-1.833,1.835,1.835,0,0,1,1.833-1.833A1.835,1.835,0,0,1-321.5-1815.465Zm.439-4.718h-4.64a2.4,2.4,0,0,0-2.4,2.4v4.64a2.4,2.4,0,0,0,2.4,2.4h4.64a2.4,2.4,0,0,0,2.4-2.4v-4.64A2.4,2.4,0,0,0-321.064-1820.183Zm-2.272,7.579a2.865,2.865,0,0,1-2.862-2.862,2.865,2.865,0,0,1,2.862-2.862,2.865,2.865,0,0,1,2.862,2.862A2.865,2.865,0,0,1-323.336-1812.6Zm3.029-5.235a.681.681,0,0,1-.681-.681.681.681,0,0,1,.681-.682.682.682,0,0,1,.681.682A.681.681,0,0,1-320.307-1817.838Z" transform="translate(332.97 1825.051)" fill="url(#linear-gradient)"/>
</svg>
