<svg xmlns="http://www.w3.org/2000/svg" xmlns:xlink="http://www.w3.org/1999/xlink" width="19.479" height="19.479" viewBox="0 0 19.479 19.479">
  <defs>
    <linearGradient id="linear-gradient" x1="0.854" y1="0.854" x2="0.146" y2="0.146" gradientUnits="objectBoundingBox">
      <stop offset="0" stop-color="#145ca7"/>
      <stop offset="0.262" stop-color="#11539f"/>
      <stop offset="0.686" stop-color="#093b8a"/>
      <stop offset="1" stop-color="#032577"/>
    </linearGradient>
  </defs>
  <path id="Path_476" data-name="Path 476" d="M-382.048-1825.051a9.74,9.74,0,0,0-9.74,9.74,9.74,9.74,0,0,0,9.74,9.74,9.739,9.739,0,0,0,9.739-9.74A9.739,9.739,0,0,0-382.048-1825.051Zm3.834,4.917h-1.141a1.307,1.307,0,0,0-1.474,1.413v1.7h2.509l-.4,2.615h-2.108v6.322h-2.827v-6.322h-2.3v-2.615h2.3v-1.993a3.193,3.193,0,0,1,3.417-3.52,13.9,13.9,0,0,1,2.025.177Z" transform="translate(391.788 1825.051)" fill="url(#linear-gradient)"/>
</svg>
