<svg xmlns="http://www.w3.org/2000/svg" width="15" height="15" viewBox="0 0 15 15">
  <g id="Group_91" data-name="Group 91" transform="translate(-2062.351 -437.44)">
    <path id="Path_468" data-name="Path 468" d="M2074.809,439.314a7.511,7.511,0,0,0-6.844-1.635c-.193.05-.389.11-.6.184h0a7.481,7.481,0,0,0-1.85.959c-.149.105-.295.217-.431.33a7.5,7.5,0,0,0,1.195,12.386c.118.063.248.129.4.2a7.5,7.5,0,0,0,5.334.386.305.305,0,0,0,.041,0,.281.281,0,0,0,.084-.013c.11-.035.22-.072.329-.112a7.52,7.52,0,0,0,3.1-2.15c.089-.1.173-.207.252-.309a.283.283,0,0,0,.055-.135,7.491,7.491,0,0,0-.641-9.693C2075.1,439.577,2074.954,439.442,2074.809,439.314ZM2069.851,438a6.929,6.929,0,0,1,4.562,1.712.933.933,0,0,1-.279-.021c-.178-.048-.35-.1-.539-.158a3.758,3.758,0,0,0-2.359-.188,4.858,4.858,0,0,0-.572.229l-.014.007a2.772,2.772,0,0,1-.594.219,1.019,1.019,0,0,1-.194.019,1.238,1.238,0,0,1-.711-.266,2.387,2.387,0,0,1-.613-.745,3.176,3.176,0,0,0-.429-.586A6.972,6.972,0,0,1,2069.851,438Zm-3.264,13.066-.04-.021a6.939,6.939,0,0,1-1.106-11.461c.1-.085.212-.169.323-.25.409.015.536.033.636.637a1.783,1.783,0,0,1,0,.446,1.546,1.546,0,0,0,.035.65,1.1,1.1,0,0,0,.285.411.661.661,0,0,1,.243.406c.036.553-.566.7-1.355.845l-.209.038a2.954,2.954,0,0,0-.549.143,1.12,1.12,0,0,0-.727.682,1.68,1.68,0,0,0,.511,1.447,2.7,2.7,0,0,1,.615,2.032,3.709,3.709,0,0,1-.134.451c-.164.475-.349,1.013.223,1.491a2.813,2.813,0,0,0,.537.341,2.6,2.6,0,0,1,.251.143.888.888,0,0,1,.376.561A2.679,2.679,0,0,1,2066.587,451.065Zm8.553-1.579a6.967,6.967,0,0,1-2.866,1.99l-.107.038a5.229,5.229,0,0,0-2.552-2.011,1.267,1.267,0,0,1-.8-.567c-.067-.086-.143-.183-.24-.293a2.5,2.5,0,0,0-.972-.639c-.082-.036-.167-.074-.255-.116a1.155,1.155,0,0,1-.691-1.37,1.785,1.785,0,0,1,1.928-1.294c.048,0,.1,0,.144,0a4.548,4.548,0,0,1,.581.077,1.441,1.441,0,0,0,1.48-.35,1.738,1.738,0,0,0,.524-1.126,2.825,2.825,0,0,1,.168-.654,1.448,1.448,0,0,1,.4-.548.429.429,0,0,1,.375-.07.622.622,0,0,0,.341-.016,1.18,1.18,0,0,0,.506-.45.907.907,0,0,1,.751-.471,2.189,2.189,0,0,1,1.719.762.6.6,0,0,1-.067.672,2.427,2.427,0,0,1-.406.435l0,0a1.477,1.477,0,0,0-.586.963.928.928,0,0,0,.307.908,1.227,1.227,0,0,1,.3.436,1.355,1.355,0,0,1-.1.907,1.844,1.844,0,0,0-.148.925c.016.086.025.189.036.3a11.54,11.54,0,0,0,.376,1.386C2075.236,449.373,2075.188,449.43,2075.14,449.487Zm.54-.781a8.188,8.188,0,0,1-.217-.827c-.011-.117-.022-.238-.042-.348a1.452,1.452,0,0,1,.127-.644,1.819,1.819,0,0,0,.1-1.284,1.753,1.753,0,0,0-.419-.625c-.157-.165-.194-.2-.159-.441a.936.936,0,0,1,.407-.628l0,0,.1-.088c.047-.044.1-.09.146-.141s.085-.091.127-.141.084-.105.124-.164a1.145,1.145,0,0,0,.094-1.263,1.69,1.69,0,0,0-.581-.58,3.112,3.112,0,0,0-1.685-.488,1.452,1.452,0,0,0-1.172.7.807.807,0,0,1-.245.257l-.069-.009a.983.983,0,0,0-.789.172,1.975,1.975,0,0,0-.583.783,3.361,3.361,0,0,0-.2.778,1.2,1.2,0,0,1-.351.808c-.354.326-.544.293-1,.211a4.809,4.809,0,0,0-.651-.085,2.367,2.367,0,0,0-2.652,1.744,1.69,1.69,0,0,0,.741,1.836,2.2,2.2,0,0,0,.291.166c.092.044.181.084.266.122a3.448,3.448,0,0,1,.5.254,1.349,1.349,0,0,1,.252.224c.087.1.157.188.22.268a2.052,2.052,0,0,0,.54.531,2.022,2.022,0,0,0,.576.25,2.981,2.981,0,0,1,.8.378,5.571,5.571,0,0,1,1.3,1.245,6.961,6.961,0,0,1-1.716.214,6.877,6.877,0,0,1-2.734-.561c.01-.058.018-.116.025-.175v-.009c.007-.06.012-.121.015-.182,0-.021,0-.041,0-.062,0-.043,0-.086,0-.128,0-.024,0-.049,0-.073s0-.079-.006-.119,0-.051-.006-.076-.008-.08-.014-.12-.007-.05-.01-.075c-.007-.043-.015-.087-.023-.13,0-.022-.008-.043-.013-.064-.013-.065-.029-.13-.047-.2a1.512,1.512,0,0,0-.908-1.053,2.224,2.224,0,0,1-.436-.274c-.249-.208-.231-.362-.052-.88a4.062,4.062,0,0,0,.153-.522,3.209,3.209,0,0,0-.737-2.5c-.314-.371-.465-.716-.4-.921a.249.249,0,0,1,.019-.046.417.417,0,0,1,.107-.126.938.938,0,0,1,.195-.12l.081-.035h0a3.848,3.848,0,0,1,.646-.149c.705-.126,1.886-.336,1.815-1.433a1.176,1.176,0,0,0-.4-.757.738.738,0,0,1-.158-.2,1.117,1.117,0,0,1-.008-.425,2.258,2.258,0,0,0,0-.585c-.01-.063-.022-.122-.035-.178l-.013-.052c-.009-.037-.018-.073-.029-.107-.005-.018-.011-.036-.017-.054s-.021-.06-.032-.089l-.02-.047c-.012-.029-.026-.056-.04-.082s-.011-.024-.018-.034a1.042,1.042,0,0,0-.065-.1l-.011-.014c-.02-.025-.041-.049-.062-.071l-.027-.025c-.018-.016-.036-.032-.054-.047l-.032-.022a.69.69,0,0,0-.059-.036l-.02-.013a6.929,6.929,0,0,1,1-.469.346.346,0,0,0,.041.016c.254.087.408.334.6.65a2.887,2.887,0,0,0,.764.9,1.774,1.774,0,0,0,1.035.368,2.44,2.44,0,0,0,1.019-.288l-.115-.255.129.249a4.442,4.442,0,0,1,.509-.2,3.232,3.232,0,0,1,2.027.189c.194.059.371.112.558.163a1.135,1.135,0,0,0,.117.025l.04,0,.08.009.048,0,.075,0h.051l.073,0,.053,0,.074-.007.053-.006.074-.01.053-.008.076-.012.055-.009.018,0a6.936,6.936,0,0,1,.751,8.494Z" fill="#41d6f2"/>
    <path id="Path_469" data-name="Path 469" d="M2082.867,456.606a2.555,2.555,0,0,1-2.987-.006,1.171,1.171,0,0,0-.885,1.184c0,1.3,2.186,2.843,2.278,2.909l.107.075.107-.075c.093-.065,2.279-1.612,2.279-2.909A1.167,1.167,0,0,0,2082.867,456.606Zm-1.487,3.7c-.648-.477-2.012-1.661-2.012-2.526a.8.8,0,0,1,.608-.824,1.03,1.03,0,0,1,.262-.033,1.121,1.121,0,0,1,.98.577l.165.287.16-.29a1.109,1.109,0,0,1,1.23-.533.791.791,0,0,1,.619.816C2083.393,458.649,2082.029,459.832,2081.381,460.31Z" transform="translate(-9.33 -10.714)" fill="#41d6f2"/>
  </g>
</svg>
