<svg xmlns="http://www.w3.org/2000/svg" width="12.917" height="15.814" viewBox="0 0 12.917 15.814">
  <path id="Path_723" data-name="Path 723" d="M1661.933-1753.561a1.431,1.431,0,0,0,1.419-1.419,1.423,1.423,0,0,0-1.419-1.42,1.414,1.414,0,0,0-1.419,1.42,1.422,1.422,0,0,0,1.419,1.419Zm6.121,9.778h-3.627v-2.437a.355.355,0,0,0-.157-.3h-.889v-5.448a11.891,11.891,0,0,0,2.021-2.007,6.626,6.626,0,0,0,.387-1.807.589.589,0,0,0-.531-.659h-.057a.6.6,0,0,0-.6.531,7.871,7.871,0,0,1-.258,1.391,17.879,17.879,0,0,1-1.3,1.247h-2.079a15.189,15.189,0,0,1-1.3-1.247,5.881,5.881,0,0,1-.258-1.391.6.6,0,0,0-.6-.531h-.057a.609.609,0,0,0-.545.659,7.21,7.21,0,0,0,.387,1.807,11.6,11.6,0,0,0,1.907,1.892v5.563h-.875a.355.355,0,0,0-.158.3v1.319h-3.628a.352.352,0,0,0-.344.359v3.57a.349.349,0,0,0,.344.344h12.229a.349.349,0,0,0,.344-.344v-2.452a.351.351,0,0,0-.344-.358Zm-5.935-3.827a.489.489,0,0,0-.143-.014,1.268,1.268,0,0,0-.23.029v-1.333h.373Zm.115,5.29a.325.325,0,0,1,.33.33.324.324,0,0,1-.33.329h-.7a.324.324,0,0,1-.33-.329.325.325,0,0,1,.33-.33h.014v-2.05h-.014a.325.325,0,0,1-.33-.33.334.334,0,0,1,.33-.329h.7a.334.334,0,0,1,.33.329.325.325,0,0,1-.33.33h-.029v2.05Z" transform="translate(-1655.482 1756.443)" fill="#90e0ef" fill-rule="evenodd"/>
</svg>
