<svg id="Group_89" data-name="Group 89" xmlns="http://www.w3.org/2000/svg" width="20.134" height="18.965" viewBox="0 0 20.134 18.965">
  <path id="Path_455" data-name="Path 455" d="M274.746,16.913l-.021-.022a3.133,3.133,0,0,0-2.214-.934c-.053,0-.107,0-.16,0l-.028,0-7.17.626a3.018,3.018,0,0,0-2.709,2.1l-2.336,7.16a3.192,3.192,0,0,0,.608,3.04l3.922,4.919.019.023a3.116,3.116,0,0,0,2.361,1.093c.1,0,.2,0,.3-.014l.039,0,7.318-1.081a3.05,3.05,0,0,0,2.532-1.993l2.693-6.767.011-.028a3.191,3.191,0,0,0-.727-3.278ZM265.271,33.3l-3.931-4.93a2.37,2.37,0,0,1-.462-2.273l2.336-7.16a2.222,2.222,0,0,1,2-1.541l7.183-.627.118,0a2.305,2.305,0,0,1,1.638.693s.765.7,1.858,1.8c.549.548,1.181,1.194,1.849,1.9.334.354.678.706,1.029,1.089a2.579,2.579,0,0,1,.572,2.411c-.022.079-.032.107-.065.206l-.072.178-.144.355c-.189.472-.388.931-.574,1.378-.376.893-.737,1.722-1.055,2.428-.632,1.416-1.1,2.342-1.1,2.342s.3-.993.811-2.456c.254-.733.562-1.583.9-2.489.172-.452.343-.923.53-1.4l.139-.356.07-.179c0-.023.037-.116.047-.162a2.117,2.117,0,0,0-.074-1.256l-6.985.551a3.476,3.476,0,0,1-2.816-.862h0l-5.04-4.6,4.24,5.245a2.609,2.609,0,0,1,.686,2.6c0,.013-.006.022-.01.035l-2.74,7.742A2.339,2.339,0,0,1,265.271,33.3Zm3.29-.212a.6.6,0,0,0,.337.155,1.181,1.181,0,0,0,.446-.036,1.993,1.993,0,0,0,.462-.194,2.078,2.078,0,0,0,.217-.139,2.164,2.164,0,0,0,.208-.169,2.063,2.063,0,0,0,.59-.824,1,1,0,0,0,.059-.433.675.675,0,0,0-.049-.176l-.053-.086a.5.5,0,0,0-.06-.067.889.889,0,0,0-.588-.194,1.536,1.536,0,0,0-.261.015l.064-.027a1.227,1.227,0,0,1,.189-.062,1.089,1.089,0,0,1,.315-.032.793.793,0,0,1,.414.13.775.775,0,0,1,.1.082c.044.046.055.062.084.1a.807.807,0,0,1,.12.268,1.158,1.158,0,0,1-.017.586,2.151,2.151,0,0,1-.655,1.009,2.325,2.325,0,0,1-.239.187,2.415,2.415,0,0,1-.264.161,1.955,1.955,0,0,1-.565.2,1.293,1.293,0,0,1-.577-.014.777.777,0,0,1-.448-.3.727.727,0,0,1-.132-.415.955.955,0,0,1,.048-.315,1.173,1.173,0,0,1,.077-.184l.033-.061a1.422,1.422,0,0,0-.036.259A.757.757,0,0,0,268.561,33.09Zm6.645-6.143a.6.6,0,0,0,.337.155,1.186,1.186,0,0,0,.446-.036,2,2,0,0,0,.462-.194,2.082,2.082,0,0,0,.217-.14,2.121,2.121,0,0,0,.208-.169,2.06,2.06,0,0,0,.59-.824,1,1,0,0,0,.059-.433.689.689,0,0,0-.049-.176l-.053-.086a.5.5,0,0,0-.06-.067.891.891,0,0,0-.588-.194,1.572,1.572,0,0,0-.261.015l.064-.027a1.228,1.228,0,0,1,.189-.062,1.088,1.088,0,0,1,.315-.032.794.794,0,0,1,.414.13.755.755,0,0,1,.1.082c.044.045.054.062.084.1a.8.8,0,0,1,.12.268,1.156,1.156,0,0,1-.017.585,2.152,2.152,0,0,1-.655,1.009,2.36,2.36,0,0,1-.239.187,2.426,2.426,0,0,1-.263.161,1.967,1.967,0,0,1-.566.2,1.292,1.292,0,0,1-.577-.014.778.778,0,0,1-.448-.3.727.727,0,0,1-.132-.415.955.955,0,0,1,.048-.315,1.173,1.173,0,0,1,.077-.184l.033-.061a1.422,1.422,0,0,0-.036.259A.756.756,0,0,0,275.206,26.947Z" transform="translate(-259.955 -15.958)" fill="#90e0ef"/>
  <path id="Path_456" data-name="Path 456" d="M300.1,39.8c.711.253,1.392.166,1.521-.2s-.344-.859-1.055-1.113-1.392-.166-1.521.2S299.39,39.55,300.1,39.8Z" transform="translate(-289.44 -32.857)" fill="#90e0ef"/>
  <path id="Path_457" data-name="Path 457" d="M284.635,24.772c.711.253,1.392.166,1.521-.2s-.343-.86-1.055-1.113-1.392-.166-1.521.2S283.924,24.519,284.635,24.772Z" transform="translate(-277.768 -21.513)" fill="#90e0ef"/>
  <path id="Path_458" data-name="Path 458" d="M322.961,36.95c-.711-.253-1.392-.166-1.521.2s.343.859,1.055,1.113,1.392.166,1.521-.2S323.672,37.2,322.961,36.95Z" transform="translate(-306.339 -31.69)" fill="#90e0ef"/>
  <path id="Path_459" data-name="Path 459" d="M307.676,23.457c.711.253,1.392.166,1.521-.2s-.343-.86-1.055-1.113-1.392-.166-1.521.2S306.965,23.2,307.676,23.457Z" transform="translate(-295.156 -20.52)" fill="#90e0ef"/>
  <path id="Path_460" data-name="Path 460" d="M273.641,32.338c-.358.021-.614.612-.573,1.321s.365,1.267.722,1.246.614-.612.573-1.321S274,32.317,273.641,32.338Z" transform="translate(-269.848 -28.319)" fill="#90e0ef"/>
  <path id="Path_461" data-name="Path 461" d="M286.8,50c.358-.021.614-.612.573-1.321s-.365-1.267-.723-1.246-.614.612-.573,1.321S286.445,50.02,286.8,50Z" transform="translate(-279.668 -39.71)" fill="#90e0ef"/>
  <path id="Path_462" data-name="Path 462" d="M270.185,43.6c-.358.021-.614.612-.573,1.321s.365,1.267.723,1.246.614-.612.573-1.321S270.542,43.576,270.185,43.6Z" transform="translate(-267.239 -36.816)" fill="#90e0ef"/>
  <path id="Path_463" data-name="Path 463" d="M283.346,61.259c.358-.021.614-.612.573-1.321s-.365-1.267-.722-1.246-.614.612-.573,1.321S282.988,61.279,283.346,61.259Z" transform="translate(-277.059 -48.207)" fill="#90e0ef"/>
  <path id="Path_464" data-name="Path 464" d="M266.794,54.563c-.358.021-.614.613-.573,1.321s.365,1.267.723,1.246.614-.612.573-1.321S267.152,54.542,266.794,54.563Z" transform="translate(-264.681 -45.091)" fill="#90e0ef"/>
  <path id="Path_465" data-name="Path 465" d="M280.557,71.643c-.041-.709-.365-1.267-.722-1.246s-.614.613-.573,1.321.365,1.267.723,1.246S280.6,72.352,280.557,71.643Z" transform="translate(-274.522 -57.041)" fill="#90e0ef"/>
</svg>
