<svg xmlns="http://www.w3.org/2000/svg" width="22.717" height="14.585" viewBox="0 0 22.717 14.585">
  <g id="Group_94" data-name="Group 94" transform="translate(-3204.421 2128.876)">
    <path id="Path_477" data-name="Path 477" d="M3226.956-2124.847a38.1,38.1,0,0,1-5.573-3.929.345.345,0,0,0-.243-.1.351.351,0,0,0-.15.034c-.1.051-10.592,5.076-16.331,6.951a.347.347,0,0,0-.224.431,7.019,7.019,0,0,1,.245,2.1.345.345,0,0,0,.106.266l4.89,4.7a.347.347,0,0,0,.24.1.343.343,0,0,0,.149-.034l16.72-7.978a.347.347,0,0,0,.193-.26,11.544,11.544,0,0,0,.147-2.018A.346.346,0,0,0,3226.956-2124.847Zm-7.508,2.375-.1-.079a1.034,1.034,0,0,0,.06-.338c0-.909-1.223-1.662-2.832-1.814l-.169-.131a57.214,57.214,0,0,0,5.2-2.627,28.124,28.124,0,0,0,3.22,2.267q-.251.147-.512.293l.409.257a.629.629,0,0,1,.11.085q.272-.154.534-.307c.165.1.3.177.392.23-.569.28-2.748,1.35-5.606,2.713l-.228-.177c1.078-.491,2.147-1,3.159-1.521l-.521-.344C3221.565-2123.457,3220.51-2122.955,3219.448-2122.472Zm-3.5-2.716-.286-.223c2.838-1.3,4.99-2.392,5.36-2.58.055.054.113.109.171.164A56.873,56.873,0,0,1,3215.949-2125.188Zm8.1,2.285c-.292.17-.6.348-.926.533-.434.24-.887.5-1.366.753l-.726.39-.312.161v-.15C3221.962-2121.822,3223.1-2122.4,3224.052-2122.9Zm-2.912-5.626a36.078,36.078,0,0,0,5.443,3.864c-.685.384-3.024,1.677-5.954,3.11l-.321-.25c3.28-1.565,5.648-2.735,5.675-2.749l.147-.073-.143-.08a28.475,28.475,0,0,1-4.886-3.451l-.045-.044-.056.029c-.045.023-2.36,1.208-5.491,2.644l-.323-.251C3218.529-2127.276,3221.141-2128.53,3221.141-2128.53Zm-8.687,4.759c.231.182.456.37.683.555q.683.555,1.352,1.127l.673.567c.223.19.444.384.666.576l.665.577c.223.191.44.388.659.583l.022.02v.026c-.008.266-.012.532-.023.8s-.021.532-.038.8c-.006-.087-.009-.174-.014-.261l-6.748,3.363,6.762-3.056v.027l-7.054,3.366-.136-1.94c1.953-.731,4.563-1.748,7.135-2.873,0-.064,0-.128-.005-.192l-.145-.12c-2.568,1.122-5.176,2.138-7.123,2.867-.508-.508-3.34-3.328-4.858-4.652,1.968-.653,4.443-1.647,6.863-2.68l-.025-.023C3212-2124.138,3212.224-2123.953,3212.454-2123.771Zm-7.427,4.43a7.273,7.273,0,0,0-.172-1.875c1.579,1.4,4.331,4.144,4.718,4.531l.129,1.84Z" fill="#90e0ef"/>
    <path id="Path_478" data-name="Path 478" d="M3215.116-2095.806c-.089-.1-.2-.222-.329-.356.191-.069.685-.248,1.4-.515l-.516-.371a.466.466,0,0,1-.076.034.17.17,0,0,1-.057.01h-.005c-.633.235-1.044.382-1.156.422-.8-.806-1.926-1.868-2.652-2.548.577-.2,3.077-1.1,6.079-2.328a1.025,1.025,0,0,0-.054.318c0,.916,1.243,1.674,2.871,1.817-.126-.106-.252-.211-.376-.318l-.665-.577c-.444-.383-.886-.769-1.322-1.163-.208-.186-.416-.37-.621-.56-3.255,1.331-5.965,2.288-6.334,2.417l-.2-.181c2.019-.665,4.226-1.54,6.315-2.433l-.139-.129c-2.113.9-4.341,1.782-6.37,2.443l-.14.046.108.1c.033.031,3.316,3.066,4.144,4.032l.039.046.056-.021c.038-.013,3.185-1.166,6.675-2.711l-.149-.123C3218.444-2097.043,3215.55-2095.966,3215.116-2095.806Z" transform="translate(-5.19 -21.746)" fill="#90e0ef"/>
    <path id="Path_479" data-name="Path 479" d="M3229.045-2087.339c-.865,0-1.565.377-1.565.842s.7.842,1.565.842,1.565-.377,1.565-.842S3229.91-2087.339,3229.045-2087.339Zm1.412.848a.434.434,0,0,1-.028.127.619.619,0,0,1-.15.2,1.292,1.292,0,0,1-.417.232,2.429,2.429,0,0,1-.9.116,2.242,2.242,0,0,1-.414-.055,2.064,2.064,0,0,1-.356-.112.916.916,0,0,1-.439-.34.364.364,0,0,1-.05-.2l.01.053a.411.411,0,0,0,.066.132.686.686,0,0,0,.173.15,1.6,1.6,0,0,0,.272.123,2.018,2.018,0,0,0,.346.081,2.951,2.951,0,0,0,.4.029,2.546,2.546,0,0,0,.843-.126,1.146,1.146,0,0,0,.367-.2.517.517,0,0,0,.115-.145.251.251,0,0,0,.021-.083.212.212,0,0,0,0-.08.511.511,0,0,0-.219-.271,1.417,1.417,0,0,0-.313-.156,2.654,2.654,0,0,0-.522-.126c-.13-.019-.206-.024-.206-.024l.054,0c.035,0,.087-.007.153,0a2.19,2.19,0,0,1,.549.071,1.512,1.512,0,0,1,.349.144.6.6,0,0,1,.294.335A.349.349,0,0,1,3230.458-2086.491Z" transform="translate(-18.847 -33.949)" fill="#90e0ef"/>
    <path id="Path_480" data-name="Path 480" d="M3294.456-2113.861c0-.379-.571-.686-1.275-.686s-1.275.307-1.275.686.571.686,1.275.686S3294.456-2113.483,3294.456-2113.861Zm-.191.109a.483.483,0,0,1-.119.162,1.017,1.017,0,0,1-.328.183,1.875,1.875,0,0,1-.7.089,1.813,1.813,0,0,1-.322-.044,1.438,1.438,0,0,1-.277-.09.721.721,0,0,1-.339-.271.272.272,0,0,1-.036-.159l.009.041a.317.317,0,0,0,.052.1.719.719,0,0,0,.346.2,1.8,1.8,0,0,0,.267.06,2.232,2.232,0,0,0,.3.021,1.975,1.975,0,0,0,.647-.1.871.871,0,0,0,.28-.148.389.389,0,0,0,.086-.107.176.176,0,0,0,.016-.06.145.145,0,0,0,0-.057.38.38,0,0,0-.164-.2,1.218,1.218,0,0,0-.239-.123,2.04,2.04,0,0,0-.4-.1c-.1-.016-.159-.021-.159-.021l.042,0c.027,0,.067-.006.119-.005a1.731,1.731,0,0,1,.427.049,1.088,1.088,0,0,1,.274.11.476.476,0,0,1,.234.266.3.3,0,0,1,.011.106A.355.355,0,0,1,3294.265-2113.752Z" transform="translate(-71.504 -11.711)" fill="#90e0ef"/>
    <path id="Path_481" data-name="Path 481" d="M3249.878-2083.478a.726.726,0,0,1,.156.137c.9-.352,1.912-.758,2.983-1.2l-.428-.361-.031-.027c-1.092.451-2.124.862-3.029,1.214Z" transform="translate(-36.868 -35.917)" fill="#90e0ef"/>
    <path id="Path_482" data-name="Path 482" d="M3237.3-2075.254l.213-.071-1.045-.748-.16.056a.1.1,0,0,1,0,.094.186.186,0,0,1-.084.072l.115.083a.3.3,0,0,0,.081-.042.08.08,0,0,0,.037-.052Z" transform="translate(-25.989 -43.158)" fill="#90e0ef"/>
    <path id="Path_483" data-name="Path 483" d="M3240.627-2076.83l-.514-.36a.775.775,0,0,0-.142-.079.6.6,0,0,0-.145-.041.5.5,0,0,0-.079-.006h-.016a.581.581,0,0,0-.084.008l-.027,0a.732.732,0,0,0-.1.027c-.108.038-.164.082-.168.132a.121.121,0,0,0,.03.081.47.47,0,0,0,.1.092l.5.357a.762.762,0,0,0,.3.134.593.593,0,0,0,.1.009h.029a.575.575,0,0,0,.07-.006l.029,0a.741.741,0,0,0,.1-.025.283.283,0,0,0,.16-.1.08.08,0,0,0,.01-.039C3240.778-2076.7,3240.727-2076.759,3240.627-2076.83Zm-.221.233a.211.211,0,0,1-.049,0,.489.489,0,0,1-.156-.083l-.516-.365c-.015-.01-.027-.02-.037-.028-.031-.026-.046-.046-.043-.059a.05.05,0,0,1,.037-.037.41.41,0,0,1,.048-.014.162.162,0,0,1,.033,0,.227.227,0,0,1,.072.015l.014.006a.442.442,0,0,1,.085.047l.52.365c.066.046.1.08.1.1s-.015.036-.049.048A.192.192,0,0,1,3240.406-2076.6Z" transform="translate(-28.549 -42.141)" fill="#90e0ef"/>
    <path id="Path_484" data-name="Path 484" d="M3244.508-2078.742a.7.7,0,0,0-.294-.121.571.571,0,0,0-.08-.006h-.013a.679.679,0,0,0-.09.008l-.027.005a.727.727,0,0,0-.106.029.573.573,0,0,0-.074.03c-.063.031-.1.066-.1.1s.041.109.135.174l.517.36a.893.893,0,0,0,.153.086.685.685,0,0,0,.156.048h0a.573.573,0,0,0,.1.009h.01l.019,0a.635.635,0,0,0,.074-.006l.03,0a.789.789,0,0,0,.1-.026h0c.021-.007.038-.015.055-.022.078-.034.12-.073.12-.118s-.052-.117-.155-.188Zm.091.512-.531-.368c-.059-.041-.086-.07-.083-.088a.053.053,0,0,1,.038-.038.361.361,0,0,1,.049-.015h0a.174.174,0,0,1,.034,0,.224.224,0,0,1,.073.015l.015.006a.465.465,0,0,1,.087.047l.534.368a.653.653,0,0,1,.077.06.076.076,0,0,1,.027.041.034.034,0,0,1-.011.028.1.1,0,0,1-.04.021.188.188,0,0,1-.06.01.2.2,0,0,1-.05,0A.493.493,0,0,1,3244.6-2078.23Z" transform="translate(-32.124 -40.872)" fill="#90e0ef"/>
    <path id="Path_485" data-name="Path 485" d="M3303.33-2103.342l.185-.082-.935-.614-.139.064a.094.094,0,0,1,0,.087.177.177,0,0,1-.072.073l.1.069h0a.272.272,0,0,0,.07-.045.112.112,0,0,0,.023-.026.056.056,0,0,0,.009-.025Z" transform="translate(-80.056 -20.3)" fill="#90e0ef"/>
    <path id="Path_486" data-name="Path 486" d="M3305.459-2105.5a.458.458,0,0,0-.065.008.4.4,0,0,0-.041,0,.619.619,0,0,0-.13.044q-.141.065-.144.135a.092.092,0,0,0,.006.036.281.281,0,0,0,.113.115l.449.294a.69.69,0,0,0,.132.068.554.554,0,0,0,.134.033h0l.052,0h.006a.509.509,0,0,0,.1-.011l.021-.005a.642.642,0,0,0,.1-.035.385.385,0,0,0,.11-.068.1.1,0,0,0,.035-.072q0-.074-.137-.161l-.459-.295a.543.543,0,0,0-.254-.09Zm.028.138a.426.426,0,0,1,.068.035l.464.3a.318.318,0,0,1,.084.069.036.036,0,0,1,.006.016c0,.019-.012.035-.042.048a.159.159,0,0,1-.061.013.163.163,0,0,1-.033,0,.385.385,0,0,1-.138-.065l-.461-.3q-.077-.05-.073-.075a.049.049,0,0,1,.031-.037.341.341,0,0,1,.042-.017.142.142,0,0,1,.037,0,.2.2,0,0,1,.06.011Z" transform="translate(-82.27 -19.11)" fill="#90e0ef"/>
    <path id="Path_487" data-name="Path 487" d="M3309.562-2107.178a.56.56,0,0,0-.261-.09h-.032a.52.52,0,0,0-.069.009.362.362,0,0,0-.042.005.67.67,0,0,0-.134.045.422.422,0,0,0-.109.068.1.1,0,0,0-.039.07.111.111,0,0,0,.029.073.4.4,0,0,0,.094.078l.462.295a.684.684,0,0,0,.136.069.55.55,0,0,0,.138.033l.051,0h.007a.551.551,0,0,0,.1-.012l.021-.005a.677.677,0,0,0,.109-.037q.152-.067.15-.143t-.141-.162Zm.331.52a.174.174,0,0,1-.063.013.186.186,0,0,1-.033,0,.394.394,0,0,1-.142-.065l-.474-.3a.213.213,0,0,1-.072-.061.021.021,0,0,1,0-.014.043.043,0,0,1,.01-.022.06.06,0,0,1,.022-.016.4.4,0,0,1,.043-.017.134.134,0,0,1,.039,0,.2.2,0,0,1,.061.011l.016.006a.4.4,0,0,1,.07.034l.477.3.04.027a.187.187,0,0,1,.047.043.034.034,0,0,1,.007.016.034.034,0,0,1-.01.027A.1.1,0,0,1,3309.893-2106.658Z" transform="translate(-85.374 -17.66)" fill="#90e0ef"/>
    <path id="Path_488" data-name="Path 488" d="M3237.841-2073.994c.336-.109.708-.25,1.118-.393s.854-.3,1.318-.482.958-.359,1.462-.564c.429-.176.875-.353,1.323-.54,0-.1-.007-.2-.01-.3-.473.22-.944.427-1.4.633-.494.222-.979.42-1.436.617s-.894.368-1.3.53-.771.313-1.1.435l-.856.319-.746.278.756-.25Z" transform="translate(-25.989 -42.998)" fill="#90e0ef"/>
    <path id="Path_489" data-name="Path 489" d="M3242.2-2073.376l-1.413.649c-.449.208-.877.394-1.271.571s-.755.338-1.078.476l-.834.359-.727.313.738-.285.847-.328c.328-.125.694-.276,1.1-.435s.836-.332,1.292-.523l1.438-.6c.433-.183.878-.373,1.329-.567,0-.1-.008-.2-.013-.3C3243.127-2073.812,3242.656-2073.589,3242.2-2073.376Z" transform="translate(-26.527 -44.819)" fill="#90e0ef"/>
    <path id="Path_490" data-name="Path 490" d="M3212.24-2073.833c-.2-.2-.427-.44-.679-.688s-.522-.511-.793-.773-.547-.519-.808-.758-.508-.458-.718-.648-.392-.34-.516-.449l-.2-.167.176.191c.114.119.273.294.472.5s.428.439.679.688.522.511.793.773.547.519.808.758.508.458.718.648.392.341.516.449l.2.167-.176-.191C3212.6-2073.456,3212.439-2073.631,3212.24-2073.833Z" transform="translate(-3.357 -42.141)" fill="#90e0ef"/>
    <path id="Path_491" data-name="Path 491" d="M3208.479-2084.1c.2.2.427.439.679.688s.522.511.793.773.547.519.808.758.508.458.717.648.392.341.516.449l.2.167-.176-.191c-.115-.119-.273-.294-.472-.5s-.427-.44-.679-.688-.522-.511-.794-.773-.547-.519-.808-.758-.508-.458-.717-.648-.392-.34-.516-.449l-.2-.167.176.191C3208.121-2084.477,3208.28-2084.3,3208.479-2084.1Z" transform="translate(-2.787 -36.035)" fill="#90e0ef"/>
    <path id="Path_492" data-name="Path 492" d="M3212.24-2077.02c-.2-.2-.427-.44-.679-.688s-.522-.511-.793-.773-.547-.519-.808-.758-.508-.458-.718-.648-.392-.34-.516-.449l-.2-.167.176.191c.114.119.273.294.472.5s.428.439.679.688.522.511.793.773.547.519.808.758.508.458.718.648.392.34.516.449l.2.167-.176-.192C3212.6-2076.643,3212.439-2076.818,3212.24-2077.02Z" transform="translate(-3.357 -39.536)" fill="#90e0ef"/>
  </g>
</svg>
