<svg id="Group_88" data-name="Group 88" xmlns="http://www.w3.org/2000/svg" width="21.034" height="13.267" viewBox="0 0 21.034 13.267">
  <path id="Path_448" data-name="Path 448" d="M336.3,228.428a1.166,1.166,0,0,0-1.012,1.744,8.462,8.462,0,0,1-2.134,2.421c-.028-.41-.043-.772-.051-1.041a.587.587,0,1,0-.714-.573.58.58,0,0,0,.215.452,8.251,8.251,0,0,1-.535.947,5.41,5.41,0,0,1-.7-2.4,1.165,1.165,0,1,0-1.555-.281,5.813,5.813,0,0,1-2.422,2.675c-.078-.228-.14-.447-.188-.637a.587.587,0,1,0-.507,0c-.047.191-.11.409-.188.638a5.818,5.818,0,0,1-2.422-2.675,1.166,1.166,0,1,0-1.555.281,5.41,5.41,0,0,1-.7,2.4,8.26,8.26,0,0,1-.526-.93.588.588,0,1,0-.507.1c-.008.27-.023.635-.051,1.049a8.462,8.462,0,0,1-2.134-2.421,1.166,1.166,0,1,0-2.177-.579,1.168,1.168,0,0,0,.879,1.13,41.445,41.445,0,0,1,.756,8.6.556.556,0,0,0,.006.081c.207,1.4,4.941,1.695,8.875,1.695s8.669-.294,8.875-1.695a.56.56,0,0,0,.006-.081,41.445,41.445,0,0,1,.756-8.6,1.166,1.166,0,0,0-.286-2.3Zm-19.311,1.165a.608.608,0,1,1,.921.52.681.681,0,0,1-.152.065.6.6,0,0,1-.16.024A.609.609,0,0,1,316.988,229.593Zm4.272,3.742a.9.9,0,0,0,.289-.046c1.185-.4,1.493-2.6,1.574-3.685a.6.6,0,1,1,.271-.047c1.5,3.238,3.554,3.568,3.554,3.568s1.659-.269,3.087-2.679h0a15.131,15.131,0,0,1-1.647,7.285c.239,0,.476-.005.71-.006l.75-.011c.493-.007.969-.02,1.421-.031s.878-.031,1.272-.051.754-.045,1.073-.072.6-.058.824-.09.406-.063.525-.094a1.307,1.307,0,0,0,.181-.055,1.306,1.306,0,0,1-.174.076,4.725,4.725,0,0,1-.516.152c-.226.054-.5.112-.82.164s-.679.1-1.073.15l-.615.066-.66.055c-.453.032-.931.069-1.426.086s-1.006.043-1.526.051-1.046.012-1.573.018-1.057-.007-1.577-.02-1.031-.031-1.526-.054-.973-.054-1.425-.091-.881-.079-1.275-.125-.754-.1-1.072-.153-.594-.11-.819-.164-.4-.107-.518-.143-.178-.067-.178-.067.063.02.183.046.3.056.527.086.48.057.779.085a45.476,45.476,0,0,0-1.151-6.253C319.446,232.279,320.427,233.335,321.26,233.335Zm9.483-4.945a.607.607,0,0,1,.03,1.214.99.99,0,0,1-.271-.047.608.608,0,0,1,.241-1.167Zm5.557.595a.608.608,0,1,1-.16,1.193.715.715,0,0,1-.152-.065.607.607,0,0,1,.312-1.128Zm-.628,3.906c.061-.354.132-.705.209-1.055s.165-.7.258-1.044c-.157.7-.3,1.4-.4,2.11-.055.354-.1.709-.139,1.064s-.075.712-.1,1.068-.052.714-.075,1.07-.038.714-.048,1.072c-.005.179-.014.357-.017.536l-.01.537c-.007.358,0,.716-.009,1.074v.01a.241.241,0,0,1-.04.087.571.571,0,0,1-.048.061.892.892,0,0,1-.109.1,1.583,1.583,0,0,1-.238.146,3.521,3.521,0,0,1-.505.2c-.172.055-.345.1-.52.145s-.35.079-.526.111c-.352.066-.706.118-1.061.159s-.711.073-1.067.1-.712.046-1.069.063-.713.028-1.07.035-.713.01-1.07.009-.713,0-1.07-.01l1.069-.026c.356-.009.712-.024,1.068-.039s.712-.033,1.067-.055.71-.049,1.065-.081c.708-.069,1.416-.147,2.113-.28.174-.033.348-.07.519-.113s.342-.09.509-.145a3.434,3.434,0,0,0,.485-.2,1.482,1.482,0,0,0,.217-.135.788.788,0,0,0,.091-.081.48.48,0,0,0,.034-.044.187.187,0,0,0,.017-.031c0-.356,0-.711.012-1.067l.014-.538c0-.179.014-.359.02-.538.012-.358.035-.717.055-1.075s.049-.716.087-1.073.075-.714.122-1.07S335.611,233.244,335.672,232.891ZM318.553,238.8c.121.024.3.056.527.086s.506.059.824.09l.026,0c0-.362-.016-.747-.047-1.146.31.07.66.139,1.043.2s.824.123,1.279.168c.227.027.461.047.7.067s.484.041.733.054l.758.044.777.027c.524.018,1.053.017,1.587.026.407-.006.813-.01,1.216-.017a8.472,8.472,0,0,1-.577.766c.311,0,.622,0,.929,0q.388-.006.769-.006l.75-.01c.493-.007.969-.02,1.421-.031s.878-.031,1.272-.051.754-.045,1.073-.072.6-.058.824-.09.406-.063.525-.094a1.277,1.277,0,0,0,.181-.055,1.288,1.288,0,0,1-.174.076,4.766,4.766,0,0,1-.516.152c-.226.054-.5.112-.82.164s-.679.1-1.073.15l-.615.066-.66.055c-.453.032-.931.069-1.426.086s-1.006.043-1.526.051-1.046.012-1.573.018-1.057-.007-1.577-.02-1.031-.031-1.526-.054-.973-.054-1.425-.091-.881-.079-1.275-.125-.754-.1-1.072-.153-.594-.11-.819-.164-.4-.107-.518-.144-.178-.067-.178-.067S318.432,238.776,318.553,238.8Zm1.373.473c.3.067.635.132,1,.19.395.062.824.123,1.279.168.227.027.461.048.7.067s.484.041.733.054l.758.044.777.027c.518.018,1.041.017,1.569.026a5.71,5.71,0,0,1-.907.684,26.449,26.449,0,0,1-5.964-.563C319.9,239.755,319.918,239.522,319.926,239.275Z" transform="translate(-316.431 -227.833)" fill="#90e0ef"/>
  <path id="Path_449" data-name="Path 449" d="M386.181,253.169c.05-.12.106-.25.154-.39s.105-.287.152-.443c.1-.309.185-.645.26-.982.034-.169.068-.339.1-.507s.051-.334.073-.494.032-.317.046-.465.018-.289.023-.418c.013-.259,0-.476,0-.628s-.014-.239-.014-.239-.028.083-.068.23c-.02.073-.045.162-.069.264l-.085.341c-.031.125-.061.26-.094.4s-.07.293-.1.449-.072.316-.106.48l-.108.5-.209.976-.093.451c-.031.143-.059.279-.083.405-.053.251-.093.462-.122.611l-.044.234s.049-.073.122-.206S386.08,253.408,386.181,253.169Z" transform="translate(-373.727 -244.991)" fill="#90e0ef"/>
  <path id="Path_450" data-name="Path 450" d="M396.428,232.718a.494.494,0,0,0,.233-.017.52.52,0,0,0,.344-.344.473.473,0,0,0,.023-.127.3.3,0,0,0,0-.049.364.364,0,0,0-.007-.063.462.462,0,0,0-.22-.324.376.376,0,0,0-.248-.048.279.279,0,0,0-.085.029.766.766,0,0,1,.07.045.391.391,0,0,1,.115.138.309.309,0,0,1,.031.187c0,.006,0,.02,0,.018s0,.034-.007.033-.01.022-.016.034a.279.279,0,0,1-.051.07.276.276,0,0,1-.07.05.255.255,0,0,1-.09.027.3.3,0,0,1-.182-.03.391.391,0,0,1-.138-.115.642.642,0,0,1-.045-.07.248.248,0,0,0-.03.085.375.375,0,0,0,.048.249A.458.458,0,0,0,396.428,232.718Z" transform="translate(-382.202 -231.062)" fill="#90e0ef"/>
  <path id="Path_451" data-name="Path 451" d="M428.435,236.255a.5.5,0,0,0,.234-.017.52.52,0,0,0,.344-.344.482.482,0,0,0,.023-.127.3.3,0,0,0,0-.049.366.366,0,0,0-.007-.063.462.462,0,0,0-.221-.324.376.376,0,0,0-.248-.048.283.283,0,0,0-.085.029.8.8,0,0,1,.07.045.391.391,0,0,1,.115.138.31.31,0,0,1,.031.187c0,.006,0,.02,0,.018s0,.034-.007.033-.01.022-.016.034a.275.275,0,0,1-.051.07.272.272,0,0,1-.07.05.255.255,0,0,1-.09.027.3.3,0,0,1-.182-.03.39.39,0,0,1-.138-.114.644.644,0,0,1-.045-.07.252.252,0,0,0-.03.085.375.375,0,0,0,.048.249A.458.458,0,0,0,428.435,236.255Z" transform="translate(-408.644 -233.985)" fill="#90e0ef"/>
  <path id="Path_452" data-name="Path 452" d="M353.032,232.707a.52.52,0,0,0,.344-.344.474.474,0,0,0,.023-.127.282.282,0,0,0,0-.049.363.363,0,0,0-.007-.063.462.462,0,0,0-.22-.324.377.377,0,0,0-.248-.048.276.276,0,0,0-.085.029s.032.016.07.045a.389.389,0,0,1,.115.138.31.31,0,0,1,.031.187c0,.006,0,.02,0,.018s0,.034-.007.033-.01.022-.016.034a.271.271,0,0,1-.051.07.278.278,0,0,1-.07.05.256.256,0,0,1-.09.027.3.3,0,0,1-.182-.03.389.389,0,0,1-.138-.115.654.654,0,0,1-.045-.07.247.247,0,0,0-.03.085.374.374,0,0,0,.048.249.457.457,0,0,0,.329.221A.5.5,0,0,0,353.032,232.707Z" transform="translate(-346.159 -231.067)" fill="#90e0ef"/>
  <path id="Path_453" data-name="Path 453" d="M321.243,236.081a.535.535,0,0,0,.129-.215.48.48,0,0,0,.023-.127.3.3,0,0,0,0-.049.367.367,0,0,0-.007-.062.461.461,0,0,0-.22-.324.375.375,0,0,0-.248-.048.28.28,0,0,0-.085.029.763.763,0,0,1,.07.045.39.39,0,0,1,.115.137.309.309,0,0,1,.031.187c0,.006,0,.02,0,.018s0,.034-.007.033-.01.022-.016.034a.272.272,0,0,1-.051.07.276.276,0,0,1-.07.05.253.253,0,0,1-.09.027.3.3,0,0,1-.182-.03.392.392,0,0,1-.138-.114.653.653,0,0,1-.045-.07.247.247,0,0,0-.03.085.376.376,0,0,0,.048.249.458.458,0,0,0,.329.221.5.5,0,0,0,.233-.017A.535.535,0,0,0,321.243,236.081Z" transform="translate(-319.721 -233.961)" fill="#90e0ef"/>
  <path id="Path_454" data-name="Path 454" d="M356.116,242.095c.015.063.035.14.062.227a2.982,2.982,0,0,0,.107.286,3.444,3.444,0,0,0,.154.327c.059.114.132.229.208.347l.125.174a1.76,1.76,0,0,0,.137.172l.147.169c.051.055.107.106.16.16a3.337,3.337,0,0,0,.341.293,3.136,3.136,0,0,0,.36.245,2.873,2.873,0,0,0,.36.189c.059.026.114.056.172.076l.167.055a2.628,2.628,0,0,0,.293.086c.089.018.168.03.232.041.128.02.2.026.2.026s-.063-.042-.175-.105c-.056-.031-.123-.071-.2-.11s-.158-.1-.25-.155a3.207,3.207,0,0,1-.286-.188c-.1-.071-.207-.136-.307-.222s-.212-.159-.313-.253-.21-.179-.307-.279-.2-.2-.292-.3-.18-.205-.27-.3-.167-.2-.24-.3-.147-.186-.209-.274c-.127-.173-.23-.322-.3-.428l-.112-.169A1.453,1.453,0,0,0,356.116,242.095Z" transform="translate(-349.186 -239.448)" fill="#90e0ef"/>
</svg>
