<svg xmlns="http://www.w3.org/2000/svg" width="16.903" height="16.903" viewBox="0 0 16.903 16.903">
  <g id="Group_92" data-name="Group 92" transform="translate(-78.755 1825.051)">
    <path id="Path_471" data-name="Path 471" d="M87.207-1808.148a8.452,8.452,0,0,0,8.452-8.452,8.451,8.451,0,0,0-8.452-8.451,8.451,8.451,0,0,0-8.452,8.451A8.452,8.452,0,0,0,87.207-1808.148Z" fill="#0da8e0"/>
    <path id="Path_472" data-name="Path 472" d="M85.1-1811.919s4.225-1.734,5.691-2.345c.562-.244,2.467-1.026,2.467-1.026s.879-.342.806.488c-.024.342-.22,1.539-.415,2.834-.293,1.832-.61,3.834-.61,3.834s-.049.562-.464.66a2.006,2.006,0,0,1-1.221-.44c-.1-.073-1.832-1.172-2.467-1.71a.463.463,0,0,1,.024-.782c.879-.806,1.93-1.808,2.565-2.443.293-.293.586-.977-.635-.147-1.734,1.2-3.444,2.321-3.444,2.321a1.435,1.435,0,0,1-1.123.024c-.733-.22-1.588-.513-1.588-.513s-.586-.366.415-.757Z" transform="translate(-2.822 -4.753)" fill="#fff"/>
  </g>
</svg>
