<svg xmlns="http://www.w3.org/2000/svg" width="20.921" height="20.758" viewBox="0 0 20.921 20.758">
  <path id="Path_467" data-name="Path 467" d="M281.506,374.347l-.352.325m-2.432,3.648-1.244-.135-6.054,6.082c-.27.243-1.108.73-1.351.486-.27-.243.162-1.135.432-1.4l6.055-6.055-.135-1.243,3.432-3.432.46,1.837.837.217h0l1,.243Zm-8.108,3.244c.053,0,.108.027.162.027l1.757-1.73.027-.054a4.671,4.671,0,0,0-1.946-.433A4.622,4.622,0,1,0,275.208,384a4.289,4.289,0,0,0-.432-1.947l-.027.027-1.73,1.73V384a2.419,2.419,0,1,1-2.4-2.433Zm0,11.812a9.367,9.367,0,0,0,8.27-13.786c-.081,0-.162.028-.243.028a.284.284,0,0,1-.135-.028l-1.189-.08-.839.864a6.885,6.885,0,1,1-2.243-2.243l.784-.757L274.911,376v-.324a9.266,9.266,0,0,0-4.3-1.054,9.379,9.379,0,1,0,0,18.758Zm9.973-17.758-2.054,2.054-.027.054-.027-.054-.081-.055-.027-.027.027-.054,2.054-2.054.027-.054.027.054.081.054.027.054Zm-1.27-1.136-2.027,2.082-.027.026-.027-.026-.081-.082-.028-.027.028-.027,2.027-2.081.027-.027.054.027.054.081.054.027Zm.594.514-2.027,2.081-.027.028-.027-.028-.081-.081-.027-.027.027-.027,2.027-2.081.055-.028.026.028.054.081.054.027Z" transform="translate(-261.234 -372.618)" fill="#90e0ef" fill-rule="evenodd"/>
</svg>
