<svg xmlns="http://www.w3.org/2000/svg" xmlns:xlink="http://www.w3.org/1999/xlink" width="18.864" height="18.864" viewBox="0 0 18.864 18.864">
  <defs>
    <linearGradient id="linear-gradient" x1="0.854" y1="0.854" x2="0.146" y2="0.146" gradientUnits="objectBoundingBox">
      <stop offset="0" stop-color="#68aa45"/>
      <stop offset="1" stop-color="#399c48"/>
    </linearGradient>
  </defs>
  <path id="Path_473" data-name="Path 473" d="M147.005-1825.051a9.432,9.432,0,0,0-9.432,9.432,9.432,9.432,0,0,0,9.432,9.432,9.432,9.432,0,0,0,9.432-9.432A9.432,9.432,0,0,0,147.005-1825.051Zm.2,14.681a5.588,5.588,0,0,1-2.663-.679l-3.049.817.813-3.034a5.582,5.582,0,0,1-.7-2.706,5.608,5.608,0,0,1,5.6-5.6,5.608,5.608,0,0,1,5.6,5.6A5.608,5.608,0,0,1,147.2-1810.37Zm0-10.144a4.548,4.548,0,0,0-4.543,4.543,4.53,4.53,0,0,0,.664,2.355l.118.193-.454,1.694,1.7-.457.192.115a4.539,4.539,0,0,0,2.319.642,4.548,4.548,0,0,0,4.543-4.543A4.548,4.548,0,0,0,147.2-1820.515Zm2.669,6.258a1.353,1.353,0,0,1-1.015.755,2.134,2.134,0,0,1-1.119-.176,4.7,4.7,0,0,1-.962-.457,5.5,5.5,0,0,1-1.542-1.432,6.175,6.175,0,0,1-.355-.54,2.967,2.967,0,0,1-.341-.785,1.58,1.58,0,0,1-.044-.355,1.409,1.409,0,0,1,.49-1.118.64.64,0,0,1,.7-.1,1.5,1.5,0,0,1,.467.7,1.161,1.161,0,0,1,.147.633,1.22,1.22,0,0,1-.329.534.222.222,0,0,0-.028.3,3.631,3.631,0,0,0,1.813,1.553.2.2,0,0,0,.258-.056c.135-.167.268-.493.477-.578a.942.942,0,0,1,.8.181c.214.129.574.286.632.552A.656.656,0,0,1,149.869-1814.256Z" transform="translate(-137.573 1825.051)" fill="url(#linear-gradient)"/>
</svg>
