<svg xmlns="http://www.w3.org/2000/svg" width="49.011" height="36.211" viewBox="0 0 49.011 36.211">
  <g id="Casino" transform="translate(0)">
    <g id="Group_570" data-name="Group 570">
      <path id="Path_5094" data-name="Path 5094" d="M-1021.125,906.759l-7.8,7.288-.028.025a4.013,4.013,0,0,1-1.8.95h0l-.011,0a4.048,4.048,0,0,1-2.069-.071l-10.213-3.115a4.014,4.014,0,0,1-2.737-2.929l-2.411-10.4c-.014-.061-.026-.119-.036-.181a4.024,4.024,0,0,1,.079-1.8,3.989,3.989,0,0,1,1.127-1.856l7.8-7.288a4.021,4.021,0,0,1,1.833-.976,4.021,4.021,0,0,1,2.073.069l10.214,3.115a3.987,3.987,0,0,1,1.827,1.172,4.009,4.009,0,0,1,.861,1.577c.018.06.035.118.048.18l1,4.315,1.41,6.088A4.018,4.018,0,0,1-1021.125,906.759Z" transform="translate(1048.295 -886.306)" fill="#112844"/>
      <path id="Path_5095" data-name="Path 5095" d="M-1016.628,899.148l2.411,10.4a3.27,3.27,0,0,1-.955,3.13l-7.8,7.289a3.285,3.285,0,0,1-1.49.8l-.011,0a3.284,3.284,0,0,1-1.688-.058l-10.213-3.113a3.271,3.271,0,0,1-2.234-2.391l-2.411-10.4c-.011-.047-.019-.092-.027-.139a3.243,3.243,0,0,1,.063-1.475,3.261,3.261,0,0,1,.919-1.515l7.8-7.289a3.279,3.279,0,0,1,3.189-.739l10.213,3.114a3.261,3.261,0,0,1,1.492.956,3.241,3.241,0,0,1,.705,1.3C-1016.651,899.057-1016.639,899.1-1016.628,899.148Z" transform="translate(1041.84 -892.766)" fill="#112844"/>
      <path id="Path_5096" data-name="Path 5096" d="M-1016.324,897.714a3.261,3.261,0,0,1-.919,1.515l-7.8,7.289a3.279,3.279,0,0,1-3.189.739l-10.213-3.114a3.26,3.26,0,0,1-1.492-.956,3.261,3.261,0,0,1,.919-1.515l7.8-7.289a3.279,3.279,0,0,1,3.189-.739l10.213,3.114A3.261,3.261,0,0,1-1016.324,897.714Z" transform="translate(1040.793 -892.766)" fill="#f7fbfe"/>
      <path id="Path_5097" data-name="Path 5097" d="M-891.319,947.684a3.282,3.282,0,0,0-1.358.761l-7.8,7.289-.015.014a2.66,2.66,0,0,0-.768,1.376,2.866,2.866,0,0,0-.013,1.143c.592,3.1,1.97,9.635,3.264,10.735a3.269,3.269,0,0,0,.516-.393l7.8-7.289a3.27,3.27,0,0,0,.955-3.13l-2.411-10.4Z" transform="translate(916.361 -941.405)" fill="#c7dafd"/>
      <path id="Path_5098" data-name="Path 5098" d="M-1040.181,1001.838a3.285,3.285,0,0,1,1.555.086l10.213,3.114.019.006a2.661,2.661,0,0,1,1.3.9,2.866,2.866,0,0,1,.515,1.021c.834,3.048,2.47,9.519,1.792,11.076a3.268,3.268,0,0,1-.637-.126l-10.213-3.113a3.271,3.271,0,0,1-2.234-2.391l-2.411-10.4Z" transform="translate(1041.107 -989.969)" fill="#dbeafe"/>
      <path id="Path_5099" data-name="Path 5099" d="M-851.088,1028.556c1.948.392.991,5-.834,4.413S-853.035,1028.164-851.088,1028.556Z" transform="translate(872.959 -1013.98)" fill="#c84c41"/>
      <g id="Group_569" data-name="Group 569" transform="translate(3.664 14.168)">
        <g id="Group_565" data-name="Group 565" transform="translate(5.488 1.646)">
          <path id="Path_5100" data-name="Path 5100" d="M-956.567,1043.657c.993-.96-.8-3.461-1.938-2.59S-957.56,1044.617-956.567,1043.657Z" transform="translate(958.835 -1040.886)" fill="#c84c41"/>
        </g>
        <g id="Group_566" data-name="Group 566">
          <path id="Path_5101" data-name="Path 5101" d="M-1012.147,1024.979c-1.135.871.945,3.55,1.938,2.59S-1011.011,1024.108-1012.147,1024.979Z" transform="translate(1012.477 -1024.798)" fill="#c84c41"/>
        </g>
        <g id="Group_567" data-name="Group 567" transform="translate(7.039 8.338)">
          <path id="Path_5102" data-name="Path 5102" d="M-943.343,1106.48c-1.135.871.944,3.55,1.938,2.59S-942.207,1105.609-943.343,1106.48Z" transform="translate(943.673 -1106.299)" fill="#c84c41"/>
        </g>
        <g id="Group_568" data-name="Group 568" transform="translate(1.551 6.692)">
          <path id="Path_5103" data-name="Path 5103" d="M-996.985,1090.392c-1.135.871.944,3.55,1.938,2.59S-995.849,1089.521-996.985,1090.392Z" transform="translate(997.315 -1090.211)" fill="#c84c41"/>
        </g>
      </g>
      <path id="Path_5104" data-name="Path 5104" d="M-930.187,972.755c.158,1.341,3.809.7,3.4-.545S-930.313,971.69-930.187,972.755Z" transform="translate(942.273 -962.835)" fill="#c84c41"/>
      <path id="Path_5105" data-name="Path 5105" d="M-941.233,945.606c.158,1.341,3.809.7,3.4-.545S-941.359,944.54-941.233,945.606Z" transform="translate(952.189 -938.462)" fill="#c84c41"/>
      <path id="Path_5106" data-name="Path 5106" d="M-953.931,916.462c.158,1.341,3.809.7,3.4-.545S-954.057,915.4-953.931,916.462Z" transform="translate(963.588 -912.3)" fill="#c84c41"/>
      <path id="Path_5107" data-name="Path 5107" d="M-887.621,930.8c.158,1.341,3.809.7,3.4-.545S-887.747,929.737-887.621,930.8Z" transform="translate(904.062 -925.174)" fill="#c84c41"/>
      <path id="Path_5108" data-name="Path 5108" d="M-998.752,958.938c.158,1.341,3.809.7,3.4-.545S-998.878,957.873-998.752,958.938Z" transform="translate(1003.824 -950.431)" fill="#c84c41"/>
    </g>
    <g id="Group_571" data-name="Group 571" transform="translate(17.762 10.531)" style="mix-blend-mode: multiply;isolation: isolate">
      <path id="Path_5109" data-name="Path 5109" d="M-865.263,999.168l-7.8,7.288-.028.025-.418-.615-.466-.684a4.017,4.017,0,0,1-.3-4l2.052-4.261,1.741-3.614.84-1.746c.028-.055.055-.109.087-.163a4.012,4.012,0,0,1,1.186-1.351,3.992,3.992,0,0,1,2.04-.742l.082-.005.743-.057,1.41,6.088A4.018,4.018,0,0,1-865.263,999.168Z" transform="translate(874.672 -989.246)" fill="#c7dafd"/>
    </g>
    <g id="Group_575" data-name="Group 575" transform="translate(19.7 8.953)">
      <path id="Path_5110" data-name="Path 5110" d="M-847.452,1000.683a4.029,4.029,0,0,1-1.568-1.351l-6.013-8.823a4.017,4.017,0,0,1-.3-4l4.634-9.621c.027-.056.055-.11.086-.164a4.007,4.007,0,0,1,1.186-1.351,3.99,3.99,0,0,1,2.041-.742l10.646-.8a4.022,4.022,0,0,1,2.039.387,4.02,4.02,0,0,1,1.573,1.353l6.013,8.823a3.99,3.99,0,0,1,.691,2.059,4,4,0,0,1-.317,1.769c-.023.058-.047.113-.074.17l-4.634,9.621a4.018,4.018,0,0,1-3.313,2.257l-10.646.8a4.027,4.027,0,0,1-2.032-.383h0Z" transform="translate(855.729 -973.825)" fill="#20375f"/>
      <path id="Path_5111" data-name="Path 5111" d="M-821.028,994.539l-4.634,9.621a3.271,3.271,0,0,1-2.7,1.842l-10.647.8a3.286,3.286,0,0,1-1.66-.313l-.01,0a3.285,3.285,0,0,1-1.28-1.1l-6.013-8.823a3.271,3.271,0,0,1-.245-3.263l4.634-9.621c.021-.043.042-.084.067-.125a3.243,3.243,0,0,1,.972-1.111,3.26,3.26,0,0,1,1.665-.606l10.647-.8a3.279,3.279,0,0,1,2.949,1.421l6.013,8.823a3.261,3.261,0,0,1,.564,1.68,3.242,3.242,0,0,1-.263,1.453C-820.989,994.453-821.007,994.5-821.028,994.539Z" transform="translate(849.28 -980.287)" fill="#20375f"/>
      <path id="Path_5112" data-name="Path 5112" d="M-768.085,992.955a3.261,3.261,0,0,1-1.665.606l-10.647.8a3.279,3.279,0,0,1-2.949-1.421l-6.013-8.823a3.262,3.262,0,0,1-.564-1.68,3.26,3.26,0,0,1,1.665-.606l10.647-.8a3.279,3.279,0,0,1,2.949,1.421l6.013,8.823A3.261,3.261,0,0,1-768.085,992.955Z" transform="translate(796.656 -980.287)" fill="#f7fbfe"/>
      <path id="Path_5113" data-name="Path 5113" d="M-743.361,1108.98a3.281,3.281,0,0,0-1.536-.257l-10.647.8-.02,0a2.659,2.659,0,0,0-1.46.591,2.864,2.864,0,0,0-.726.883c-1.482,2.791-4.5,8.746-4.178,10.413a3.258,3.258,0,0,0,.649.016l10.647-.8a3.271,3.271,0,0,0,2.7-1.842l4.634-9.621Z" transform="translate(771.545 -1094.915)" fill="#c7dafd"/>
      <path id="Path_5114" data-name="Path 5114" d="M-843.4,1006.3a3.283,3.283,0,0,1,1.158,1.041l6.013,8.823.011.017a2.661,2.661,0,0,1,.448,1.51,2.867,2.867,0,0,1-.238,1.118c-1.259,2.9-4.035,8.969-5.538,9.758a3.262,3.262,0,0,1-.418-.5l-6.013-8.823a3.271,3.271,0,0,1-.245-3.263l4.634-9.621Z" transform="translate(849.28 -1002.98)" fill="#dbeafe"/>
      <g id="Group_574" data-name="Group 574" transform="translate(5.611 7.177)">
        <g id="Group_572" data-name="Group 572">
          <path id="Path_5115" data-name="Path 5115" d="M-799.771,1043.985c-1.431-.032-1.487,3.359-.111,3.233S-798.34,1044.017-799.771,1043.985Z" transform="translate(800.879 -1043.985)" fill="#c84c41"/>
        </g>
        <g id="Group_573" data-name="Group 573" transform="translate(0.267 10.908)">
          <path id="Path_5116" data-name="Path 5116" d="M-797.16,1150.613c-1.431-.032-1.487,3.359-.111,3.233S-795.73,1150.645-797.16,1150.613Z" transform="translate(798.269 -1150.613)" fill="#c84c41"/>
        </g>
      </g>
      <path id="Path_5117" data-name="Path 5117" d="M-696.869,1030.19c-.717,1.145,2.533,2.929,2.992,1.7S-696.3,1029.281-696.869,1030.19Z" transform="translate(713.213 -1024.161)" fill="#c84c41"/>
      <path id="Path_5118" data-name="Path 5118" d="M-640.546,1057.32c-.717,1.144,2.533,2.929,2.992,1.7S-639.977,1056.411-640.546,1057.32Z" transform="translate(662.652 -1048.516)" fill="#c84c41"/>
      <path id="Path_5119" data-name="Path 5119" d="M-751.647,1002.52c-.717,1.144,2.533,2.929,2.992,1.7S-751.078,1001.611-751.647,1002.52Z" transform="translate(762.387 -999.322)" fill="#c84c41"/>
      <path id="Path_5120" data-name="Path 5120" d="M-691.209,1126.282c-.759-1.154,1.542-3.2,2.459-2.1S-690.45,1127.436-691.209,1126.282Z" transform="translate(708.175 -1108.516)" fill="#c84c41"/>
      <path id="Path_5121" data-name="Path 5121" d="M-632.885,1120.248c.917,1.1-1.7,3.256-2.459,2.1S-633.8,1119.149-632.885,1120.248Z" transform="translate(658.025 -1104.986)" fill="#c84c41"/>
      <path id="Path_5122" data-name="Path 5122" d="M-705.831,1159.642c.917,1.1-1.7,3.256-2.459,2.1S-706.748,1158.543-705.831,1159.642Z" transform="translate(723.509 -1140.351)" fill="#c84c41"/>
      <path id="Path_5123" data-name="Path 5123" d="M-649.967,1155.711c.917,1.1-1.7,3.256-2.459,2.1S-650.884,1154.612-649.967,1155.711Z" transform="translate(673.36 -1136.821)" fill="#c84c41"/>
      <path id="Path_5124" data-name="Path 5124" d="M-723.415,1196.148c.917,1.1-1.7,3.256-2.459,2.1S-724.332,1195.049-723.415,1196.148Z" transform="translate(739.294 -1173.122)" fill="#c84c41"/>
      <path id="Path_5125" data-name="Path 5125" d="M-667.551,1192.216c.917,1.1-1.7,3.256-2.459,2.1S-668.468,1191.117-667.551,1192.216Z" transform="translate(689.145 -1169.592)" fill="#c84c41"/>
    </g>
  </g>
</svg>
