<svg id="Component_22_1" data-name="Component 22 – 1" xmlns="http://www.w3.org/2000/svg" xmlns:xlink="http://www.w3.org/1999/xlink" width="8.051" height="12.573" viewBox="0 0 8.051 12.573">
  <defs>
    <linearGradient id="linear-gradient" x1="0.5" y1="1" x2="0.5" gradientUnits="objectBoundingBox">
      <stop offset="0" stop-color="#420c57"/>
      <stop offset="1" stop-color="#66319a"/>
    </linearGradient>
    <linearGradient id="linear-gradient-2" y1="0.5" x2="1" y2="0.5" gradientUnits="objectBoundingBox">
      <stop offset="0" stop-color="#511881"/>
      <stop offset="1" stop-color="#591a8e"/>
    </linearGradient>
    <linearGradient id="linear-gradient-4" x1="0.5" y1="1" x2="0.5" gradientUnits="objectBoundingBox">
      <stop offset="0" stop-color="#d4652c"/>
      <stop offset="1" stop-color="#ff9500"/>
    </linearGradient>
    <linearGradient id="linear-gradient-5" x1="0.5" y1="1" x2="0.5" y2="0" xlink:href="#linear-gradient-4"/>
  </defs>
  <path id="Path_13" data-name="Path 13" d="M331.087,453a4.556,4.556,0,0,1-.8,2.536,3.962,3.962,0,0,1-3.215,1.828,4.113,4.113,0,0,1-3.621-2.557l-.007-.014a.013.013,0,0,0,0,0,4.426,4.426,0,0,1-.388-1.788,4,4,0,0,1,.178-1.185v0A4.017,4.017,0,0,1,331.087,453Z" transform="translate(-323.036 -444.79)" fill="url(#linear-gradient)"/>
  <path id="Path_14" data-name="Path 14" d="M332.749,448.349l-.152-.818,4.131-.1-.3.828S334.421,449.78,332.749,448.349Z" transform="translate(-330.626 -443.561)" fill="url(#linear-gradient-2)"/>
  <path id="Path_15" data-name="Path 15" d="M332.517,445.932c-.367-.844,4.31-.459,4.131-.1C336.436,446.269,332.956,446.941,332.517,445.932Z" transform="translate(-330.546 -441.962)" fill="#8354ab"/>
  <path id="Path_16" data-name="Path 16" d="M337.8,446.7c.186-.276,1.538-.223,1.838-.017S337.561,447.057,337.8,446.7Z" transform="translate(-334.751 -442.826)" fill="url(#linear-gradient-2)"/>
  <path id="Path_17" data-name="Path 17" d="M333.353,450.084a2.193,2.193,0,0,1,.008-.546c.046-.029.961.253,1.579.322s.419.6.313.633A2.124,2.124,0,0,1,333.353,450.084Z" transform="translate(-331.216 -445.231)" fill="#be5286" opacity="0.5" style="mix-blend-mode: multiply;isolation: isolate"/>
  <path id="Path_18" data-name="Path 18" d="M343.523,450.508c-.2.019-.028-.658,0-.743a3.8,3.8,0,0,1,.989-.219,1.494,1.494,0,0,1-.134.737A7.349,7.349,0,0,1,343.523,450.508Z" transform="translate(-339.24 -445.239)" fill="#fff" opacity="0.2" style="mix-blend-mode: soft-light;isolation: isolate"/>
  <path id="Path_19" data-name="Path 19" d="M331.087,463.558a4.031,4.031,0,1,1-8.035,0,4,4,0,0,1,.178-1.185v0c.411-.908,2.547,4.01,4.719,4.29s3.1-1.767,3.049-3.672a1.534,1.534,0,0,1,.008-.231A4.045,4.045,0,0,1,331.087,463.558Z" transform="translate(-323.036 -455.349)" fill="#be5286" opacity="0.5" style="mix-blend-mode: multiply;isolation: isolate"/>
  <path id="Path_20" data-name="Path 20" d="M334.835,454.291c-1.179.025-.877,4.083,1.342,5.155s3.895-1.439,3.652-3.078a2.907,2.907,0,0,0-2.066-2.432C337.31,453.9,336.452,454.256,334.835,454.291Z" transform="translate(-331.866 -448.727)" fill="#fff" opacity="0.3" style="mix-blend-mode: soft-light;isolation: isolate"/>
  <path id="Path_21" data-name="Path 21" d="M333.245,451.212a2.117,2.117,0,0,0,1.826.652,3.555,3.555,0,0,0,1.894-.7l.105.027a5.8,5.8,0,0,1-2.4.8C333.233,452.155,333.245,451.212,333.245,451.212Z" transform="translate(-331.141 -446.527)" fill="#6d2f55" opacity="0.8" style="mix-blend-mode: multiply;isolation: isolate"/>
  <path id="Path_22" data-name="Path 22" d="M324.957,477.359l.007.014Z" transform="translate(-324.551 -467.357)" fill="#fff" opacity="0.3" style="mix-blend-mode: soft-light;isolation: isolate"/>
  <path id="Path_23" data-name="Path 23" d="M331.825,478.157a3.961,3.961,0,0,1-3.215,1.828,4.113,4.113,0,0,1-3.621-2.557,4.683,4.683,0,0,0,2.282,2.125c1.617.671,3.085-.524,3.976-1.226A.748.748,0,0,1,331.825,478.157Z" transform="translate(-324.577 -467.411)" fill="#a2ffff" style="mix-blend-mode: soft-light;isolation: isolate"/>
  <path id="Path_24" data-name="Path 24" d="M327.958,476.968c-.6-.774-.143-1.616.933-1.217s2.038,1.377,2.792,1.575S330.023,479.614,327.958,476.968Z" transform="translate(-326.724 -465.996)" fill="#be5286" opacity="0.5" style="mix-blend-mode: multiply;isolation: isolate"/>
  <path id="Path_25" data-name="Path 25" d="M348.1,459.314c-.366.12-.13,1.133.3,1.048S348.591,459.152,348.1,459.314Z" transform="translate(-342.807 -452.994)" fill="#fff" opacity="0.5" style="mix-blend-mode: soft-light;isolation: isolate"/>
  <path id="Path_26" data-name="Path 26" d="M323.105,456.555c.275.551.014-.986.6-2.586a5.251,5.251,0,0,1,1.094-1.756A4.086,4.086,0,0,0,323.105,456.555Z" transform="translate(-322.972 -447.36)" fill="#a2ffff" style="mix-blend-mode: soft-light;isolation: isolate"/>
  <g id="Group_13" data-name="Group 13" transform="translate(0.854 6.288)">
    <path id="Path_27" data-name="Path 27" d="M329.6,459.515a.689.689,0,0,0-.5-.29,1.344,1.344,0,0,0-.481.046,2.054,2.054,0,0,0-1.285,1.146,1.773,1.773,0,0,0-.007,1.629.417.417,0,0,0,.345.144c.08-.011.129-.043.165,0a.128.128,0,0,1,.024.046.54.54,0,0,1-.017.3,1.8,1.8,0,0,1-.078.221c.076.22.864.413.914.378,0,0,0,0,0,0,.009-.048,0-.389,0-.389s.067.205.115.325a.28.28,0,0,0,.043.082.22.22,0,0,0,.1-.016c.167-.047.481-.174.464-.223a3.281,3.281,0,0,1-.36-.723c0-.006,0-.011,0-.017-.007-.068.066-.078.167-.068l.028,0a2.766,2.766,0,0,0,.312.031h0c.145,0,.271-.04.3-.2a2.454,2.454,0,0,0,.036-.251A3.7,3.7,0,0,0,329.6,459.515Zm-.981,2.628h0a1.223,1.223,0,0,1-.455-.1c-.1-.072.079-.392.164-.483.023-.024.056-.01.094.028a1.79,1.79,0,0,1,.278.491C328.717,462.122,328.682,462.139,328.624,462.143Zm-.909-.548c-.194.015-.371-.087-.372-.406,0-.617.313-.956.618-.895l.029.006c.324.092.31.793.194,1.012a.63.63,0,0,1-.469.283Zm1.407.066a.732.732,0,0,1-.61-.339c-.117-.227.018-.932.393-1.038a.4.4,0,0,1,.2-.011c.249.053.365.4.342.967-.011.3-.152.411-.324.421Z" transform="translate(-327.141 -459.219)" fill="#479dff"/>
  </g>
  <g id="Group_14" data-name="Group 14" transform="translate(0.966 6.294)">
    <path id="Path_28" data-name="Path 28" d="M330.042,459.539a.689.689,0,0,0-.5-.29,1.483,1.483,0,0,0-.368.051,2.054,2.054,0,0,0-1.284,1.146,1.768,1.768,0,0,0-.007,1.63.543.543,0,0,0,.232.138.336.336,0,0,0,.165,0c.068-.016.109-.033.138.051a.557.557,0,0,1-.018.3,1.7,1.7,0,0,1-.077.221c.059.174.569.332.8.372,0,0,0,0,0,0,.009-.048,0-.389,0-.389h0c0-.115.112.006.112.006a3.852,3.852,0,0,0,.144.385c.166-.047.481-.174.464-.223a3.287,3.287,0,0,1-.36-.723c0-.006,0-.011,0-.017-.007-.068.066-.078.167-.068l.028,0a.409.409,0,0,1,.085,0c.066.006.146.021.227.029h0c.145,0,.27-.04.3-.2a2.418,2.418,0,0,0,.036-.251A3.7,3.7,0,0,0,330.042,459.539Zm-1.889,2.079h0c-.194.015-.371-.087-.372-.406,0-.617.313-.956.618-.895a.373.373,0,0,1,.141.012c.323.092.31.793.194,1.012A.611.611,0,0,1,328.154,461.618Zm.908.548h0a1.226,1.226,0,0,1-.455-.1c-.1-.072.1-.379.164-.483a.109.109,0,0,1,.139-.012,2.891,2.891,0,0,1,.345.537C329.274,462.174,329.179,462.181,329.062,462.166Zm.935-.9c-.013.359-.219.452-.436.415h0a.732.732,0,0,1-.61-.339c-.117-.227.018-.932.393-1.038a.4.4,0,0,1,.2-.011C329.87,460.262,330.022,460.621,330,461.269Z" transform="translate(-327.691 -459.249)" fill="#47ffff"/>
  </g>
  <g id="Group_15" data-name="Group 15" transform="translate(1.125)">
    <path id="Path_29" data-name="Path 29" d="M341.045,440.309a0,0,0,0,0,0,0,3.339,3.339,0,0,1-.11.38l-.93.036s-.032-.347-.028-.417l.022-.084a6.023,6.023,0,0,1,.216-.644,1.761,1.761,0,0,1,.576-.837A1.646,1.646,0,0,1,341.045,440.309Z" transform="translate(-337.619 -436.65)" fill="url(#linear-gradient-4)"/>
    <path id="Path_30" data-name="Path 30" d="M340.356,434.009s-.033.037-.087.107a4.207,4.207,0,0,0-.705,1.373l-.022.084a12.451,12.451,0,0,1-.1-1.822,1.569,1.569,0,0,1,.488-.958s0,0,0,0h0A1.894,1.894,0,0,1,340.356,434.009Z" transform="translate(-337.184 -431.913)" fill="url(#linear-gradient-5)"/>
    <path id="Path_31" data-name="Path 31" d="M335.979,429.7h0s0,0,0,0a2.3,2.3,0,0,0-.488.958s-.819-.253-.92-.756a5.972,5.972,0,0,1-.1-.857.266.266,0,0,0,0-.034.013.013,0,0,0,0-.01v0a.014.014,0,0,0,0-.007v-.035c0-.024,0-.038,0-.038a2.407,2.407,0,0,1,1.079.1A.949.949,0,0,1,335.979,429.7Z" transform="translate(-333.23 -428.822)" fill="url(#linear-gradient-4)"/>
    <path id="Path_32" data-name="Path 32" d="M329.8,429.594a1.732,1.732,0,0,1-.849-.251,2.172,2.172,0,0,1-.351-.28l-.011-.01a.78.78,0,0,1-.124-.152,1.045,1.045,0,0,1,1.223-.292h0s0,.013,0,.038v.035s0,.007,0,.011a.012.012,0,0,1,0,.01A4.841,4.841,0,0,0,329.8,429.594Z" transform="translate(-328.466 -428.512)" fill="url(#linear-gradient-4)"/>
  </g>
  <path id="Path_33" data-name="Path 33" d="M332.415,432.519a3.341,3.341,0,0,1-.11.38l-.93.036s-.032-.347-.028-.417a12.453,12.453,0,0,1-.1-1.822s-.819-.253-.92-.756a1.733,1.733,0,0,1-.849-.251,2.183,2.183,0,0,1-.351-.28,1.881,1.881,0,0,0,.8.395c.376.036.094-.716.144-.8a.115.115,0,0,1,.141-.047h0s0,.013,0,.037,0,.025,0,.042v0a.013.013,0,0,1,0,.01.269.269,0,0,1,0,.034,2.645,2.645,0,0,0,.244,1.075,1.072,1.072,0,0,0,.744.4s-.035-.481.136-.618a1.41,1.41,0,0,1,.391-.205,2.774,2.774,0,0,0-.453,1.166,1.935,1.935,0,0,0,.1,1.15c.018.021.1-.1.2-.261a6.051,6.051,0,0,1,.489-.729.316.316,0,0,1,.088-.074,4.518,4.518,0,0,0-.644,1.334C331.463,432.8,332.213,432.931,332.415,432.519Z" transform="translate(-327.866 -428.859)" fill="#a42f55" opacity="0.3" style="mix-blend-mode: multiply;isolation: isolate"/>
  <path id="Path_34" data-name="Path 34" d="M341.159,448.31c-.32-.088.3-.477,1.051-.535s.993.113.955.129A8.164,8.164,0,0,1,341.159,448.31Z" transform="translate(-337.366 -443.822)" fill="#fff" opacity="0.5" style="mix-blend-mode: soft-light;isolation: isolate"/>
  <path id="Path_35" data-name="Path 35" d="M335.043,433.677c.043-.24.722.013.909.711A1.969,1.969,0,0,1,335.043,433.677Z" transform="translate(-332.571 -432.549)" fill="#a42f55" opacity="0.3" style="mix-blend-mode: multiply;isolation: isolate"/>
  <path id="Path_36" data-name="Path 36" d="M339.509,439.026a1.2,1.2,0,0,0,.384-.844.625.625,0,0,0-.453-.693A7.845,7.845,0,0,0,339.509,439.026Z" transform="translate(-336.059 -435.651)" fill="#a42f55" opacity="0.3" style="mix-blend-mode: multiply;isolation: isolate"/>
  <path id="Path_37" data-name="Path 37" d="M335.14,429.73c-.154.061.338.8.518.89s.6-.226.6-.445S335.484,429.6,335.14,429.73Z" transform="translate(-332.625 -429.457)" fill="#fff" opacity="0.5" style="mix-blend-mode: soft-light;isolation: isolate"/>
  <path id="Path_38" data-name="Path 38" d="M341.395,434.581c-.352.09-.275.5-.14.915s.393.013.355-.32A1.491,1.491,0,0,0,341.395,434.581Z" transform="translate(-337.421 -433.338)" fill="#fff" opacity="0.5" style="mix-blend-mode: soft-light;isolation: isolate"/>
  <path id="Path_39" data-name="Path 39" d="M341.73,441.53a1.2,1.2,0,0,0-.217,1.014c.121.194.546.279.661-.43S341.73,441.53,341.73,441.53Z" transform="translate(-337.68 -438.858)" fill="#fff" opacity="0.5" style="mix-blend-mode: soft-light;isolation: isolate"/>
  <g id="Group_16" data-name="Group 16" transform="translate(5.551 7.917)">
    <path id="Path_40" data-name="Path 40" d="M355.338,468.116a.535.535,0,0,1-.039.118c-.159.347-.716.733-1.023.572a.337.337,0,0,1-.184-.24h0c-.076-.355.268-.933.481-1.274C354.849,466.852,355.4,467.747,355.338,468.116Z" transform="translate(-353.262 -467.173)" fill="#be8186" opacity="0.5" style="mix-blend-mode: multiply;isolation: isolate"/>
    <path id="Path_41" data-name="Path 41" d="M350.718,475.54a2.3,2.3,0,0,1-.091.382c-.1.333-.432.091-.524-.171a.374.374,0,0,1-.025-.132c0-.295.3-.553.549-.42C350.714,475.243,350.74,475.362,350.718,475.54Z" transform="translate(-350.078 -473.526)" fill="#be8186" opacity="0.5" style="mix-blend-mode: multiply;isolation: isolate"/>
    <path id="Path_42" data-name="Path 42" d="M355.338,468.116a.535.535,0,0,1-.039.118l-.023,0a.938.938,0,0,0-.077-.4c-.1-.3-.355-.644-.64-.389a2.874,2.874,0,0,0-.466,1.118c-.076-.355.268-.933.481-1.274C354.849,466.852,355.4,467.747,355.338,468.116Z" transform="translate(-353.262 -467.173)" fill="#be5286" opacity="0.5" style="mix-blend-mode: multiply;isolation: isolate"/>
    <path id="Path_43" data-name="Path 43" d="M350.718,475.54s-.208-.375-.411-.291-.2.5-.2.5a.374.374,0,0,1-.025-.132c0-.295.3-.553.549-.42C350.714,475.243,350.74,475.362,350.718,475.54Z" transform="translate(-350.078 -473.526)" fill="#be5286" opacity="0.5" style="mix-blend-mode: multiply;isolation: isolate"/>
  </g>
  <path id="Path_44" data-name="Path 44" d="M338.172,448.31a5.247,5.247,0,0,0,1.4.031,3.056,3.056,0,0,0,1.535-.578A6.93,6.93,0,0,1,338.172,448.31Z" transform="translate(-335.06 -443.822)" fill="#be9ad1"/>
</svg>
