<svg id="Fishing" xmlns="http://www.w3.org/2000/svg" xmlns:xlink="http://www.w3.org/1999/xlink" width="66.331" height="40.044" viewBox="0 0 66.331 40.044">
  <defs>
    <linearGradient id="linear-gradient" x1="-0.025" y1="0.504" x2="0.988" y2="0.504" gradientUnits="objectBoundingBox">
      <stop offset="0" stop-color="#da2128"/>
      <stop offset="0.522" stop-color="#ed6c30"/>
      <stop offset="1" stop-color="#f05123"/>
    </linearGradient>
    <linearGradient id="linear-gradient-2" x1="-0.094" y1="-0.183" x2="0.92" y2="-0.183" xlink:href="#linear-gradient"/>
    <linearGradient id="linear-gradient-3" x1="0.937" y1="2.106" x2="0.221" y2="-1.091" gradientUnits="objectBoundingBox">
      <stop offset="0" stop-color="#747474"/>
      <stop offset="1" stop-color="#dedede"/>
    </linearGradient>
    <linearGradient id="linear-gradient-4" x1="-0.066" y1="-0.08" x2="0.957" y2="-0.08" gradientUnits="objectBoundingBox">
      <stop offset="0" stop-color="#fff33b"/>
      <stop offset="0.04" stop-color="#fee62d"/>
      <stop offset="0.117" stop-color="#fdd51b"/>
      <stop offset="0.196" stop-color="#fdca0f"/>
      <stop offset="0.281" stop-color="#fdc70c"/>
      <stop offset="0.669" stop-color="#f3903f"/>
      <stop offset="0.888" stop-color="#ed683c"/>
      <stop offset="1" stop-color="#e93e3a"/>
    </linearGradient>
    <radialGradient id="radial-gradient" cx="0.481" cy="0.526" r="0.591" gradientUnits="objectBoundingBox">
      <stop offset="0" stop-color="#c4a873"/>
      <stop offset="0.5" stop-color="#aa863b"/>
      <stop offset="1" stop-color="#8c6f2d"/>
    </radialGradient>
    <linearGradient id="linear-gradient-5" x1="0.353" y1="0.407" x2="1.419" y2="0.407" xlink:href="#linear-gradient"/>
    <linearGradient id="linear-gradient-6" x1="0.194" y1="0.707" x2="1.042" y2="0.707" gradientUnits="objectBoundingBox">
      <stop offset="0" stop-color="#987d52"/>
      <stop offset="0.5" stop-color="#80612e"/>
      <stop offset="1" stop-color="#68480a"/>
    </linearGradient>
    <linearGradient id="linear-gradient-7" x1="0.289" y1="0.571" x2="1.368" y2="0.571" xlink:href="#linear-gradient"/>
    <linearGradient id="linear-gradient-8" x1="0.181" y1="0.795" x2="2.104" y2="0.795" xlink:href="#linear-gradient"/>
  </defs>
  <g id="Group_562" data-name="Group 562" transform="translate(1.313 30.509)" style="mix-blend-mode: multiply;isolation: isolate">
    <path id="Path_4860" data-name="Path 4860" d="M82.534,412.437c0,2.633-12.8,4.768-28.587,4.768s-28.586-2.134-28.586-4.768,12.8-4.768,28.586-4.768S82.534,409.8,82.534,412.437Z" transform="translate(-25.361 -407.669)" fill="#fff" opacity="0"/>
    <path id="Path_4861" data-name="Path 4861" d="M82.418,412.449c0,2.617-12.715,4.737-28.4,4.737s-28.4-2.12-28.4-4.737,12.715-4.737,28.4-4.737S82.418,409.833,82.418,412.449Z" transform="translate(-25.431 -407.681)" fill="#fefefe" opacity="0.007"/>
    <path id="Path_4862" data-name="Path 4862" d="M82.3,412.46c0,2.6-12.633,4.706-28.215,4.706s-28.215-2.107-28.215-4.706,12.632-4.706,28.215-4.706S82.3,409.861,82.3,412.46Z" transform="translate(-25.501 -407.692)" fill="#fdfdfd" opacity="0.014"/>
    <path id="Path_4863" data-name="Path 4863" d="M82.187,412.472c0,2.582-12.55,4.675-28.03,4.675s-28.029-2.092-28.029-4.675S38.676,407.8,54.157,407.8,82.187,409.89,82.187,412.472Z" transform="translate(-25.571 -407.704)" fill="#fcfcfc" opacity="0.02"/>
    <path id="Path_4864" data-name="Path 4864" d="M82.071,412.484c0,2.565-12.466,4.644-27.844,4.644s-27.844-2.079-27.844-4.644,12.466-4.644,27.844-4.644S82.071,409.919,82.071,412.484Z" transform="translate(-25.641 -407.716)" fill="#fbfbfb" opacity="0.027"/>
    <path id="Path_4865" data-name="Path 4865" d="M81.956,412.5c0,2.548-12.383,4.613-27.658,4.613s-27.658-2.065-27.658-4.613,12.383-4.613,27.658-4.613S81.956,409.948,81.956,412.5Z" transform="translate(-25.711 -407.727)" fill="#fafbfb" opacity="0.034"/>
    <path id="Path_4866" data-name="Path 4866" d="M81.84,412.507c0,2.531-12.3,4.582-27.472,4.582S26.9,415.038,26.9,412.507s12.3-4.582,27.472-4.582S81.84,409.977,81.84,412.507Z" transform="translate(-25.781 -407.739)" fill="#f9fafa" opacity="0.041"/>
    <path id="Path_4867" data-name="Path 4867" d="M81.725,412.519c0,2.514-12.217,4.551-27.287,4.551s-27.287-2.036-27.287-4.551,12.216-4.551,27.287-4.551S81.725,410.005,81.725,412.519Z" transform="translate(-25.851 -407.751)" fill="#f8f9f9" opacity="0.048"/>
    <path id="Path_4868" data-name="Path 4868" d="M81.609,412.53c0,2.5-12.134,4.52-27.1,4.52s-27.1-2.023-27.1-4.52,12.133-4.52,27.1-4.52S81.609,410.034,81.609,412.53Z" transform="translate(-25.921 -407.762)" fill="#f7f8f8" opacity="0.054"/>
    <path id="Path_4869" data-name="Path 4869" d="M81.493,412.542c0,2.479-12.05,4.489-26.916,4.489s-26.916-2.01-26.916-4.489,12.05-4.489,26.916-4.489S81.493,410.063,81.493,412.542Z" transform="translate(-25.991 -407.774)" fill="#f6f7f7" opacity="0.061"/>
    <path id="Path_4870" data-name="Path 4870" d="M81.378,412.553c0,2.463-11.968,4.458-26.73,4.458s-26.73-2-26.73-4.458,11.967-4.458,26.73-4.458S81.378,410.092,81.378,412.553Z" transform="translate(-26.062 -407.786)" fill="#f5f6f6" opacity="0.068"/>
    <path id="Path_4871" data-name="Path 4871" d="M81.262,412.565c0,2.445-11.885,4.427-26.545,4.427s-26.545-1.982-26.545-4.427,11.884-4.427,26.545-4.427S81.262,410.121,81.262,412.565Z" transform="translate(-26.131 -407.798)" fill="#f4f5f5" opacity="0.075"/>
    <path id="Path_4872" data-name="Path 4872" d="M81.146,412.577c0,2.428-11.8,4.4-26.359,4.4s-26.359-1.967-26.359-4.4,11.8-4.4,26.359-4.4S81.146,410.149,81.146,412.577Z" transform="translate(-26.202 -407.809)" fill="#f3f4f4" opacity="0.082"/>
    <path id="Path_4873" data-name="Path 4873" d="M81.031,412.589c0,2.411-11.718,4.365-26.173,4.365S28.685,415,28.685,412.589s11.718-4.366,26.173-4.366S81.031,410.178,81.031,412.589Z" transform="translate(-26.272 -407.821)" fill="#f2f3f3" opacity="0.088"/>
    <path id="Path_4874" data-name="Path 4874" d="M80.915,412.6c0,2.394-11.635,4.334-25.988,4.334S28.94,414.995,28.94,412.6s11.635-4.334,25.988-4.334S80.915,410.207,80.915,412.6Z" transform="translate(-26.342 -407.833)" fill="#f1f2f3" opacity="0.095"/>
    <path id="Path_4875" data-name="Path 4875" d="M80.8,412.612c0,2.377-11.552,4.3-25.8,4.3s-25.8-1.926-25.8-4.3,11.552-4.3,25.8-4.3S80.8,410.236,80.8,412.612Z" transform="translate(-26.412 -407.844)" fill="#f0f2f2" opacity="0.102"/>
    <path id="Path_4876" data-name="Path 4876" d="M80.684,412.624c0,2.36-11.469,4.273-25.616,4.273s-25.616-1.912-25.616-4.273,11.468-4.273,25.616-4.273S80.684,410.264,80.684,412.624Z" transform="translate(-26.482 -407.856)" fill="#eff1f1" opacity="0.109"/>
    <path id="Path_4877" data-name="Path 4877" d="M80.569,412.635c0,2.343-11.386,4.241-25.431,4.241s-25.43-1.9-25.43-4.241,11.385-4.241,25.43-4.241S80.569,410.293,80.569,412.635Z" transform="translate(-26.552 -407.868)" fill="#eef0f0" opacity="0.116"/>
    <path id="Path_4878" data-name="Path 4878" d="M80.453,412.647c0,2.325-11.3,4.21-25.245,4.21s-25.245-1.885-25.245-4.21,11.3-4.21,25.245-4.21S80.453,410.322,80.453,412.647Z" transform="translate(-26.622 -407.879)" fill="#edefef" opacity="0.122"/>
    <path id="Path_4879" data-name="Path 4879" d="M80.337,412.659c0,2.309-11.219,4.18-25.059,4.18s-25.059-1.871-25.059-4.18,11.219-4.18,25.059-4.18S80.337,410.351,80.337,412.659Z" transform="translate(-26.692 -407.891)" fill="#eceeee" opacity="0.129"/>
    <path id="Path_4880" data-name="Path 4880" d="M80.222,412.67c0,2.291-11.137,4.148-24.874,4.148s-24.873-1.857-24.873-4.148,11.136-4.148,24.873-4.148S80.222,410.38,80.222,412.67Z" transform="translate(-26.762 -407.903)" fill="#ebeded" opacity="0.136"/>
    <path id="Path_4881" data-name="Path 4881" d="M80.106,412.682c0,2.275-11.054,4.117-24.688,4.117s-24.688-1.843-24.688-4.117,11.053-4.117,24.688-4.117S80.106,410.408,80.106,412.682Z" transform="translate(-26.832 -407.915)" fill="#eaecec" opacity="0.143"/>
    <path id="Path_4882" data-name="Path 4882" d="M79.991,412.694c0,2.257-10.97,4.087-24.5,4.087s-24.5-1.83-24.5-4.087,10.97-4.087,24.5-4.087S79.991,410.437,79.991,412.694Z" transform="translate(-26.902 -407.926)" fill="#e9ebeb" opacity="0.15"/>
    <path id="Path_4883" data-name="Path 4883" d="M79.876,412.706c0,2.24-10.887,4.056-24.317,4.056s-24.316-1.815-24.316-4.056,10.887-4.056,24.316-4.056S79.876,410.466,79.876,412.706Z" transform="translate(-26.972 -407.938)" fill="#e8eaeb" opacity="0.156"/>
    <path id="Path_4884" data-name="Path 4884" d="M79.76,412.717c0,2.223-10.8,4.024-24.131,4.024S31.5,414.94,31.5,412.717s10.8-4.025,24.131-4.025S79.76,410.495,79.76,412.717Z" transform="translate(-27.042 -407.949)" fill="#e7e9ea" opacity="0.163"/>
    <path id="Path_4885" data-name="Path 4885" d="M79.644,412.729c0,2.206-10.721,3.994-23.945,3.994s-23.945-1.788-23.945-3.994,10.72-3.994,23.945-3.994S79.644,410.523,79.644,412.729Z" transform="translate(-27.112 -407.961)" fill="#e6e9e9" opacity="0.17"/>
    <path id="Path_4886" data-name="Path 4886" d="M79.528,412.741c0,2.189-10.638,3.963-23.76,3.963s-23.76-1.774-23.76-3.963,10.638-3.963,23.76-3.963S79.528,410.552,79.528,412.741Z" transform="translate(-27.182 -407.973)" fill="#e5e8e8" opacity="0.177"/>
    <path id="Path_4887" data-name="Path 4887" d="M79.413,412.752c0,2.172-10.555,3.931-23.574,3.931s-23.574-1.76-23.574-3.931,10.554-3.932,23.574-3.932S79.413,410.581,79.413,412.752Z" transform="translate(-27.253 -407.984)" fill="#e4e7e7" opacity="0.184"/>
    <path id="Path_4888" data-name="Path 4888" d="M79.3,412.764c0,2.155-10.471,3.9-23.389,3.9s-23.389-1.746-23.389-3.9,10.471-3.9,23.389-3.9S79.3,410.61,79.3,412.764Z" transform="translate(-27.322 -407.996)" fill="#e3e6e6" opacity="0.19"/>
    <path id="Path_4889" data-name="Path 4889" d="M79.181,412.776c0,2.137-10.389,3.87-23.2,3.87s-23.2-1.732-23.2-3.87,10.388-3.87,23.2-3.87S79.181,410.638,79.181,412.776Z" transform="translate(-27.393 -408.008)" fill="#e2e5e5" opacity="0.197"/>
    <path id="Path_4890" data-name="Path 4890" d="M79.066,412.787c0,2.121-10.306,3.839-23.018,3.839s-23.017-1.718-23.017-3.839,10.3-3.839,23.017-3.839S79.066,410.667,79.066,412.787Z" transform="translate(-27.463 -408.019)" fill="#e1e4e4" opacity="0.204"/>
    <path id="Path_4891" data-name="Path 4891" d="M78.951,412.8c0,2.1-10.222,3.808-22.832,3.808s-22.831-1.7-22.831-3.808,10.222-3.808,22.831-3.808S78.951,410.7,78.951,412.8Z" transform="translate(-27.533 -408.031)" fill="#e0e3e3" opacity="0.211"/>
    <path id="Path_4892" data-name="Path 4892" d="M78.835,412.811c0,2.087-10.139,3.777-22.646,3.777s-22.646-1.69-22.646-3.777,10.139-3.777,22.646-3.777S78.835,410.725,78.835,412.811Z" transform="translate(-27.603 -408.043)" fill="#dfe2e2" opacity="0.218"/>
    <path id="Path_4893" data-name="Path 4893" d="M78.719,412.822c0,2.069-10.056,3.746-22.46,3.746s-22.46-1.677-22.46-3.746,10.055-3.746,22.46-3.746S78.719,410.754,78.719,412.822Z" transform="translate(-27.673 -408.055)" fill="#dee1e2" opacity="0.224"/>
    <path id="Path_4894" data-name="Path 4894" d="M78.6,412.834c0,2.052-9.973,3.715-22.275,3.715s-22.274-1.663-22.274-3.715,9.972-3.715,22.274-3.715S78.6,410.782,78.6,412.834Z" transform="translate(-27.743 -408.066)" fill="#dde0e1" opacity="0.231"/>
    <path id="Path_4895" data-name="Path 4895" d="M78.488,412.846c0,2.035-9.89,3.684-22.089,3.684s-22.089-1.649-22.089-3.684,9.89-3.684,22.089-3.684S78.488,410.812,78.488,412.846Z" transform="translate(-27.813 -408.078)" fill="#dce0e0" opacity="0.238"/>
    <path id="Path_4896" data-name="Path 4896" d="M78.372,412.857c0,2.018-9.806,3.653-21.9,3.653s-21.9-1.636-21.9-3.653,9.806-3.653,21.9-3.653S78.372,410.84,78.372,412.857Z" transform="translate(-27.883 -408.09)" fill="#dbdfdf" opacity="0.245"/>
    <path id="Path_4897" data-name="Path 4897" d="M78.257,412.869c0,2-9.724,3.622-21.718,3.622s-21.717-1.621-21.717-3.622,9.723-3.622,21.717-3.622S78.257,410.869,78.257,412.869Z" transform="translate(-27.953 -408.101)" fill="#dadede" opacity="0.252"/>
    <path id="Path_4898" data-name="Path 4898" d="M78.142,412.881c0,1.983-9.641,3.591-21.532,3.591s-21.531-1.607-21.531-3.591,9.639-3.591,21.531-3.591S78.142,410.9,78.142,412.881Z" transform="translate(-28.023 -408.113)" fill="#d9dddd" opacity="0.259"/>
    <path id="Path_4899" data-name="Path 4899" d="M78.026,412.892c0,1.967-9.557,3.56-21.346,3.56s-21.346-1.594-21.346-3.56,9.557-3.56,21.346-3.56S78.026,410.926,78.026,412.892Z" transform="translate(-28.093 -408.125)" fill="#d8dcdc" opacity="0.265"/>
    <path id="Path_4900" data-name="Path 4900" d="M77.911,412.9c0,1.949-9.474,3.529-21.161,3.529s-21.16-1.58-21.16-3.529,9.474-3.529,21.16-3.529S77.911,410.955,77.911,412.9Z" transform="translate(-28.163 -408.136)" fill="#d7dbdb" opacity="0.272"/>
    <path id="Path_4901" data-name="Path 4901" d="M77.795,412.916c0,1.933-9.391,3.5-20.975,3.5s-20.975-1.566-20.975-3.5,9.39-3.5,20.975-3.5S77.795,410.984,77.795,412.916Z" transform="translate(-28.233 -408.148)" fill="#d6dada" opacity="0.279"/>
    <path id="Path_4902" data-name="Path 4902" d="M77.679,412.927c0,1.915-9.308,3.467-20.789,3.467S36.1,414.843,36.1,412.927s9.308-3.467,20.789-3.467S77.679,411.013,77.679,412.927Z" transform="translate(-28.303 -408.16)" fill="#d5d9da" opacity="0.286"/>
    <path id="Path_4903" data-name="Path 4903" d="M77.563,412.939c0,1.9-9.225,3.436-20.6,3.436s-20.6-1.538-20.6-3.436,9.224-3.436,20.6-3.436S77.563,411.041,77.563,412.939Z" transform="translate(-28.373 -408.171)" fill="#d4d8d9" opacity="0.293"/>
    <path id="Path_4904" data-name="Path 4904" d="M77.448,412.951c0,1.881-9.142,3.406-20.418,3.406s-20.418-1.525-20.418-3.406,9.141-3.406,20.418-3.406S77.448,411.07,77.448,412.951Z" transform="translate(-28.444 -408.183)" fill="#d3d7d8" opacity="0.299"/>
    <path id="Path_4905" data-name="Path 4905" d="M77.332,412.963c0,1.864-9.058,3.375-20.233,3.375s-20.233-1.511-20.233-3.375,9.058-3.375,20.233-3.375S77.332,411.1,77.332,412.963Z" transform="translate(-28.513 -408.195)" fill="#d2d7d7" opacity="0.306"/>
    <path id="Path_4906" data-name="Path 4906" d="M77.216,412.974c0,1.847-8.975,3.343-20.047,3.343s-20.047-1.5-20.047-3.343,8.975-3.343,20.047-3.343S77.216,411.128,77.216,412.974Z" transform="translate(-28.584 -408.207)" fill="#d1d6d6" opacity="0.313"/>
    <path id="Path_4907" data-name="Path 4907" d="M77.1,412.986c0,1.83-8.893,3.313-19.862,3.313s-19.861-1.483-19.861-3.313,8.892-3.313,19.861-3.313S77.1,411.156,77.1,412.986Z" transform="translate(-28.654 -408.218)" fill="#d0d5d5" opacity="0.32"/>
    <path id="Path_4908" data-name="Path 4908" d="M76.986,413c0,1.813-8.809,3.282-19.676,3.282S37.635,414.81,37.635,413s8.809-3.282,19.675-3.282S76.986,411.185,76.986,413Z" transform="translate(-28.724 -408.23)" fill="#cfd4d4" opacity="0.327"/>
    <path id="Path_4909" data-name="Path 4909" d="M76.87,413.009c0,1.8-8.726,3.25-19.49,3.25s-19.49-1.455-19.49-3.25,8.726-3.25,19.49-3.25S76.87,411.214,76.87,413.009Z" transform="translate(-28.794 -408.242)" fill="#ced3d3" opacity="0.333"/>
    <path id="Path_4910" data-name="Path 4910" d="M76.754,413.021c0,1.779-8.642,3.22-19.3,3.22s-19.3-1.441-19.3-3.22,8.642-3.22,19.3-3.22S76.754,411.243,76.754,413.021Z" transform="translate(-28.864 -408.253)" fill="#cdd2d2" opacity="0.34"/>
    <path id="Path_4911" data-name="Path 4911" d="M76.639,413.033c0,1.761-8.56,3.189-19.119,3.189S38.4,414.794,38.4,413.033s8.559-3.189,19.118-3.189S76.639,411.271,76.639,413.033Z" transform="translate(-28.934 -408.265)" fill="#ccd1d2" opacity="0.347"/>
    <path id="Path_4912" data-name="Path 4912" d="M76.523,413.044c0,1.745-8.477,3.157-18.933,3.157s-18.933-1.413-18.933-3.157,8.477-3.157,18.933-3.157S76.523,411.3,76.523,413.044Z" transform="translate(-29.004 -408.277)" fill="#cbd0d1" opacity="0.354"/>
    <path id="Path_4913" data-name="Path 4913" d="M76.407,413.056c0,1.727-8.393,3.127-18.747,3.127s-18.747-1.4-18.747-3.127,8.393-3.127,18.747-3.127S76.407,411.329,76.407,413.056Z" transform="translate(-29.074 -408.288)" fill="#cacfd0" opacity="0.361"/>
    <path id="Path_4914" data-name="Path 4914" d="M76.292,413.068c0,1.71-8.311,3.1-18.562,3.1s-18.561-1.386-18.561-3.1,8.31-3.1,18.561-3.1S76.292,411.358,76.292,413.068Z" transform="translate(-29.144 -408.3)" fill="#c9cfcf" opacity="0.367"/>
    <path id="Path_4915" data-name="Path 4915" d="M76.177,413.079c0,1.693-8.227,3.065-18.376,3.065s-18.375-1.372-18.375-3.065,8.226-3.065,18.375-3.065S76.177,411.387,76.177,413.079Z" transform="translate(-29.214 -408.311)" fill="#c8cece" opacity="0.374"/>
    <path id="Path_4916" data-name="Path 4916" d="M76.061,413.091c0,1.676-8.144,3.034-18.19,3.034s-18.19-1.358-18.19-3.034,8.144-3.034,18.19-3.034S76.061,411.415,76.061,413.091Z" transform="translate(-29.284 -408.323)" fill="#c7cdcd" opacity="0.381"/>
    <path id="Path_4917" data-name="Path 4917" d="M75.945,413.1c0,1.659-8.061,3-18,3s-18-1.344-18-3,8.061-3,18-3S75.945,411.445,75.945,413.1Z" transform="translate(-29.354 -408.335)" fill="#c6cccc" opacity="0.388"/>
    <path id="Path_4918" data-name="Path 4918" d="M75.83,413.114c0,1.642-7.978,2.972-17.819,2.972s-17.819-1.331-17.819-2.972,7.977-2.972,17.819-2.972S75.83,411.473,75.83,413.114Z" transform="translate(-29.424 -408.347)" fill="#c5cbcb" opacity="0.395"/>
    <path id="Path_4919" data-name="Path 4919" d="M75.714,413.126c0,1.625-7.895,2.941-17.633,2.941s-17.633-1.316-17.633-2.941,7.895-2.941,17.633-2.941S75.714,411.5,75.714,413.126Z" transform="translate(-29.494 -408.358)" fill="#c4caca" opacity="0.401"/>
    <path id="Path_4920" data-name="Path 4920" d="M75.6,413.138c0,1.607-7.812,2.91-17.448,2.91s-17.448-1.3-17.448-2.91,7.811-2.91,17.448-2.91S75.6,411.53,75.6,413.138Z" transform="translate(-29.564 -408.37)" fill="#c3c9ca" opacity="0.408"/>
    <path id="Path_4921" data-name="Path 4921" d="M75.483,413.149c0,1.59-7.729,2.879-17.262,2.879s-17.262-1.289-17.262-2.879,7.728-2.879,17.262-2.879S75.483,411.559,75.483,413.149Z" transform="translate(-29.635 -408.382)" fill="#c2c8c9" opacity="0.415"/>
    <path id="Path_4922" data-name="Path 4922" d="M75.367,413.161c0,1.573-7.646,2.848-17.077,2.848s-17.076-1.275-17.076-2.848,7.645-2.848,17.076-2.848S75.367,411.589,75.367,413.161Z" transform="translate(-29.705 -408.393)" fill="#c1c7c8" opacity="0.422"/>
    <path id="Path_4923" data-name="Path 4923" d="M75.251,413.173c0,1.556-7.562,2.817-16.891,2.817s-16.891-1.261-16.891-2.817,7.562-2.817,16.891-2.817S75.251,411.617,75.251,413.173Z" transform="translate(-29.775 -408.405)" fill="#c0c6c7" opacity="0.429"/>
    <path id="Path_4924" data-name="Path 4924" d="M75.136,413.184c0,1.539-7.479,2.786-16.7,2.786s-16.7-1.247-16.7-2.786,7.479-2.786,16.7-2.786S75.136,411.646,75.136,413.184Z" transform="translate(-29.845 -408.417)" fill="#bfc6c6" opacity="0.435"/>
    <path id="Path_4925" data-name="Path 4925" d="M75.021,413.2c0,1.522-7.4,2.755-16.52,2.755s-16.519-1.234-16.519-2.755,7.4-2.755,16.519-2.755S75.021,411.674,75.021,413.2Z" transform="translate(-29.915 -408.429)" fill="#bec5c5" opacity="0.442"/>
    <path id="Path_4926" data-name="Path 4926" d="M74.9,413.208c0,1.505-7.313,2.724-16.334,2.724s-16.334-1.219-16.334-2.724,7.313-2.724,16.334-2.724S74.9,411.7,74.9,413.208Z" transform="translate(-29.985 -408.44)" fill="#bdc4c4" opacity="0.449"/>
    <path id="Path_4927" data-name="Path 4927" d="M74.789,413.22c0,1.488-7.23,2.693-16.148,2.693s-16.148-1.206-16.148-2.693,7.23-2.694,16.148-2.694S74.789,411.732,74.789,413.22Z" transform="translate(-30.055 -408.452)" fill="#bcc3c3" opacity="0.456"/>
    <path id="Path_4928" data-name="Path 4928" d="M74.674,413.231c0,1.471-7.147,2.662-15.963,2.662s-15.962-1.191-15.962-2.662,7.146-2.662,15.962-2.662S74.674,411.761,74.674,413.231Z" transform="translate(-30.125 -408.464)" fill="#bbc2c2" opacity="0.463"/>
    <path id="Path_4929" data-name="Path 4929" d="M74.558,413.243c0,1.453-7.064,2.632-15.777,2.632S43,414.7,43,413.243s7.064-2.632,15.777-2.632S74.558,411.79,74.558,413.243Z" transform="translate(-30.195 -408.475)" fill="#bac1c2" opacity="0.469"/>
    <path id="Path_4930" data-name="Path 4930" d="M74.442,413.255c0,1.436-6.981,2.6-15.591,2.6s-15.591-1.165-15.591-2.6,6.981-2.6,15.591-2.6S74.442,411.819,74.442,413.255Z" transform="translate(-30.265 -408.487)" fill="#b9c0c1" opacity="0.476"/>
    <path id="Path_4931" data-name="Path 4931" d="M74.327,413.266c0,1.419-6.9,2.569-15.406,2.569s-15.405-1.15-15.405-2.569,6.9-2.569,15.405-2.569S74.327,411.848,74.327,413.266Z" transform="translate(-30.335 -408.499)" fill="#b8bfc0" opacity="0.483"/>
    <path id="Path_4932" data-name="Path 4932" d="M74.211,413.278c0,1.4-6.814,2.539-15.22,2.539s-15.22-1.137-15.22-2.539,6.814-2.539,15.22-2.539S74.211,411.876,74.211,413.278Z" transform="translate(-30.405 -408.51)" fill="#b7bebf" opacity="0.49"/>
    <path id="Path_4933" data-name="Path 4933" d="M74.1,413.29c0,1.385-6.731,2.508-15.034,2.508s-15.034-1.122-15.034-2.508,6.731-2.508,15.034-2.508S74.1,411.905,74.1,413.29Z" transform="translate(-30.475 -408.522)" fill="#b6bdbe" opacity="0.497"/>
    <path id="Path_4934" data-name="Path 4934" d="M73.98,413.3c0,1.368-6.648,2.476-14.848,2.476s-14.848-1.109-14.848-2.476,6.648-2.476,14.848-2.476S73.98,411.934,73.98,413.3Z" transform="translate(-30.545 -408.534)" fill="#b5bdbd" opacity="0.503"/>
    <path id="Path_4935" data-name="Path 4935" d="M73.865,413.313c0,1.351-6.565,2.446-14.663,2.446s-14.663-1.095-14.663-2.446,6.565-2.446,14.663-2.446S73.865,411.963,73.865,413.313Z" transform="translate(-30.615 -408.545)" fill="#b4bcbc" opacity="0.51"/>
    <path id="Path_4936" data-name="Path 4936" d="M73.749,413.325c0,1.334-6.482,2.415-14.477,2.415s-14.477-1.081-14.477-2.415,6.482-2.415,14.477-2.415S73.749,411.991,73.749,413.325Z" transform="translate(-30.685 -408.557)" fill="#b3bbbb" opacity="0.517"/>
    <path id="Path_4937" data-name="Path 4937" d="M73.633,413.337c0,1.316-6.4,2.384-14.292,2.384s-14.292-1.067-14.292-2.384,6.4-2.384,14.292-2.384S73.633,412.02,73.633,413.337Z" transform="translate(-30.756 -408.569)" fill="#b2baba" opacity="0.524"/>
    <path id="Path_4938" data-name="Path 4938" d="M73.518,413.348c0,1.3-6.316,2.353-14.106,2.353s-14.106-1.053-14.106-2.353,6.316-2.353,14.106-2.353S73.518,412.048,73.518,413.348Z" transform="translate(-30.826 -408.58)" fill="#b1b9b9" opacity="0.531"/>
    <path id="Path_4939" data-name="Path 4939" d="M73.4,413.36c0,1.282-6.233,2.322-13.921,2.322s-13.921-1.04-13.921-2.322,6.233-2.322,13.921-2.322S73.4,412.078,73.4,413.36Z" transform="translate(-30.896 -408.592)" fill="#b0b8b9" opacity="0.537"/>
    <path id="Path_4940" data-name="Path 4940" d="M73.286,413.372c0,1.265-6.149,2.291-13.735,2.291s-13.735-1.025-13.735-2.291,6.149-2.291,13.735-2.291S73.286,412.107,73.286,413.372Z" transform="translate(-30.966 -408.604)" fill="#afb7b8" opacity="0.544"/>
    <path id="Path_4941" data-name="Path 4941" d="M73.172,413.383c0,1.248-6.067,2.26-13.55,2.26s-13.549-1.012-13.549-2.26,6.066-2.26,13.549-2.26S73.172,412.135,73.172,413.383Z" transform="translate(-31.036 -408.615)" fill="#aeb6b7" opacity="0.551"/>
    <path id="Path_4942" data-name="Path 4942" d="M73.056,413.395c0,1.231-5.984,2.229-13.364,2.229s-13.363-1-13.363-2.229,5.982-2.229,13.363-2.229S73.056,412.164,73.056,413.395Z" transform="translate(-31.106 -408.627)" fill="#adb5b6" opacity="0.558"/>
    <path id="Path_4943" data-name="Path 4943" d="M72.94,413.407c0,1.214-5.9,2.2-13.178,2.2s-13.178-.984-13.178-2.2,5.9-2.2,13.178-2.2S72.94,412.193,72.94,413.407Z" transform="translate(-31.176 -408.639)" fill="#acb4b5" opacity="0.565"/>
    <path id="Path_4944" data-name="Path 4944" d="M72.824,413.418c0,1.2-5.817,2.167-12.992,2.167s-12.992-.97-12.992-2.167,5.817-2.167,12.992-2.167S72.824,412.222,72.824,413.418Z" transform="translate(-31.246 -408.65)" fill="#abb4b4" opacity="0.571"/>
    <path id="Path_4945" data-name="Path 4945" d="M72.709,413.43c0,1.18-5.734,2.136-12.807,2.136S47.1,414.61,47.1,413.43s5.733-2.136,12.806-2.136S72.709,412.25,72.709,413.43Z" transform="translate(-31.316 -408.662)" fill="#aab3b3" opacity="0.578"/>
    <path id="Path_4946" data-name="Path 4946" d="M72.593,413.441c0,1.162-5.651,2.105-12.621,2.105s-12.621-.943-12.621-2.105,5.651-2.105,12.621-2.105S72.593,412.279,72.593,413.441Z" transform="translate(-31.386 -408.674)" fill="#a9b2b2" opacity="0.585"/>
    <path id="Path_4947" data-name="Path 4947" d="M72.477,413.453c0,1.146-5.568,2.074-12.435,2.074s-12.435-.929-12.435-2.074,5.568-2.074,12.435-2.074S72.477,412.308,72.477,413.453Z" transform="translate(-31.456 -408.686)" fill="#a8b1b1" opacity="0.592"/>
    <path id="Path_4948" data-name="Path 4948" d="M72.362,413.465c0,1.128-5.485,2.043-12.25,2.043s-12.249-.915-12.249-2.043,5.484-2.043,12.249-2.043S72.362,412.337,72.362,413.465Z" transform="translate(-31.526 -408.697)" fill="#a7b0b1" opacity="0.599"/>
    <path id="Path_4949" data-name="Path 4949" d="M72.246,413.477c0,1.112-5.4,2.013-12.064,2.013s-12.064-.9-12.064-2.013,5.4-2.013,12.064-2.013S72.246,412.366,72.246,413.477Z" transform="translate(-31.596 -408.709)" fill="#a6afb0" opacity="0.605"/>
    <path id="Path_4950" data-name="Path 4950" d="M72.131,413.488c0,1.094-5.318,1.981-11.878,1.981s-11.878-.887-11.878-1.981,5.318-1.981,11.878-1.981S72.131,412.394,72.131,413.488Z" transform="translate(-31.666 -408.721)" fill="#a5aeaf" opacity="0.612"/>
    <path id="Path_4951" data-name="Path 4951" d="M72.015,413.5c0,1.077-5.235,1.95-11.692,1.95s-11.692-.873-11.692-1.95,5.235-1.95,11.692-1.95S72.015,412.423,72.015,413.5Z" transform="translate(-31.736 -408.732)" fill="#a4adae" opacity="0.619"/>
    <path id="Path_4952" data-name="Path 4952" d="M71.9,413.512c0,1.06-5.153,1.92-11.507,1.92s-11.507-.86-11.507-1.92,5.152-1.92,11.507-1.92S71.9,412.452,71.9,413.512Z" transform="translate(-31.807 -408.744)" fill="#a3acad" opacity="0.626"/>
    <path id="Path_4953" data-name="Path 4953" d="M71.784,413.523c0,1.043-5.069,1.888-11.321,1.888s-11.321-.845-11.321-1.888,5.069-1.888,11.321-1.888S71.784,412.481,71.784,413.523Z" transform="translate(-31.876 -408.756)" fill="#a2abac" opacity="0.633"/>
    <path id="Path_4954" data-name="Path 4954" d="M71.668,413.535c0,1.026-4.986,1.857-11.136,1.857S49.4,414.561,49.4,413.535s4.986-1.858,11.136-1.858S71.668,412.509,71.668,413.535Z" transform="translate(-31.947 -408.767)" fill="#a1abab" opacity="0.639"/>
    <path id="Path_4955" data-name="Path 4955" d="M71.553,413.547c0,1.009-4.9,1.827-10.95,1.827s-10.95-.818-10.95-1.827,4.9-1.827,10.95-1.827S71.553,412.538,71.553,413.547Z" transform="translate(-32.017 -408.779)" fill="#a0aaaa" opacity="0.646"/>
    <path id="Path_4956" data-name="Path 4956" d="M71.437,413.558c0,.992-4.82,1.8-10.765,1.8s-10.765-.8-10.765-1.8,4.82-1.8,10.765-1.8S71.437,412.567,71.437,413.558Z" transform="translate(-32.087 -408.791)" fill="#9fa9a9" opacity="0.653"/>
    <path id="Path_4957" data-name="Path 4957" d="M71.322,413.57c0,.974-4.737,1.764-10.579,1.764s-10.579-.79-10.579-1.764,4.737-1.764,10.579-1.764S71.322,412.6,71.322,413.57Z" transform="translate(-32.157 -408.802)" fill="#9ea8a9" opacity="0.66"/>
    <path id="Path_4958" data-name="Path 4958" d="M71.207,413.582c0,.958-4.654,1.734-10.394,1.734s-10.393-.776-10.393-1.734,4.653-1.734,10.393-1.734S71.207,412.624,71.207,413.582Z" transform="translate(-32.227 -408.814)" fill="#9da7a8" opacity="0.667"/>
    <path id="Path_4959" data-name="Path 4959" d="M71.091,413.594c0,.94-4.57,1.7-10.208,1.7s-10.207-.762-10.207-1.7,4.57-1.7,10.207-1.7S71.091,412.653,71.091,413.594Z" transform="translate(-32.297 -408.826)" fill="#9ca6a7" opacity="0.673"/>
    <path id="Path_4960" data-name="Path 4960" d="M70.975,413.605c0,.923-4.487,1.672-10.022,1.672s-10.022-.749-10.022-1.672,4.487-1.672,10.022-1.672S70.975,412.682,70.975,413.605Z" transform="translate(-32.367 -408.837)" fill="#9ba5a6" opacity="0.68"/>
    <path id="Path_4961" data-name="Path 4961" d="M70.859,413.617c0,.906-4.4,1.641-9.836,1.641s-9.836-.735-9.836-1.641,4.4-1.641,9.836-1.641S70.859,412.711,70.859,413.617Z" transform="translate(-32.437 -408.849)" fill="#9aa4a5" opacity="0.687"/>
    <path id="Path_4962" data-name="Path 4962" d="M70.744,413.629c0,.889-4.321,1.61-9.651,1.61s-9.65-.72-9.65-1.61,4.321-1.61,9.65-1.61S70.744,412.74,70.744,413.629Z" transform="translate(-32.507 -408.861)" fill="#99a3a4" opacity="0.694"/>
    <path id="Path_4963" data-name="Path 4963" d="M70.628,413.64c0,.872-4.238,1.579-9.465,1.579s-9.465-.707-9.465-1.579,4.238-1.579,9.465-1.579S70.628,412.768,70.628,413.64Z" transform="translate(-32.577 -408.872)" fill="#98a3a3" opacity="0.701"/>
    <path id="Path_4964" data-name="Path 4964" d="M70.512,413.652c0,.855-4.154,1.548-9.279,1.548s-9.279-.693-9.279-1.548,4.154-1.548,9.279-1.548S70.512,412.8,70.512,413.652Z" transform="translate(-32.647 -408.884)" fill="#97a2a2" opacity="0.707"/>
    <path id="Path_4965" data-name="Path 4965" d="M70.4,413.664c0,.838-4.072,1.517-9.094,1.517s-9.093-.679-9.093-1.517,4.071-1.517,9.093-1.517S70.4,412.826,70.4,413.664Z" transform="translate(-32.717 -408.896)" fill="#96a1a1" opacity="0.714"/>
    <path id="Path_4966" data-name="Path 4966" d="M70.282,413.675c0,.82-3.989,1.486-8.908,1.486s-8.907-.666-8.907-1.486,3.988-1.486,8.907-1.486S70.282,412.855,70.282,413.675Z" transform="translate(-32.787 -408.907)" fill="#95a0a1" opacity="0.721"/>
    <path id="Path_4967" data-name="Path 4967" d="M70.166,413.687c0,.8-3.905,1.455-8.722,1.455s-8.722-.651-8.722-1.455,3.905-1.455,8.722-1.455S70.166,412.883,70.166,413.687Z" transform="translate(-32.857 -408.919)" fill="#949fa0" opacity="0.728"/>
    <path id="Path_4968" data-name="Path 4968" d="M70.05,413.7c0,.786-3.822,1.424-8.536,1.424s-8.536-.637-8.536-1.424,3.822-1.424,8.536-1.424S70.05,412.912,70.05,413.7Z" transform="translate(-32.927 -408.931)" fill="#939e9f" opacity="0.735"/>
    <path id="Path_4969" data-name="Path 4969" d="M69.935,413.71c0,.77-3.74,1.393-8.351,1.393s-8.351-.624-8.351-1.393,3.739-1.393,8.351-1.393S69.935,412.941,69.935,413.71Z" transform="translate(-32.998 -408.942)" fill="#929d9e" opacity="0.741"/>
    <path id="Path_4970" data-name="Path 4970" d="M69.819,413.722c0,.752-3.656,1.362-8.165,1.362s-8.165-.61-8.165-1.362,3.656-1.362,8.165-1.362S69.819,412.97,69.819,413.722Z" transform="translate(-33.067 -408.954)" fill="#919c9d" opacity="0.748"/>
    <path id="Path_4971" data-name="Path 4971" d="M69.7,413.734c0,.735-3.573,1.331-7.98,1.331s-7.98-.6-7.98-1.331,3.573-1.331,7.98-1.331S69.7,413,69.7,413.734Z" transform="translate(-33.138 -408.966)" fill="#909b9c" opacity="0.755"/>
    <path id="Path_4972" data-name="Path 4972" d="M69.588,413.745c0,.718-3.49,1.3-7.794,1.3S54,414.463,54,413.745s3.489-1.3,7.794-1.3S69.588,413.027,69.588,413.745Z" transform="translate(-33.208 -408.978)" fill="#8f9a9b" opacity="0.762"/>
    <path id="Path_4973" data-name="Path 4973" d="M69.473,413.757c0,.7-3.406,1.269-7.609,1.269s-7.608-.568-7.608-1.269,3.406-1.269,7.608-1.269S69.473,413.056,69.473,413.757Z" transform="translate(-33.278 -408.989)" fill="#8e9a9a" opacity="0.769"/>
    <path id="Path_4974" data-name="Path 4974" d="M69.357,413.769c0,.684-3.324,1.239-7.423,1.239s-7.423-.555-7.423-1.239,3.324-1.239,7.423-1.239S69.357,413.085,69.357,413.769Z" transform="translate(-33.348 -409.001)" fill="#8d9999" opacity="0.776"/>
    <path id="Path_4975" data-name="Path 4975" d="M69.241,413.78c0,.666-3.24,1.207-7.237,1.207s-7.237-.541-7.237-1.207,3.24-1.207,7.237-1.207S69.241,413.114,69.241,413.78Z" transform="translate(-33.418 -409.013)" fill="#8c9899" opacity="0.782"/>
    <path id="Path_4976" data-name="Path 4976" d="M69.126,413.792c0,.65-3.157,1.176-7.052,1.176s-7.051-.526-7.051-1.176,3.157-1.176,7.051-1.176S69.126,413.142,69.126,413.792Z" transform="translate(-33.488 -409.024)" fill="#8b9798" opacity="0.789"/>
    <path id="Path_4977" data-name="Path 4977" d="M69.01,413.8c0,.632-3.074,1.146-6.866,1.146s-6.866-.513-6.866-1.146,3.074-1.146,6.866-1.146S69.01,413.171,69.01,413.8Z" transform="translate(-33.558 -409.036)" fill="#8a9697" opacity="0.796"/>
    <path id="Path_4978" data-name="Path 4978" d="M68.894,413.815c0,.616-2.991,1.114-6.68,1.114s-6.68-.5-6.68-1.114,2.991-1.114,6.68-1.114S68.894,413.2,68.894,413.815Z" transform="translate(-33.628 -409.048)" fill="#899596" opacity="0.803"/>
    <path id="Path_4979" data-name="Path 4979" d="M68.779,413.827c0,.6-2.908,1.083-6.495,1.083s-6.494-.485-6.494-1.083,2.908-1.083,6.494-1.083S68.779,413.229,68.779,413.827Z" transform="translate(-33.698 -409.06)" fill="#889495" opacity="0.81"/>
    <path id="Path_4980" data-name="Path 4980" d="M68.663,413.839c0,.582-2.825,1.053-6.309,1.053s-6.308-.471-6.308-1.053,2.824-1.053,6.308-1.053S68.663,413.258,68.663,413.839Z" transform="translate(-33.768 -409.071)" fill="#879394" opacity="0.816"/>
    <path id="Path_4981" data-name="Path 4981" d="M68.547,413.851c0,.564-2.741,1.022-6.123,1.022s-6.123-.457-6.123-1.022,2.741-1.022,6.123-1.022S68.547,413.286,68.547,413.851Z" transform="translate(-33.838 -409.083)" fill="#869293" opacity="0.823"/>
    <path id="Path_4982" data-name="Path 4982" d="M68.432,413.862c0,.547-2.658.99-5.937.99s-5.937-.444-5.937-.99,2.659-.99,5.937-.99S68.432,413.316,68.432,413.862Z" transform="translate(-33.908 -409.095)" fill="#859192" opacity="0.83"/>
    <path id="Path_4983" data-name="Path 4983" d="M68.317,413.874c0,.53-2.576.96-5.752.96s-5.751-.43-5.751-.96,2.575-.96,5.751-.96S68.317,413.344,68.317,413.874Z" transform="translate(-33.978 -409.106)" fill="#849191" opacity="0.837"/>
    <path id="Path_4984" data-name="Path 4984" d="M68.2,413.886c0,.513-2.492.929-5.566.929s-5.566-.416-5.566-.929,2.492-.929,5.566-.929S68.2,413.373,68.2,413.886Z" transform="translate(-34.048 -409.118)" fill="#839090" opacity="0.844"/>
    <path id="Path_4985" data-name="Path 4985" d="M68.085,413.9c0,.5-2.409.9-5.38.9s-5.38-.4-5.38-.9,2.409-.9,5.38-.9S68.085,413.4,68.085,413.9Z" transform="translate(-34.118 -409.129)" fill="#828f90" opacity="0.85"/>
    <path id="Path_4986" data-name="Path 4986" d="M67.97,413.909c0,.478-2.326.867-5.2.867s-5.195-.388-5.195-.867,2.325-.867,5.195-.867S67.97,413.43,67.97,413.909Z" transform="translate(-34.189 -409.141)" fill="#818e8f" opacity="0.857"/>
    <path id="Path_4987" data-name="Path 4987" d="M67.854,413.921c0,.462-2.243.836-5.009.836s-5.01-.374-5.01-.836,2.243-.836,5.01-.836S67.854,413.459,67.854,413.921Z" transform="translate(-34.258 -409.153)" fill="#808d8e" opacity="0.864"/>
    <path id="Path_4988" data-name="Path 4988" d="M67.738,413.932c0,.444-2.16.805-4.824.805s-4.824-.361-4.824-.805,2.16-.805,4.824-.805S67.738,413.488,67.738,413.932Z" transform="translate(-34.329 -409.164)" fill="#7f8c8d" opacity="0.871"/>
    <path id="Path_4989" data-name="Path 4989" d="M67.623,413.944c0,.428-2.077.774-4.639.774s-4.638-.346-4.638-.774,2.076-.774,4.638-.774S67.623,413.516,67.623,413.944Z" transform="translate(-34.399 -409.176)" fill="#7e8b8c" opacity="0.878"/>
    <path id="Path_4990" data-name="Path 4990" d="M67.507,413.956c0,.41-1.994.743-4.453.743s-4.453-.333-4.453-.743,1.994-.743,4.453-.743S67.507,413.546,67.507,413.956Z" transform="translate(-34.469 -409.188)" fill="#7d8a8b" opacity="0.884"/>
    <path id="Path_4991" data-name="Path 4991" d="M67.392,413.967c0,.393-1.91.712-4.267.712s-4.267-.319-4.267-.712,1.911-.712,4.267-.712S67.392,413.574,67.392,413.967Z" transform="translate(-34.539 -409.199)" fill="#7c898a" opacity="0.891"/>
    <path id="Path_4992" data-name="Path 4992" d="M67.276,413.979c0,.376-1.827.681-4.081.681s-4.081-.3-4.081-.681,1.827-.681,4.081-.681S67.276,413.6,67.276,413.979Z" transform="translate(-34.609 -409.211)" fill="#7b8889" opacity="0.898"/>
    <path id="Path_4993" data-name="Path 4993" d="M67.161,413.991c0,.359-1.745.65-3.9.65s-3.9-.291-3.9-.65,1.744-.65,3.9-.65S67.161,413.632,67.161,413.991Z" transform="translate(-34.679 -409.223)" fill="#7a8888" opacity="0.905"/>
    <path id="Path_4994" data-name="Path 4994" d="M67.045,414c0,.342-1.661.619-3.71.619s-3.71-.277-3.71-.619,1.661-.619,3.71-.619S67.045,413.66,67.045,414Z" transform="translate(-34.749 -409.235)" fill="#798788" opacity="0.912"/>
    <path id="Path_4995" data-name="Path 4995" d="M66.929,414.014c0,.325-1.578.588-3.524.588s-3.524-.264-3.524-.588,1.578-.588,3.524-.588S66.929,413.69,66.929,414.014Z" transform="translate(-34.819 -409.246)" fill="#788687" opacity="0.918"/>
    <path id="Path_4996" data-name="Path 4996" d="M66.814,414.026c0,.308-1.495.557-3.339.557s-3.338-.249-3.338-.557,1.495-.557,3.338-.557S66.814,413.718,66.814,414.026Z" transform="translate(-34.889 -409.258)" fill="#778586" opacity="0.925"/>
    <path id="Path_4997" data-name="Path 4997" d="M66.7,414.037c0,.29-1.412.526-3.153.526s-3.153-.236-3.153-.526,1.412-.526,3.153-.526S66.7,413.747,66.7,414.037Z" transform="translate(-34.959 -409.27)" fill="#768485" opacity="0.932"/>
    <path id="Path_4998" data-name="Path 4998" d="M66.582,414.049c0,.274-1.329.5-2.967.5s-2.967-.221-2.967-.5,1.329-.5,2.967-.5S66.582,413.776,66.582,414.049Z" transform="translate(-35.029 -409.281)" fill="#758384" opacity="0.939"/>
    <path id="Path_4999" data-name="Path 4999" d="M66.467,414.061c0,.256-1.245.465-2.781.465s-2.781-.208-2.781-.465,1.245-.465,2.781-.465S66.467,413.8,66.467,414.061Z" transform="translate(-35.099 -409.293)" fill="#748283" opacity="0.946"/>
    <path id="Path_5000" data-name="Path 5000" d="M66.352,414.072c0,.239-1.162.433-2.6.433s-2.6-.195-2.6-.433,1.162-.433,2.6-.433S66.352,413.834,66.352,414.072Z" transform="translate(-35.169 -409.305)" fill="#738182" opacity="0.952"/>
    <path id="Path_5001" data-name="Path 5001" d="M66.236,414.084c0,.222-1.08.4-2.41.4s-2.41-.18-2.41-.4,1.08-.4,2.41-.4S66.236,413.862,66.236,414.084Z" transform="translate(-35.239 -409.316)" fill="#728081" opacity="0.959"/>
    <path id="Path_5002" data-name="Path 5002" d="M66.12,414.1c0,.2-1,.372-2.225.372s-2.225-.167-2.225-.372,1-.372,2.225-.372S66.12,413.891,66.12,414.1Z" transform="translate(-35.309 -409.328)" fill="#717f80" opacity="0.966"/>
    <path id="Path_5003" data-name="Path 5003" d="M66.005,414.108c0,.188-.913.34-2.039.34s-2.039-.152-2.039-.34.913-.341,2.039-.341S66.005,413.919,66.005,414.108Z" transform="translate(-35.38 -409.34)" fill="#707f80" opacity="0.973"/>
    <path id="Path_5004" data-name="Path 5004" d="M65.889,414.119c0,.171-.83.309-1.854.309s-1.854-.139-1.854-.309.831-.309,1.854-.309S65.889,413.949,65.889,414.119Z" transform="translate(-35.449 -409.352)" fill="#6f7e7f" opacity="0.98"/>
    <path id="Path_5005" data-name="Path 5005" d="M65.773,414.131c0,.154-.747.279-1.668.279s-1.668-.125-1.668-.279.747-.279,1.668-.279S65.773,413.977,65.773,414.131Z" transform="translate(-35.52 -409.363)" fill="#6e7d7e" opacity="0.986"/>
    <path id="Path_5006" data-name="Path 5006" d="M65.658,414.143c0,.137-.664.248-1.482.248s-1.482-.111-1.482-.248.664-.248,1.482-.248S65.658,414.006,65.658,414.143Z" transform="translate(-35.59 -409.375)" fill="#6d7c7d" opacity="0.993"/>
    <path id="Path_5007" data-name="Path 5007" d="M65.542,414.154c0,.119-.581.216-1.3.216s-1.3-.1-1.3-.216.581-.216,1.3-.216S65.542,414.035,65.542,414.154Z" transform="translate(-35.66 -409.387)" fill="#6c7b7c"/>
  </g>
  <g id="Group_564" data-name="Group 564">
    <path id="Path_5008" data-name="Path 5008" d="M47.646,369.345a11.885,11.885,0,0,1,1.316-2.178c2.9-2.142,6.915-1.6,10.2-.9a56.408,56.408,0,0,1,11.353,3.577,26.378,26.378,0,0,1,4.278,2.4c.4.283,2.278,2.124,2.645,2.034-1.007.249-2.388.674-2.527,1.933a12.481,12.481,0,0,1-1.239-.6c-.507-.21-1.035-.4-1.522-.659a23.91,23.91,0,0,0-4.482-2.1c-1.3-.372-2.695-.439-4-.75-.869-.206-1.708-.513-2.571-.734-.572-.146-.96-.391-1.505-.566a42.975,42.975,0,0,0-8.061-1.726,6.076,6.076,0,0,0-3.733.229Z" transform="translate(-30.154 -365.647)" fill="url(#linear-gradient)"/>
    <path id="Path_5009" data-name="Path 5009" d="M84.049,376.087s3.045,4.794,7.786.946,14.494-10.451,14.313-7.286-6.268,8.461-6,11.3,3.865,6.315,4.674,8c2.474,5.168-3.348,2.425-3.348,2.425s-10.89-5.925-15.845-1.926S84.049,376.087,84.049,376.087Z" transform="translate(-39.82 -366.542)" fill="url(#linear-gradient-2)"/>
    <path id="Path_5010" data-name="Path 5010" d="M88.208,380.867a12.209,12.209,0,0,0,4.663-.67,19.845,19.845,0,0,0,4.466-2.548,9.632,9.632,0,0,0,2.02-1.835c.636-.778,1.26-1.618,1.961-2.323a8.71,8.71,0,0,1,2.234-1.69,5.83,5.83,0,0,1,1.186-.457c.409-.09.792.025,1.166-.285a10.72,10.72,0,0,0-4.324,3.014c-.63.754-1.238,1.574-1.858,2.4a10.184,10.184,0,0,1-2.159,2.029c-.757.531-1.5.99-2.27,1.438a10.216,10.216,0,0,1-2.37.971,9.915,9.915,0,0,1-2.391.311A9.2,9.2,0,0,1,88.208,380.867Z" transform="translate(-41.268 -367.13)" fill="#3d3d3d" style="mix-blend-mode: screen;isolation: isolate"/>
    <path id="Path_5011" data-name="Path 5011" d="M87.735,385.831c1.239.054,2.389-.766,3.609-1.31a14.955,14.955,0,0,1,3.707-.868,10.863,10.863,0,0,0,1.794-.587l1.816-.651a13.609,13.609,0,0,0,1.779-.831,4.551,4.551,0,0,0,.86-.547,2.287,2.287,0,0,1,.883-.562,3.588,3.588,0,0,0-.8.772,5.927,5.927,0,0,1-.84.765,11.253,11.253,0,0,1-1.783,1.119c-.608.317-1.219.554-1.821.812a10.1,10.1,0,0,1-1.862.656,24.266,24.266,0,0,0-3.653.642C90.243,385.647,88.929,386.267,87.735,385.831Z" transform="translate(-41.138 -369.71)" fill="#3d3d3d" style="mix-blend-mode: screen;isolation: isolate"/>
    <path id="Path_5012" data-name="Path 5012" d="M87.834,389.64c.515-.139,1.01-.527,1.544-.685.52-.179,1.043-.336,1.561-.472,1.04-.277,2.062-.545,3.094-.878.519-.147,1.043-.3,1.574-.406a13.62,13.62,0,0,1,1.579-.189,24.406,24.406,0,0,1,3.118.025,31.679,31.679,0,0,1-3.126.721,24.6,24.6,0,0,0-3.083.788,18.407,18.407,0,0,1-3.138.677l-1.561.2a3.852,3.852,0,0,0-.77.131A1.966,1.966,0,0,1,87.834,389.64Z" transform="translate(-41.165 -371.489)" fill="#3d3d3d" style="mix-blend-mode: screen;isolation: isolate"/>
    <path id="Path_5013" data-name="Path 5013" d="M88.164,391.743a2.805,2.805,0,0,0,1.757-.118c.6-.14,1.2-.255,1.8-.348,1.2-.195,2.391-.319,3.579-.494a11.488,11.488,0,0,1,3.589.253,19.182,19.182,0,0,1,3.5.659c-1.2-.008-2.381.119-3.583.089a17.862,17.862,0,0,0-3.513-.048c-1.2.16-2.4.242-3.592.286l-1.785.067A2.477,2.477,0,0,1,88.164,391.743Z" transform="translate(-41.256 -372.515)" fill="#3d3d3d" style="mix-blend-mode: screen;isolation: isolate"/>
    <path id="Path_5014" data-name="Path 5014" d="M87.981,394.973a15.06,15.06,0,0,1,4.54-1.2,11.345,11.345,0,0,1,2.267.055c.7.036,1.48-.124,2.246-.116a12.2,12.2,0,0,1,2.27.213,5.741,5.741,0,0,1,2.158.96,18.563,18.563,0,0,1,1.964,1.438,5.323,5.323,0,0,0,1.954,1.331,4.2,4.2,0,0,1-2.119-.909,18.186,18.186,0,0,0-2.018-1.17,6.193,6.193,0,0,0-2.071-.746,13.126,13.126,0,0,0-2.2-.158c-.735-.028-1.477.131-2.27.063a17.187,17.187,0,0,0-2.211-.226,17.615,17.615,0,0,0-2.246.139C89.491,394.705,88.74,394.846,87.981,394.973Z" transform="translate(-41.205 -373.336)" fill="#3d3d3d" style="mix-blend-mode: screen;isolation: isolate"/>
    <path id="Path_5015" data-name="Path 5015" d="M72.277,395.314a13.787,13.787,0,0,1-3.822.87c-1.668.046-3.262.431-4.927.524-2.487.139-5.111-.507-7.561-.8-1.138-.138-2.278-.335-3.422-.416-1.18-.085-2.344.3-3.559.174a9.387,9.387,0,0,0-4.484.43c-.778.311-1.607.56-1.819,1.835a3.249,3.249,0,0,0-.035.386A38.546,38.546,0,0,0,53,401.126c10.26,1.247,19.38-1.276,22.922-5.858-.062-.032-.123-.078-.185-.1A4.693,4.693,0,0,0,72.277,395.314Z" transform="translate(-28.785 -373.659)" fill="url(#linear-gradient-3)"/>
    <path id="Path_5016" data-name="Path 5016" d="M64.536,401.727l1.209,1.556s-1.337.043-1.4.033A13.1,13.1,0,0,1,64.536,401.727Z" transform="translate(-34.726 -375.532)" fill="#a6a6a6" style="mix-blend-mode: multiply;isolation: isolate"/>
    <path id="Path_5017" data-name="Path 5017" d="M79,399.094l1.644,1.143a16.818,16.818,0,0,1-1.722.667A7.566,7.566,0,0,1,79,399.094Z" transform="translate(-38.709 -374.811)" fill="#a6a6a6" style="mix-blend-mode: multiply;isolation: isolate"/>
    <path id="Path_5018" data-name="Path 5018" d="M50.734,369.747c-12.678-1.54-21.491,4.19-26.949,8.127-.873.629.939,3.341,1.71,4.59l4.609,2.155-1.614,1.261a28.416,28.416,0,0,0,3.74,2.778c3.737-.7,7.036-5.106,7.89-10.83a16.9,16.9,0,0,1-.121,2.4c-.542,4.458-2.728,8.114-5.479,9.755.923.487,1.891.947,2.9,1.376a3.248,3.248,0,0,1,.035-.386c.213-1.276,1.042-1.524,1.819-1.835a9.387,9.387,0,0,1,4.484-.43c1.215.126,2.378-.259,3.559-.174,1.143.081,2.283.278,3.422.416,2.45.3,5.073.943,7.561.8,1.665-.094,3.259-.478,4.927-.524a13.787,13.787,0,0,0,3.822-.87,4.693,4.693,0,0,1,3.459-.15c.062.025.123.072.185.1a7.223,7.223,0,0,0,1.518-3.56C73.027,378,63.413,371.289,50.734,369.747Z" transform="translate(-23.553 -366.7)" fill="url(#linear-gradient-4)"/>
    <path id="Path_5019" data-name="Path 5019" d="M26.229,387.36a15.872,15.872,0,0,0,2.995,3.416l1.614-1.261Z" transform="translate(-24.286 -371.596)" fill="url(#radial-gradient)"/>
    <path id="Path_5020" data-name="Path 5020" d="M73.172,400.7c.321,2.312.882,4.127,1.813,5.176,1.1.155,2.2-.407,3.3-2.075l-.852-4.705Z" transform="translate(-37.148 -374.811)" fill="url(#linear-gradient-5)"/>
    <path id="Path_5021" data-name="Path 5021" d="M43.273,383.369a16.9,16.9,0,0,0,.121-2.4c-.854,5.724-4.153,10.126-7.89,10.83q1.089.682,2.29,1.321C40.546,391.483,42.732,387.827,43.273,383.369Z" transform="translate(-26.828 -369.846)" fill="url(#linear-gradient-6)"/>
    <path id="Path_5022" data-name="Path 5022" d="M56.567,402.079s.5,6.788,2.333,8.425,4.5-3.525,4.5-3.525l-.988-5.253Z" transform="translate(-32.598 -375.532)" fill="url(#linear-gradient-7)"/>
    <g id="Group_563" data-name="Group 563" transform="translate(17.131 4.648)" style="mix-blend-mode: screen;isolation: isolate">
      <path id="Path_5023" data-name="Path 5023" d="M51.292,373.83a1.065,1.065,0,1,1-.933-.992A.973.973,0,0,1,51.292,373.83Z" transform="translate(-47.713 -372.263)" fill="#353535"/>
      <path id="Path_5024" data-name="Path 5024" d="M51.349,377.417a1.064,1.064,0,1,1-.933-.992A.971.971,0,0,1,51.349,377.417Z" transform="translate(-47.728 -373.246)" fill="#353535"/>
      <path id="Path_5025" data-name="Path 5025" d="M51.413,380.732a1.064,1.064,0,1,1-.935-.99A.971.971,0,0,1,51.413,380.732Z" transform="translate(-47.746 -374.154)" fill="#353535"/>
      <path id="Path_5026" data-name="Path 5026" d="M50.975,384.34a1.065,1.065,0,1,1-.935-.992A.973.973,0,0,1,50.975,384.34Z" transform="translate(-47.626 -375.142)" fill="#353535"/>
      <path id="Path_5027" data-name="Path 5027" d="M50.141,387.357a1.065,1.065,0,1,1-.934-.991A.972.972,0,0,1,50.141,387.357Z" transform="translate(-47.397 -375.97)" fill="#353535"/>
      <path id="Path_5028" data-name="Path 5028" d="M49.233,390.767a1.064,1.064,0,1,1-.933-.994A.971.971,0,0,1,49.233,390.767Z" transform="translate(-47.149 -376.903)" fill="#353535"/>
      <path id="Path_5029" data-name="Path 5029" d="M54.407,376.165a1.064,1.064,0,1,1-.933-.993A.971.971,0,0,1,54.407,376.165Z" transform="translate(-48.566 -372.902)" fill="#353535"/>
      <path id="Path_5030" data-name="Path 5030" d="M54.465,379.751a1.065,1.065,0,1,1-.934-.994A.974.974,0,0,1,54.465,379.751Z" transform="translate(-48.582 -373.885)" fill="#353535"/>
      <path id="Path_5031" data-name="Path 5031" d="M54.528,383.064a1.064,1.064,0,1,1-.935-.992A.973.973,0,0,1,54.528,383.064Z" transform="translate(-48.6 -374.793)" fill="#353535"/>
      <path id="Path_5032" data-name="Path 5032" d="M54.09,386.673a1.064,1.064,0,1,1-.935-.992A.971.971,0,0,1,54.09,386.673Z" transform="translate(-48.48 -375.782)" fill="#353535"/>
      <path id="Path_5033" data-name="Path 5033" d="M53.256,389.691a1.065,1.065,0,1,1-.934-.993A.973.973,0,0,1,53.256,389.691Z" transform="translate(-48.251 -376.608)" fill="#353535"/>
      <path id="Path_5034" data-name="Path 5034" d="M52.348,393.1a1.065,1.065,0,1,1-.934-.992A.971.971,0,0,1,52.348,393.1Z" transform="translate(-48.002 -377.542)" fill="#353535"/>
      <path id="Path_5035" data-name="Path 5035" d="M58.3,372.941a1.04,1.04,0,0,1-1.118.844.912.912,0,0,1-.982-.894,1.039,1.039,0,0,1,1.119-.841A.909.909,0,0,1,58.3,372.941Z" transform="translate(-49.628 -372.049)" fill="#353535"/>
      <path id="Path_5036" data-name="Path 5036" d="M58.51,376.49a1.041,1.041,0,0,1-1.119.845.911.911,0,0,1-.98-.894,1.04,1.04,0,0,1,1.118-.844A.911.911,0,0,1,58.51,376.49Z" transform="translate(-49.686 -373.022)" fill="#353535"/>
      <path id="Path_5037" data-name="Path 5037" d="M58.716,379.77a1.043,1.043,0,0,1-1.119.845.911.911,0,0,1-.98-.894,1.041,1.041,0,0,1,1.117-.847A.913.913,0,0,1,58.716,379.77Z" transform="translate(-49.742 -373.919)" fill="#353535"/>
      <path id="Path_5038" data-name="Path 5038" d="M58.43,383.389a1.041,1.041,0,0,1-1.118.844.91.91,0,0,1-.981-.894,1.041,1.041,0,0,1,1.119-.843A.91.91,0,0,1,58.43,383.389Z" transform="translate(-49.664 -374.911)" fill="#353535"/>
      <path id="Path_5039" data-name="Path 5039" d="M57.723,386.461a1.038,1.038,0,0,1-1.118.844.911.911,0,0,1-.982-.893,1.043,1.043,0,0,1,1.12-.844A.911.911,0,0,1,57.723,386.461Z" transform="translate(-49.47 -375.753)" fill="#353535"/>
      <path id="Path_5040" data-name="Path 5040" d="M56.958,389.929a1.041,1.041,0,0,1-1.119.844.91.91,0,0,1-.98-.893,1.04,1.04,0,0,1,1.118-.844A.91.91,0,0,1,56.958,389.929Z" transform="translate(-49.261 -376.703)" fill="#353535"/>
      <path id="Path_5041" data-name="Path 5041" d="M61.583,375.742a1.039,1.039,0,0,1-1.117.844.912.912,0,0,1-.982-.893,1.042,1.042,0,0,1,1.119-.844A.91.91,0,0,1,61.583,375.742Z" transform="translate(-50.528 -372.816)" fill="#353535"/>
      <path id="Path_5042" data-name="Path 5042" d="M61.8,379.292a1.04,1.04,0,0,1-1.118.846.912.912,0,0,1-.981-.893,1.041,1.041,0,0,1,1.118-.847A.914.914,0,0,1,61.8,379.292Z" transform="translate(-50.586 -373.789)" fill="#353535"/>
      <path id="Path_5043" data-name="Path 5043" d="M62,382.572a1.041,1.041,0,0,1-1.117.844.91.91,0,0,1-.982-.893,1.043,1.043,0,0,1,1.118-.845A.912.912,0,0,1,62,382.572Z" transform="translate(-50.642 -374.687)" fill="#353535"/>
      <path id="Path_5044" data-name="Path 5044" d="M61.717,386.191a1.042,1.042,0,0,1-1.119.843.91.91,0,0,1-.98-.894,1.039,1.039,0,0,1,1.117-.844A.912.912,0,0,1,61.717,386.191Z" transform="translate(-50.565 -375.679)" fill="#353535"/>
      <path id="Path_5045" data-name="Path 5045" d="M61.009,389.264a1.04,1.04,0,0,1-1.119.845.914.914,0,0,1-.981-.892,1.042,1.042,0,0,1,1.12-.846A.91.91,0,0,1,61.009,389.264Z" transform="translate(-50.37 -376.521)" fill="#353535"/>
      <path id="Path_5046" data-name="Path 5046" d="M60.245,392.73a1.039,1.039,0,0,1-1.119.843.91.91,0,0,1-.981-.893,1.04,1.04,0,0,1,1.118-.844A.912.912,0,0,1,60.245,392.73Z" transform="translate(-50.161 -377.471)" fill="#353535"/>
      <path id="Path_5047" data-name="Path 5047" d="M65.388,373.612a1.043,1.043,0,0,1-1.118.847.911.911,0,0,1-.981-.894,1.041,1.041,0,0,1,1.117-.846A.914.914,0,0,1,65.388,373.612Z" transform="translate(-51.57 -372.233)" fill="#353535"/>
      <path id="Path_5048" data-name="Path 5048" d="M65.6,377.165a1.042,1.042,0,0,1-1.118.844.91.91,0,0,1-.981-.894,1.04,1.04,0,0,1,1.118-.843A.91.91,0,0,1,65.6,377.165Z" transform="translate(-51.628 -373.206)" fill="#353535"/>
      <path id="Path_5049" data-name="Path 5049" d="M65.806,380.443a1.041,1.041,0,0,1-1.119.844.911.911,0,0,1-.981-.892,1.039,1.039,0,0,1,1.119-.844A.908.908,0,0,1,65.806,380.443Z" transform="translate(-51.685 -374.105)" fill="#353535"/>
      <path id="Path_5050" data-name="Path 5050" d="M65.52,384.06a1.037,1.037,0,0,1-1.117.844.911.911,0,0,1-.982-.894,1.041,1.041,0,0,1,1.118-.843A.911.911,0,0,1,65.52,384.06Z" transform="translate(-51.607 -375.096)" fill="#353535"/>
      <path id="Path_5051" data-name="Path 5051" d="M64.813,387.135a1.04,1.04,0,0,1-1.118.844.911.911,0,0,1-.981-.894,1.042,1.042,0,0,1,1.117-.845A.912.912,0,0,1,64.813,387.135Z" transform="translate(-51.413 -375.937)" fill="#353535"/>
      <path id="Path_5052" data-name="Path 5052" d="M64.048,390.6a1.039,1.039,0,0,1-1.117.844.913.913,0,0,1-.982-.894,1.042,1.042,0,0,1,1.118-.844A.912.912,0,0,1,64.048,390.6Z" transform="translate(-51.203 -376.887)" fill="#353535"/>
      <path id="Path_5053" data-name="Path 5053" d="M68.99,376.643a1.041,1.041,0,0,1-1.118.844.912.912,0,0,1-.981-.894,1.04,1.04,0,0,1,1.117-.844A.91.91,0,0,1,68.99,376.643Z" transform="translate(-52.557 -373.063)" fill="#353535"/>
      <path id="Path_5054" data-name="Path 5054" d="M69.2,380.193a1.041,1.041,0,0,1-1.118.845.913.913,0,0,1-.982-.893,1.042,1.042,0,0,1,1.119-.845A.911.911,0,0,1,69.2,380.193Z" transform="translate(-52.615 -374.036)" fill="#353535"/>
      <path id="Path_5055" data-name="Path 5055" d="M69.408,383.472a1.04,1.04,0,0,1-1.118.845.912.912,0,0,1-.982-.894,1.041,1.041,0,0,1,1.118-.844A.911.911,0,0,1,69.408,383.472Z" transform="translate(-52.672 -374.935)" fill="#353535"/>
      <path id="Path_5056" data-name="Path 5056" d="M69.122,387.092a1.038,1.038,0,0,1-1.118.842.907.907,0,0,1-.98-.893,1.038,1.038,0,0,1,1.117-.843A.91.91,0,0,1,69.122,387.092Z" transform="translate(-52.594 -375.926)" fill="#353535"/>
      <path id="Path_5057" data-name="Path 5057" d="M68.415,390.164a1.041,1.041,0,0,1-1.118.846.913.913,0,0,1-.98-.893,1.041,1.041,0,0,1,1.117-.847A.91.91,0,0,1,68.415,390.164Z" transform="translate(-52.4 -376.768)" fill="#353535"/>
      <path id="Path_5058" data-name="Path 5058" d="M67.65,393.63a1.038,1.038,0,0,1-1.117.844.912.912,0,0,1-.982-.892,1.041,1.041,0,0,1,1.117-.845A.91.91,0,0,1,67.65,393.63Z" transform="translate(-52.19 -377.717)" fill="#353535"/>
      <path id="Path_5059" data-name="Path 5059" d="M72.706,375.143a1.04,1.04,0,0,1-1.118.844.91.91,0,0,1-.981-.892,1.04,1.04,0,0,1,1.118-.844A.909.909,0,0,1,72.706,375.143Z" transform="translate(-53.575 -372.652)" fill="#353535"/>
      <path id="Path_5060" data-name="Path 5060" d="M72.918,378.692a1.042,1.042,0,0,1-1.119.847.912.912,0,0,1-.98-.894,1.041,1.041,0,0,1,1.117-.845A.91.91,0,0,1,72.918,378.692Z" transform="translate(-53.633 -373.625)" fill="#353535"/>
      <path id="Path_5061" data-name="Path 5061" d="M73.125,381.971a1.043,1.043,0,0,1-1.118.847.915.915,0,0,1-.982-.894,1.041,1.041,0,0,1,1.118-.846A.912.912,0,0,1,73.125,381.971Z" transform="translate(-53.69 -374.523)" fill="#353535"/>
      <path id="Path_5062" data-name="Path 5062" d="M72.839,385.59a1.043,1.043,0,0,1-1.118.846.913.913,0,0,1-.982-.9,1.039,1.039,0,0,1,1.119-.842A.91.91,0,0,1,72.839,385.59Z" transform="translate(-53.612 -375.515)" fill="#353535"/>
      <path id="Path_5063" data-name="Path 5063" d="M72.131,388.664a1.04,1.04,0,0,1-1.117.845.911.911,0,0,1-.982-.893,1.042,1.042,0,0,1,1.12-.845A.909.909,0,0,1,72.131,388.664Z" transform="translate(-53.418 -376.357)" fill="#353535"/>
      <path id="Path_5064" data-name="Path 5064" d="M71.366,392.129a1.04,1.04,0,0,1-1.118.845.911.911,0,0,1-.981-.894,1.042,1.042,0,0,1,1.118-.844A.911.911,0,0,1,71.366,392.129Z" transform="translate(-53.208 -377.306)" fill="#353535"/>
      <path id="Path_5065" data-name="Path 5065" d="M76.574,377.469a1.04,1.04,0,0,1-1.118.844.911.911,0,0,1-.982-.894,1.04,1.04,0,0,1,1.117-.843A.912.912,0,0,1,76.574,377.469Z" transform="translate(-54.635 -373.29)" fill="#353535"/>
      <path id="Path_5066" data-name="Path 5066" d="M76.785,381.019a1.041,1.041,0,0,1-1.118.845.909.909,0,0,1-.98-.894,1.039,1.039,0,0,1,1.118-.844A.911.911,0,0,1,76.785,381.019Z" transform="translate(-54.693 -374.262)" fill="#353535"/>
      <path id="Path_5067" data-name="Path 5067" d="M76.991,384.3a1.041,1.041,0,0,1-1.118.847.912.912,0,0,1-.982-.894,1.043,1.043,0,0,1,1.12-.844A.91.91,0,0,1,76.991,384.3Z" transform="translate(-54.749 -375.161)" fill="#353535"/>
      <path id="Path_5068" data-name="Path 5068" d="M76.7,387.916a1.037,1.037,0,0,1-1.117.844.909.909,0,0,1-.982-.892,1.039,1.039,0,0,1,1.118-.844A.908.908,0,0,1,76.7,387.916Z" transform="translate(-54.671 -376.152)" fill="#353535"/>
      <path id="Path_5069" data-name="Path 5069" d="M76,390.99a1.041,1.041,0,0,1-1.119.846.913.913,0,0,1-.981-.9,1.039,1.039,0,0,1,1.118-.842A.909.909,0,0,1,76,390.99Z" transform="translate(-54.477 -376.994)" fill="#353535"/>
      <path id="Path_5070" data-name="Path 5070" d="M80.321,379.3a1.038,1.038,0,0,1-1.118.843.908.908,0,0,1-.982-.891,1.041,1.041,0,0,1,1.117-.844A.911.911,0,0,1,80.321,379.3Z" transform="translate(-55.661 -373.793)" fill="#353535"/>
      <path id="Path_5071" data-name="Path 5071" d="M80.532,382.856a1.038,1.038,0,0,1-1.118.843.908.908,0,0,1-.98-.892,1.039,1.039,0,0,1,1.118-.845A.909.909,0,0,1,80.532,382.856Z" transform="translate(-55.72 -374.765)" fill="#353535"/>
      <path id="Path_5072" data-name="Path 5072" d="M80.739,386.134a1.042,1.042,0,0,1-1.118.845.913.913,0,0,1-.982-.894,1.04,1.04,0,0,1,1.119-.843A.909.909,0,0,1,80.739,386.134Z" transform="translate(-55.776 -375.664)" fill="#353535"/>
      <path id="Path_5073" data-name="Path 5073" d="M80.452,389.753a1.038,1.038,0,0,1-1.117.844.91.91,0,0,1-.982-.893,1.042,1.042,0,0,1,1.119-.844A.91.91,0,0,1,80.452,389.753Z" transform="translate(-55.698 -376.655)" fill="#353535"/>
      <path id="Path_5074" data-name="Path 5074" d="M79.746,392.826a1.039,1.039,0,0,1-1.118.844.909.909,0,0,1-.981-.893,1.037,1.037,0,0,1,1.118-.842A.909.909,0,0,1,79.746,392.826Z" transform="translate(-55.504 -377.498)" fill="#353535"/>
      <path id="Path_5075" data-name="Path 5075" d="M84.252,380.625a1.039,1.039,0,0,1-1.117.846.91.91,0,0,1-.98-.893,1.037,1.037,0,0,1,1.117-.844A.908.908,0,0,1,84.252,380.625Z" transform="translate(-56.739 -374.155)" fill="#353535"/>
      <path id="Path_5076" data-name="Path 5076" d="M84.465,384.177a1.04,1.04,0,0,1-1.119.843.911.911,0,0,1-.981-.894,1.04,1.04,0,0,1,1.117-.843A.912.912,0,0,1,84.465,384.177Z" transform="translate(-56.797 -375.127)" fill="#353535"/>
      <path id="Path_5077" data-name="Path 5077" d="M84.67,387.454a1.04,1.04,0,0,1-1.118.846.913.913,0,0,1-.981-.894,1.04,1.04,0,0,1,1.117-.844A.909.909,0,0,1,84.67,387.454Z" transform="translate(-56.853 -376.026)" fill="#353535"/>
      <path id="Path_5078" data-name="Path 5078" d="M84.385,391.072a1.04,1.04,0,0,1-1.119.845.911.911,0,0,1-.98-.894,1.04,1.04,0,0,1,1.117-.843A.911.911,0,0,1,84.385,391.072Z" transform="translate(-56.775 -377.017)" fill="#353535"/>
      <path id="Path_5079" data-name="Path 5079" d="M88.089,384.937a1.041,1.041,0,0,1-1.117.846.911.911,0,0,1-.982-.893,1.039,1.039,0,0,1,1.118-.844A.911.911,0,0,1,88.089,384.937Z" transform="translate(-57.79 -375.336)" fill="#353535"/>
      <path id="Path_5080" data-name="Path 5080" d="M88.3,388.489a1.04,1.04,0,0,1-1.118.843.911.911,0,0,1-.982-.893,1.041,1.041,0,0,1,1.119-.844A.911.911,0,0,1,88.3,388.489Z" transform="translate(-57.848 -376.309)" fill="#353535"/>
      <path id="Path_5081" data-name="Path 5081" d="M88.507,391.767a1.043,1.043,0,0,1-1.118.846.914.914,0,0,1-.981-.9,1.042,1.042,0,0,1,1.118-.844A.91.91,0,0,1,88.507,391.767Z" transform="translate(-57.905 -377.207)" fill="#353535"/>
      <path id="Path_5082" data-name="Path 5082" d="M75.234,394.457a1.038,1.038,0,0,1-1.118.843.91.91,0,0,1-.982-.892,1.038,1.038,0,0,1,1.118-.843A.909.909,0,0,1,75.234,394.457Z" transform="translate(-54.268 -377.944)" fill="#353535"/>
    </g>
    <path id="Path_5083" data-name="Path 5083" d="M33.758,390.87c.319.234.738.468,1.038.694a10.227,10.227,0,0,0,6.787-8.547,10.944,10.944,0,0,0,.019-2.386c-.005.05-.006.1-.012.147C40.994,385.677,37.412,389.915,33.758,390.87Z" transform="translate(-26.349 -369.752)" fill="#353535" style="mix-blend-mode: screen;isolation: isolate"/>
    <path id="Path_5084" data-name="Path 5084" d="M57.679,402.605a5.3,5.3,0,0,0,.513,1.994c.259.588.545,1.165.825,1.769.135.311.274.623.4.965a10.162,10.162,0,0,1,.293,1.073,15.4,15.4,0,0,0,.547,2.061,3.99,3.99,0,0,1-1-1.676c-.242-.655-.481-1.2-.771-1.811A12.917,12.917,0,0,1,57.749,405,4.451,4.451,0,0,1,57.679,402.605Z" transform="translate(-32.865 -375.773)" fill="#3d3d3d" style="mix-blend-mode: screen;isolation: isolate"/>
    <path id="Path_5085" data-name="Path 5085" d="M60,402.028a7.9,7.9,0,0,0,.253,1.877,14.67,14.67,0,0,0,.542,1.661c.1.277.214.513.323.856.09.315.176.615.242.926a8.215,8.215,0,0,0,.523,1.741,2.661,2.661,0,0,1-.947-1.384c-.121-.274-.216-.566-.325-.825-.089-.237-.229-.515-.342-.806a7.8,7.8,0,0,1-.467-1.93A4.816,4.816,0,0,1,60,402.028Z" transform="translate(-33.476 -375.615)" fill="#3d3d3d" style="mix-blend-mode: screen;isolation: isolate"/>
    <path id="Path_5086" data-name="Path 5086" d="M63.361,408.422c0-.014,0-.025,0-.04h0a4.072,4.072,0,0,0-.386-1.676c-.1-.232-.192-.465-.263-.678l-.222-.734-.433-1.5a7.531,7.531,0,0,1-.306-1.583,4.122,4.122,0,0,0-.151,1.8,9.434,9.434,0,0,0,.314,1.677c.07.273.158.517.256.785a4.681,4.681,0,0,0,.367.71,5.736,5.736,0,0,1,.682,1.245l.122.369Z" transform="translate(-33.97 -375.665)" fill="#3d3d3d" style="mix-blend-mode: screen;isolation: isolate"/>
    <path id="Path_5087" data-name="Path 5087" d="M63.723,402.06l.331,1.34c.114.432.215.87.312,1.325s.144.983.209,1.361a4.233,4.233,0,0,1,.121,1.507c-.176-.431-.389-.709-.576-1.138a8.009,8.009,0,0,1-.368-1.372,10.223,10.223,0,0,1-.183-1.458A4.72,4.72,0,0,1,63.723,402.06Z" transform="translate(-34.515 -375.623)" fill="#3d3d3d" style="mix-blend-mode: screen;isolation: isolate"/>
    <path id="Path_5088" data-name="Path 5088" d="M74.415,400.954a2.528,2.528,0,0,0,.171,1.25c.131.375.273.749.427,1.117.144.395.3.7.468,1.112a2.663,2.663,0,0,1,.247,1.446,3.948,3.948,0,0,0-.639-.927,4.048,4.048,0,0,1-.632-1.077,5.427,5.427,0,0,1-.346-1.393,3.388,3.388,0,0,1,.007-.812A1.249,1.249,0,0,1,74.415,400.954Z" transform="translate(-37.399 -375.32)" fill="#3d3d3d" style="mix-blend-mode: screen;isolation: isolate"/>
    <path id="Path_5089" data-name="Path 5089" d="M76.265,400.212a8.591,8.591,0,0,0,.244,1.236l.3,1.161c.2.783.387,1.55.582,2.429a2.09,2.09,0,0,1-.706-.852,5.672,5.672,0,0,1-.445-1.173,6.571,6.571,0,0,1-.2-1.36A3.251,3.251,0,0,1,76.265,400.212Z" transform="translate(-37.934 -375.117)" fill="#3d3d3d" style="mix-blend-mode: screen;isolation: isolate"/>
    <path id="Path_5090" data-name="Path 5090" d="M77.519,399.7c.336.083.515.571.64.956a11.572,11.572,0,0,1,.277,1.228,4.939,4.939,0,0,0,.11.541,6.514,6.514,0,0,1,.142.636,11.418,11.418,0,0,1,.144,1.325,3.433,3.433,0,0,1-.574-.993l-.219-.521a4.344,4.344,0,0,1-.18-.669c-.075-.444-.116-.867-.147-1.292A4.484,4.484,0,0,0,77.519,399.7Z" transform="translate(-38.339 -374.977)" fill="#3d3d3d" style="mix-blend-mode: screen;isolation: isolate"/>
    <path id="Path_5091" data-name="Path 5091" d="M45.982,395.708a6.068,6.068,0,0,0,3.54,3.043c1.52.388,3.144-1.144,4.154-2.2.7-.731,1.191-1.133.355-1.989a3.376,3.376,0,0,0-2.362-1.043c-.7.173-1.667,1.283-2.356,1.639a3.863,3.863,0,0,1-1.906.539,5.215,5.215,0,0,0-1.415-.082Z" transform="translate(-29.698 -373.276)" fill="url(#linear-gradient-8)"/>
    <path id="Path_5092" data-name="Path 5092" d="M37.87,384.048a1.586,1.586,0,1,1-1.383-1.767A1.584,1.584,0,0,1,37.87,384.048Z" transform="translate(-26.61 -370.201)" fill="#fff"/>
    <path id="Path_5093" data-name="Path 5093" d="M37.331,384.273a.71.71,0,1,1-.619-.79A.708.708,0,0,1,37.331,384.273Z" transform="translate(-26.941 -370.532)" fill="#565656"/>
  </g>
</svg>
