<svg id="other" xmlns="http://www.w3.org/2000/svg" width="55.556" height="30.664" viewBox="0 0 55.556 30.664">
  <g id="Group_584" data-name="Group 584" transform="translate(23.238 14.701)">
    <path id="Path_5136" data-name="Path 5136" d="M1650.566,1080.274v4.823c0,1.685-1.664,3.212-4.685,4.3a32.288,32.288,0,0,1-10.544,1.578,34.963,34.963,0,0,1-8.861-1.055q-.886-.236-1.683-.523c-3.021-1.089-4.685-2.616-4.685-4.3v-4.823a2.347,2.347,0,0,1,.332-.9c.03-.051.063-.1.1-.152h29.6q.053.076.1.152A2.365,2.365,0,0,1,1650.566,1080.274Z" transform="translate(-1620.088 -1075.012)" fill="#112844"/>
    <path id="Path_5137" data-name="Path 5137" d="M1654.037,1084.7v5.261c0,1.468-1.681,2.795-4.393,3.749a24.192,24.192,0,0,1-3.735.957,36.237,36.237,0,0,1-4.777.516q-.89.039-1.81.039-.979,0-1.926-.045a36,36,0,0,1-4.654-.509,24.2,24.2,0,0,1-3.736-.955c-2.716-.954-4.4-2.283-4.4-3.752V1084.7Z" transform="translate(-1624.075 -1079.873)" fill="#112844"/>
    <path id="Path_5138" data-name="Path 5138" d="M1650.432,1047.92a1.945,1.945,0,0,1-.019.28,2.371,2.371,0,0,1-.331.906,3.264,3.264,0,0,1-.183.273,8.674,8.674,0,0,1-4.015,2.492q-.185.066-.377.13a25.649,25.649,0,0,1-3.577.892l-.159.028a37.067,37.067,0,0,1-4.691.5l-.086,0c-.593.026-1.2.04-1.81.04-.642,0-1.275-.015-1.9-.043h-.029a36.984,36.984,0,0,1-4.654-.5l-.052-.008a25.774,25.774,0,0,1-3.684-.911c-.1-.033-.2-.066-.292-.1a8.777,8.777,0,0,1-4.109-2.525,3.245,3.245,0,0,1-.183-.272,2.355,2.355,0,0,1-.331-.906,2.009,2.009,0,0,1,0-.559,2.351,2.351,0,0,1,.331-.9c.031-.051.063-.1.1-.152a8.056,8.056,0,0,1,3.872-2.528,23.921,23.921,0,0,1,3.888-1.054,36.422,36.422,0,0,1,5.143-.581c.621-.029,1.255-.043,1.9-.043s1.275.014,1.9.043a36.314,36.314,0,0,1,5.257.6,23.655,23.655,0,0,1,3.866,1.067,7.975,7.975,0,0,1,3.781,2.494c.035.05.067.1.1.152a2.369,2.369,0,0,1,.33.9A1.941,1.941,0,0,1,1650.432,1047.92Z" transform="translate(-1619.936 -1042.378)" fill="#20375f"/>
    <path id="Path_5139" data-name="Path 5139" d="M1654.038,1049.31a2.133,2.133,0,0,1-.338,1.125,7.694,7.694,0,0,1-4.052,2.624,24.337,24.337,0,0,1-3.815.97,36.213,36.213,0,0,1-4.68.5c-.6.027-1.211.041-1.83.041s-1.23-.014-1.83-.041a36.156,36.156,0,0,1-4.568-.48,24.616,24.616,0,0,1-3.837-.959c-2.043-.708-3.514-1.624-4.141-2.655a2.038,2.038,0,0,1,0-2.249,7.42,7.42,0,0,1,3.831-2.543,23.359,23.359,0,0,1,3.753-1,35.753,35.753,0,0,1,4.963-.552c.6-.028,1.211-.041,1.83-.041s1.231.014,1.83.041a35.675,35.675,0,0,1,5.073.572,23.123,23.123,0,0,1,3.731,1.012,7.339,7.339,0,0,1,3.743,2.511A2.14,2.14,0,0,1,1654.038,1049.31Z" transform="translate(-1624.075 -1043.858)" fill="#395aa3"/>
    <path id="Path_5140" data-name="Path 5140" d="M1653.7,1050.435h-9.387l5.335,2.624a24.337,24.337,0,0,1-3.815.97l-4.68-2.3v2.8c-.6.027-1.211.041-1.83.041s-1.23-.014-1.83-.041V1051.8l-4.568,2.246a24.616,24.616,0,0,1-3.837-.959l5.4-2.655h-9.54a2.038,2.038,0,0,1,0-2.249h9l-5.172-2.543a23.359,23.359,0,0,1,3.753-1l4.963,2.44v-2.992c.6-.028,1.211-.041,1.83-.041s1.231.014,1.83.041v3.066l5.073-2.495a23.123,23.123,0,0,1,3.731,1.012l-5.108,2.511h8.852a2.041,2.041,0,0,1,0,2.249Z" transform="translate(-1624.075 -1043.858)" fill="#dbeafe"/>
    <path id="Path_5141" data-name="Path 5141" d="M1740.375,1139.085v4.27q-.89.039-1.81.039-.979,0-1.925-.045v-4.269h.029c.621.029,1.255.043,1.9.043C1739.177,1139.125,1739.782,1139.111,1740.375,1139.085Z" transform="translate(-1723.317 -1128.04)" fill="#c7dafd"/>
    <path id="Path_5142" data-name="Path 5142" d="M1814.935,1126.662v4.22a24.164,24.164,0,0,1-3.735.957v-4.256l.159-.028A25.623,25.623,0,0,0,1814.935,1126.662Z" transform="translate(-1789.365 -1117.04)" fill="#c7dafd"/>
    <path id="Path_5143" data-name="Path 5143" d="M1666.888,1127.6v4.256a24.225,24.225,0,0,1-3.736-.955v-4.221a25.761,25.761,0,0,0,3.684.911Z" transform="translate(-1658.219 -1117.055)" fill="#c7dafd"/>
    <path id="Path_5144" data-name="Path 5144" d="M1683.729,1061.494a1.5,1.5,0,0,1-.238.789,5.4,5.4,0,0,1-2.842,1.841,17.108,17.108,0,0,1-2.676.68,25.354,25.354,0,0,1-3.283.351c-.42.02-.849.029-1.284.029s-.863-.01-1.283-.029a25.337,25.337,0,0,1-3.2-.337,17.268,17.268,0,0,1-2.691-.673,5.468,5.468,0,0,1-2.905-1.862,1.429,1.429,0,0,1,0-1.578,5.207,5.207,0,0,1,2.687-1.784,16.4,16.4,0,0,1,2.632-.7,25.094,25.094,0,0,1,3.482-.387c.42-.019.849-.029,1.283-.029s.864.01,1.284.029a25.032,25.032,0,0,1,3.559.4,16.23,16.23,0,0,1,2.617.71,5.149,5.149,0,0,1,2.626,1.762A1.5,1.5,0,0,1,1683.729,1061.494Z" transform="translate(-1658.159 -1056.043)" fill="#20375f"/>
    <path id="Path_5145" data-name="Path 5145" d="M1690.15,1064.13a1.358,1.358,0,0,1-.216.717,4.9,4.9,0,0,1-2.581,1.672,15.529,15.529,0,0,1-2.43.618,23.1,23.1,0,0,1-2.981.319c-.382.017-.771.026-1.166.026s-.784-.009-1.166-.026a23.076,23.076,0,0,1-2.91-.306,15.69,15.69,0,0,1-2.444-.611,4.968,4.968,0,0,1-2.637-1.691,1.3,1.3,0,0,1,0-1.432,4.726,4.726,0,0,1,2.44-1.62,14.874,14.874,0,0,1,2.39-.637,22.731,22.731,0,0,1,3.161-.352c.382-.018.771-.026,1.166-.026s.784.009,1.166.026a22.7,22.7,0,0,1,3.231.364,14.728,14.728,0,0,1,2.377.645,4.673,4.673,0,0,1,2.384,1.6A1.363,1.363,0,0,1,1690.15,1064.13Z" transform="translate(-1665.53 -1058.678)" fill="#395aa3"/>
    <path id="Path_5146" data-name="Path 5146" d="M1709.335,1069.568l1.808.963,3.907.568-3.082.735,1.106,2.054-3.678-1.347-3.311,1.347.922-1.809-3.266-.98,3.907-.568Z" transform="translate(-1694.175 -1066.464)" fill="#20375f"/>
  </g>
  <g id="Group_585" data-name="Group 585" transform="translate(21.417 7.727)">
    <path id="Path_5147" data-name="Path 5147" d="M1634.612,1019.193v4.823c0,.056,0,.11-.007.165a2.636,2.636,0,0,1-.236.929c-.018.04-.038.081-.058.122a3.434,3.434,0,0,1-.315.5,6.5,6.5,0,0,1-2.174,1.744,13.625,13.625,0,0,1-1.825.808l-.07.026c-.393.142-.8.275-1.23.4a28.425,28.425,0,0,1-4.077.839q-.777.107-1.586.18c-1.18.107-2.4.163-3.651.163h-.009q-.648,0-1.287-.021c-.249-.007-.494-.017-.739-.029a36.286,36.286,0,0,1-4.708-.531c-.313-.058-.621-.12-.922-.186a22.871,22.871,0,0,1-2.879-.813,13.772,13.772,0,0,1-1.9-.834c-.057-.03-.115-.062-.17-.094-.1-.055-.191-.109-.284-.167-.169-.1-.329-.207-.48-.315l-.034-.025a3.652,3.652,0,0,1-1.821-2.866v-4.823a2.343,2.343,0,0,1,.332-.9c.03-.051.063-.1.1-.152h29.6q.053.076.1.152A2.365,2.365,0,0,1,1634.612,1019.193Z" transform="translate(-1604.134 -1013.931)" fill="#20375f"/>
    <path id="Path_5148" data-name="Path 5148" d="M1638.084,1023.623v5.261c0,1.468-1.681,2.795-4.393,3.749a24.2,24.2,0,0,1-3.735.957,36.283,36.283,0,0,1-4.777.516q-.89.039-1.81.039-.979,0-1.925-.045a36.074,36.074,0,0,1-4.654-.51,24.25,24.25,0,0,1-3.735-.955c-2.716-.954-4.4-2.283-4.4-3.752v-5.261Z" transform="translate(-1608.121 -1018.791)" fill="#20375f"/>
    <path id="Path_5149" data-name="Path 5149" d="M1634.479,986.837a1.95,1.95,0,0,1-.019.28,2.37,2.37,0,0,1-.331.906c-.055.092-.116.183-.183.273a8.674,8.674,0,0,1-4.015,2.492c-.124.044-.249.088-.377.13a25.658,25.658,0,0,1-3.577.892l-.158.028a37.071,37.071,0,0,1-4.691.5l-.086,0c-.593.026-1.2.04-1.81.04-.642,0-1.276-.015-1.9-.043h-.029a37.03,37.03,0,0,1-4.654-.5l-.052-.009a25.729,25.729,0,0,1-3.684-.911c-.1-.032-.2-.066-.292-.1a8.778,8.778,0,0,1-4.109-2.525c-.067-.09-.128-.181-.183-.272a2.353,2.353,0,0,1-.331-.906,2.01,2.01,0,0,1,0-.559,2.353,2.353,0,0,1,.331-.9c.031-.051.063-.1.1-.152a8.061,8.061,0,0,1,3.872-2.528,23.925,23.925,0,0,1,3.889-1.054,36.4,36.4,0,0,1,5.143-.581c.621-.029,1.255-.043,1.9-.043s1.275.014,1.9.043a36.37,36.37,0,0,1,5.257.6,23.692,23.692,0,0,1,3.866,1.067,7.978,7.978,0,0,1,3.781,2.494c.035.05.067.1.1.152a2.371,2.371,0,0,1,.33.9A1.938,1.938,0,0,1,1634.479,986.837Z" transform="translate(-1603.982 -981.295)" fill="#20375f"/>
    <path id="Path_5150" data-name="Path 5150" d="M1638.084,988.227a2.134,2.134,0,0,1-.338,1.125,7.7,7.7,0,0,1-4.052,2.624,24.356,24.356,0,0,1-3.815.97,36.27,36.27,0,0,1-4.68.5c-.6.027-1.211.041-1.83.041s-1.23-.014-1.83-.041a36.151,36.151,0,0,1-4.568-.48,24.589,24.589,0,0,1-3.837-.959c-2.043-.708-3.515-1.624-4.141-2.655a2.037,2.037,0,0,1,0-2.249,7.421,7.421,0,0,1,3.831-2.543,23.355,23.355,0,0,1,3.752-1,35.757,35.757,0,0,1,4.963-.552c.6-.028,1.211-.041,1.83-.041s1.231.014,1.83.041a35.637,35.637,0,0,1,5.073.572,23.119,23.119,0,0,1,3.731,1.013,7.339,7.339,0,0,1,3.743,2.511A2.14,2.14,0,0,1,1638.084,988.227Z" transform="translate(-1608.121 -982.775)" fill="#395aa3"/>
    <path id="Path_5151" data-name="Path 5151" d="M1637.746,989.352h-9.387l5.335,2.624a24.356,24.356,0,0,1-3.815.97l-4.68-2.3v2.8c-.6.027-1.211.041-1.83.041s-1.23-.014-1.83-.041V990.72l-4.568,2.246a24.589,24.589,0,0,1-3.837-.959l5.4-2.655h-9.539a2.037,2.037,0,0,1,0-2.249h9l-5.172-2.543a23.355,23.355,0,0,1,3.752-1l4.963,2.44v-2.992c.6-.028,1.211-.041,1.83-.041s1.231.014,1.83.041v3.066l5.073-2.495a23.119,23.119,0,0,1,3.731,1.013L1628.9,987.1h8.852a2.042,2.042,0,0,1,0,2.249Z" transform="translate(-1608.121 -982.775)" fill="#dbeafe"/>
    <path id="Path_5152" data-name="Path 5152" d="M1724.421,1078v4.27q-.89.039-1.81.039-.979,0-1.925-.045V1078h.029c.621.029,1.255.044,1.9.044C1723.223,1078.042,1723.828,1078.028,1724.421,1078Z" transform="translate(-1707.363 -1066.957)" fill="#c7dafd"/>
    <path id="Path_5153" data-name="Path 5153" d="M1798.981,1065.58v4.22a24.2,24.2,0,0,1-3.735.957V1066.5l.158-.028A25.687,25.687,0,0,0,1798.981,1065.58Z" transform="translate(-1773.411 -1055.958)" fill="#c7dafd"/>
    <path id="Path_5154" data-name="Path 5154" d="M1650.935,1066.516v4.256a24.187,24.187,0,0,1-3.735-.955V1065.6a25.762,25.762,0,0,0,3.684.911Z" transform="translate(-1642.266 -1055.972)" fill="#c7dafd"/>
    <path id="Path_5155" data-name="Path 5155" d="M1667.775,1000.412a1.5,1.5,0,0,1-.237.789,5.4,5.4,0,0,1-2.842,1.841,17.1,17.1,0,0,1-2.676.68,25.438,25.438,0,0,1-3.283.351c-.42.019-.849.029-1.284.029s-.863-.01-1.283-.029a25.384,25.384,0,0,1-3.2-.337,17.252,17.252,0,0,1-2.691-.673,5.468,5.468,0,0,1-2.905-1.862,1.428,1.428,0,0,1,0-1.578,5.2,5.2,0,0,1,2.687-1.784,16.378,16.378,0,0,1,2.633-.7,25.056,25.056,0,0,1,3.482-.387c.42-.019.849-.029,1.283-.029s.863.01,1.284.029a25.011,25.011,0,0,1,3.559.4,16.2,16.2,0,0,1,2.618.71,5.146,5.146,0,0,1,2.626,1.762A1.5,1.5,0,0,1,1667.775,1000.412Z" transform="translate(-1642.205 -994.961)" fill="#20375f"/>
    <path id="Path_5156" data-name="Path 5156" d="M1674.2,1003.048a1.359,1.359,0,0,1-.215.717,4.9,4.9,0,0,1-2.581,1.672,15.546,15.546,0,0,1-2.43.618,23.088,23.088,0,0,1-2.981.318c-.382.017-.771.026-1.165.026s-.784-.009-1.166-.026a23.013,23.013,0,0,1-2.91-.306,15.653,15.653,0,0,1-2.444-.611,4.967,4.967,0,0,1-2.638-1.691,1.3,1.3,0,0,1,0-1.433,4.727,4.727,0,0,1,2.44-1.62,14.886,14.886,0,0,1,2.39-.637,22.767,22.767,0,0,1,3.161-.352c.382-.017.771-.026,1.166-.026s.784.009,1.165.026a22.738,22.738,0,0,1,3.231.364,14.734,14.734,0,0,1,2.377.645,4.674,4.674,0,0,1,2.384,1.6A1.361,1.361,0,0,1,1674.2,1003.048Z" transform="translate(-1649.576 -997.596)" fill="#395aa3"/>
    <path id="Path_5157" data-name="Path 5157" d="M1693.381,1008.485l1.809.963,3.906.568-3.082.735,1.106,2.054-3.678-1.347-3.311,1.347.922-1.809-3.266-.98,3.907-.568Z" transform="translate(-1678.221 -1005.381)" fill="#20375f"/>
  </g>
  <g id="Group_586" data-name="Group 586" transform="translate(25.06)">
    <path id="Path_5158" data-name="Path 5158" d="M1666.519,951.509v4.822c0,1.685-1.664,3.212-4.685,4.3a36,36,0,0,1-21.088,0c-3.021-1.088-4.685-2.615-4.685-4.3v-4.822a2.356,2.356,0,0,1,.331-.9c.031-.051.063-.1.1-.152h29.6c.035.05.067.1.1.152A2.369,2.369,0,0,1,1666.519,951.509Z" transform="translate(-1636.042 -946.247)" fill="#112844"/>
    <path id="Path_5159" data-name="Path 5159" d="M1669.991,955.935V961.2c0,1.468-1.681,2.795-4.393,3.749a24.2,24.2,0,0,1-3.736.957,36.28,36.28,0,0,1-4.776.516q-.89.039-1.81.039-.979,0-1.925-.045a35.983,35.983,0,0,1-4.654-.51,24.215,24.215,0,0,1-3.735-.954c-2.716-.954-4.4-2.283-4.4-3.752v-5.261Z" transform="translate(-1640.029 -951.103)" fill="#112844"/>
    <path id="Path_5160" data-name="Path 5160" d="M1666.387,919.149a1.913,1.913,0,0,1-.02.28,2.36,2.36,0,0,1-.331.906,3.141,3.141,0,0,1-.183.272,8.672,8.672,0,0,1-4.015,2.492q-.185.066-.377.13a25.7,25.7,0,0,1-3.577.891l-.159.028a37.067,37.067,0,0,1-4.691.5l-.086,0c-.594.026-1.2.04-1.81.04-.642,0-1.275-.015-1.9-.043h-.029a37.053,37.053,0,0,1-4.654-.5l-.051-.009a25.762,25.762,0,0,1-3.684-.911c-.1-.033-.2-.066-.292-.1a8.778,8.778,0,0,1-4.109-2.525c-.067-.09-.128-.181-.183-.272a2.36,2.36,0,0,1-.331-.906,2.01,2.01,0,0,1,0-.559,2.357,2.357,0,0,1,.331-.9c.031-.051.063-.1.1-.152a8.059,8.059,0,0,1,3.872-2.528,23.9,23.9,0,0,1,3.888-1.054,36.4,36.4,0,0,1,5.143-.581c.621-.029,1.255-.043,1.9-.043s1.275.014,1.9.043a36.369,36.369,0,0,1,5.257.6,23.657,23.657,0,0,1,3.866,1.067,7.975,7.975,0,0,1,3.781,2.494c.035.05.067.1.1.152a2.37,2.37,0,0,1,.33.9A1.906,1.906,0,0,1,1666.387,919.149Z" transform="translate(-1635.89 -913.607)" fill="#20375f"/>
    <path id="Path_5161" data-name="Path 5161" d="M1669.992,920.539a2.133,2.133,0,0,1-.339,1.125,7.693,7.693,0,0,1-4.052,2.624,24.374,24.374,0,0,1-3.815.97,36.249,36.249,0,0,1-4.68.5c-.6.027-1.211.041-1.83.041s-1.23-.014-1.83-.041a36.16,36.16,0,0,1-4.569-.48,24.592,24.592,0,0,1-3.836-.959c-2.043-.708-3.515-1.624-4.141-2.655a2.036,2.036,0,0,1,0-2.249,7.42,7.42,0,0,1,3.83-2.543,23.379,23.379,0,0,1,3.753-1,35.73,35.73,0,0,1,4.963-.552c.6-.027,1.211-.041,1.83-.041s1.231.014,1.83.041a35.622,35.622,0,0,1,5.073.572,23.123,23.123,0,0,1,3.731,1.012,7.339,7.339,0,0,1,3.743,2.511A2.14,2.14,0,0,1,1669.992,920.539Z" transform="translate(-1640.03 -915.087)" fill="#395aa3"/>
    <path id="Path_5162" data-name="Path 5162" d="M1669.654,921.664h-9.387l5.335,2.624a24.374,24.374,0,0,1-3.815.97l-4.68-2.3v2.8c-.6.027-1.211.041-1.83.041s-1.23-.014-1.83-.041v-2.726l-4.569,2.246a24.592,24.592,0,0,1-3.836-.959l5.4-2.655H1640.9a2.036,2.036,0,0,1,0-2.249h9l-5.172-2.543a23.379,23.379,0,0,1,3.753-1l4.963,2.44v-2.992c.6-.027,1.211-.041,1.83-.041s1.231.014,1.83.041v3.066l5.073-2.495a23.123,23.123,0,0,1,3.731,1.012l-5.108,2.511h8.852a2.04,2.04,0,0,1,0,2.249Z" transform="translate(-1640.03 -915.087)" fill="#dbeafe"/>
    <path id="Path_5163" data-name="Path 5163" d="M1756.329,1010.314v4.27q-.89.039-1.81.039-.979,0-1.925-.045v-4.269h.029c.621.029,1.255.043,1.9.043C1755.131,1010.354,1755.736,1010.34,1756.329,1010.314Z" transform="translate(-1739.271 -999.269)" fill="#c7dafd"/>
    <path id="Path_5164" data-name="Path 5164" d="M1830.889,997.892v4.22a24.209,24.209,0,0,1-3.736.957v-4.257l.158-.028A25.691,25.691,0,0,0,1830.889,997.892Z" transform="translate(-1805.318 -988.27)" fill="#c7dafd"/>
    <path id="Path_5165" data-name="Path 5165" d="M1682.842,998.828v4.256a24.2,24.2,0,0,1-3.735-.955v-4.221a25.741,25.741,0,0,0,3.684.911Z" transform="translate(-1674.173 -988.284)" fill="#c7dafd"/>
    <path id="Path_5166" data-name="Path 5166" d="M1699.683,932.724a1.5,1.5,0,0,1-.238.789,5.4,5.4,0,0,1-2.842,1.841,17.078,17.078,0,0,1-2.676.68,25.4,25.4,0,0,1-3.283.351c-.42.019-.85.029-1.284.029s-.863-.01-1.283-.029a25.339,25.339,0,0,1-3.2-.337,17.253,17.253,0,0,1-2.691-.673,5.471,5.471,0,0,1-2.905-1.862,1.429,1.429,0,0,1,0-1.578,5.2,5.2,0,0,1,2.687-1.784,16.4,16.4,0,0,1,2.632-.7,25.1,25.1,0,0,1,3.482-.387c.42-.019.849-.029,1.283-.029s.863.01,1.284.029a25.023,25.023,0,0,1,3.559.4,16.233,16.233,0,0,1,2.617.71,5.148,5.148,0,0,1,2.626,1.762A1.5,1.5,0,0,1,1699.683,932.724Z" transform="translate(-1674.113 -927.273)" fill="#20375f"/>
    <path id="Path_5167" data-name="Path 5167" d="M1706.1,935.359a1.36,1.36,0,0,1-.216.717,4.9,4.9,0,0,1-2.581,1.671,15.536,15.536,0,0,1-2.43.618,23.1,23.1,0,0,1-2.981.318c-.382.017-.771.026-1.166.026s-.783-.009-1.166-.026a23.022,23.022,0,0,1-2.909-.306,15.643,15.643,0,0,1-2.444-.611,4.967,4.967,0,0,1-2.638-1.691,1.3,1.3,0,0,1,0-1.433,4.727,4.727,0,0,1,2.44-1.62,14.86,14.86,0,0,1,2.39-.637,22.772,22.772,0,0,1,3.161-.352c.382-.017.771-.026,1.166-.026s.784.009,1.166.026a22.753,22.753,0,0,1,3.231.364,14.752,14.752,0,0,1,2.377.645,4.674,4.674,0,0,1,2.384,1.6A1.363,1.363,0,0,1,1706.1,935.359Z" transform="translate(-1681.484 -929.907)" fill="#395aa3"/>
    <path id="Path_5168" data-name="Path 5168" d="M1725.289,940.8l1.809.963,3.906.568-3.082.735,1.106,2.054-3.678-1.347-3.311,1.347.922-1.809-3.266-.98,3.906-.568Z" transform="translate(-1710.129 -937.693)" fill="#20375f"/>
  </g>
  <g id="Group_587" data-name="Group 587" transform="translate(21.437 12.931)" style="mix-blend-mode: multiply;isolation: isolate">
    <path id="Path_5169" data-name="Path 5169" d="M1613.989,1032.4c0,.155-.007.306-.02.451,0,.042-.007.082-.01.122-.017.174-.042.342-.073.5a5.426,5.426,0,0,1-.661,1.745,5.184,5.184,0,0,1-.3.449c-.042.057-.083.112-.125.165q-.121.152-.238.281c-.087.1-.173.185-.252.262a3.99,3.99,0,0,1-.6.49,1.779,1.779,0,0,1,.3.489,4.243,4.243,0,0,1,.274.926c.026.134.05.274.069.42a21.831,21.831,0,0,1,.027,4.246c-.015.2-.031.406-.048.6q-.886-.236-1.683-.523c-3.021-1.089-4.685-2.616-4.685-4.3v-4.107a3.652,3.652,0,0,1-1.821-2.866V1030.5l.514-.242,1.127-.527c.159-.075.316-.148.472-.221.98-.457,1.907-.887,2.719-1.262l.41-.19.759-.349c1.115-.514,1.817-.834,1.817-.834a15.609,15.609,0,0,1,.837,1.372c.126.234.239.463.342.687.079.169.151.334.215.5h0c.026.065.052.13.075.194.013.034.026.066.038.1.059.157.111.312.156.463a7.8,7.8,0,0,1,.281,1.215c0,.026.008.051.01.076.023.167.039.328.048.485,0,.017,0,.035,0,.052s0,.031,0,.047Q1613.989,1032.238,1613.989,1032.4Z" transform="translate(-1604.154 -1026.878)" fill="#c7dafd"/>
  </g>
  <g id="Group_588" data-name="Group 588" transform="translate(0 8.358)">
    <path id="Path_5170" data-name="Path 5170" d="M1416.554,1006.745,1419,1010.9c.854,1.452,3.062,1.926,6.218,1.333a36,36,0,0,0,18.179-10.687c2.053-2.469,2.713-4.629,1.859-6.081l-2.444-4.157a2.349,2.349,0,0,0-.744-.612c-.052-.028-.105-.056-.161-.082l-25.518,15c0,.061-.007.121-.008.181A2.372,2.372,0,0,0,1416.554,1006.745Z" transform="translate(-1416.38 -990.183)" fill="#112844"/>
    <path id="Path_5171" data-name="Path 5171" d="M1419.877,1010.635l2.666,4.535c.744,1.265,2.865,1.557,5.686,1.006a24.2,24.2,0,0,0,3.705-1.068,36.312,36.312,0,0,0,4.379-1.975q.787-.418,1.581-.884.844-.5,1.637-1.014a35.979,35.979,0,0,0,3.754-2.8,24.2,24.2,0,0,0,2.737-2.716c1.858-2.2,2.636-4.2,1.892-5.464l-2.666-4.535Z" transform="translate(-1419.477 -994.704)" fill="#112844"/>
    <path id="Path_5172" data-name="Path 5172" d="M1416.678,1003.628a1.937,1.937,0,0,0,.158.231,2.364,2.364,0,0,0,.745.613,3.194,3.194,0,0,0,.3.142,8.672,8.672,0,0,0,4.724.114c.129-.025.259-.051.391-.079a25.659,25.659,0,0,0,3.535-1.044l.151-.056a37.064,37.064,0,0,0,4.3-1.947l.076-.04c.525-.278,1.053-.573,1.581-.883q.83-.488,1.613-1l.024-.016a37.014,37.014,0,0,0,3.761-2.786l.04-.033a25.784,25.784,0,0,0,2.714-2.652c.069-.078.135-.156.2-.234a8.78,8.78,0,0,0,2.263-4.259,3.208,3.208,0,0,0,.02-.327,2.351,2.351,0,0,0-.173-.949,1.97,1.97,0,0,0-.125-.251,1.94,1.94,0,0,0-.158-.231,2.348,2.348,0,0,0-.744-.612c-.052-.028-.105-.056-.161-.082a8.058,8.058,0,0,0-4.619-.217,23.936,23.936,0,0,0-3.886,1.062,36.385,36.385,0,0,0-4.728,2.105q-.825.434-1.657.924c-.553.325-1.092.658-1.613,1a36.352,36.352,0,0,0-4.227,3.183,23.664,23.664,0,0,0-2.793,2.879,7.976,7.976,0,0,0-2,4.067c0,.061-.007.121-.008.181a2.372,2.372,0,0,0,.174.947A1.894,1.894,0,0,0,1416.678,1003.628Z" transform="translate(-1416.38 -986.815)" fill="#20375f"/>
    <path id="Path_5173" data-name="Path 5173" d="M1420.458,1005.445a2.133,2.133,0,0,0,.862.8,7.7,7.7,0,0,0,4.823.209,24.38,24.38,0,0,0,3.781-1.1,36.262,36.262,0,0,0,4.288-1.94c.531-.28,1.065-.578,1.6-.892s1.054-.635,1.556-.963a36.163,36.163,0,0,0,3.7-2.729,24.578,24.578,0,0,0,2.821-2.771c1.4-1.645,2.207-3.181,2.225-4.387a2.038,2.038,0,0,0-1.14-1.939,7.421,7.421,0,0,0-4.591-.251,23.386,23.386,0,0,0-3.742,1.039,35.748,35.748,0,0,0-4.559,2.039q-.8.42-1.6.892t-1.557.963a35.652,35.652,0,0,0-4.084,3.064,23.128,23.128,0,0,0-2.7,2.764,7.339,7.339,0,0,0-1.954,4.062A2.137,2.137,0,0,0,1420.458,1005.445Z" transform="translate(-1419.745 -988.98)" fill="#395aa3"/>
    <path id="Path_5174" data-name="Path 5174" d="M1421.32,1007.972l8.092-4.757-3.27,4.966a24.367,24.367,0,0,0,3.781-1.1l2.868-4.355,1.419,2.415c.531-.28,1.065-.578,1.6-.892s1.054-.635,1.556-.963l-1.382-2.35,5.077-.379a24.578,24.578,0,0,0,2.821-2.771l-6,.447,8.224-4.834a2.037,2.037,0,0,0-1.14-1.939l-7.761,4.562,3.17-4.814a23.373,23.373,0,0,0-3.742,1.039l-3.042,4.619-1.516-2.579q-.8.42-1.6.892t-1.557.963l1.554,2.644-5.638.42a23.128,23.128,0,0,0-2.7,2.764l5.677-.424-7.631,4.486a2.041,2.041,0,0,0,1.141,1.938Z" transform="translate(-1419.745 -990.709)" fill="#dbeafe"/>
    <path id="Path_5175" data-name="Path 5175" d="M1544.9,1101.268l2.164,3.681q.787-.418,1.58-.884.844-.5,1.637-1.014l-2.164-3.681-.024.016q-.781.509-1.613,1C1545.953,1100.7,1545.425,1100.99,1544.9,1101.268Z" transform="translate(-1530.228 -1086.521)" fill="#c7dafd"/>
    <path id="Path_5176" data-name="Path 5176" d="M1474.309,1134.5l2.138,3.638a24.16,24.16,0,0,0,3.7-1.068L1478,1133.4l-.151.056A25.66,25.66,0,0,1,1474.309,1134.5Z" transform="translate(-1467.696 -1116.661)" fill="#c7dafd"/>
    <path id="Path_5177" data-name="Path 5177" d="M1606.028,1054.125l2.157,3.669a24.193,24.193,0,0,0,2.737-2.716l-2.139-3.639a25.748,25.748,0,0,1-2.714,2.652Z" transform="translate(-1584.377 -1044.061)" fill="#c7dafd"/>
    <path id="Path_5178" data-name="Path 5178" d="M1454.275,1023.437a1.5,1.5,0,0,0,.6.56,5.4,5.4,0,0,0,3.383.147,17.1,17.1,0,0,0,2.652-.77,25.434,25.434,0,0,0,3.008-1.361c.372-.2.747-.406,1.121-.626s.739-.446,1.092-.675a25.376,25.376,0,0,0,2.592-1.915,17.234,17.234,0,0,0,1.979-1.944,5.471,5.471,0,0,0,1.561-3.078,1.429,1.429,0,0,0-.8-1.36,5.2,5.2,0,0,0-3.22-.176,16.407,16.407,0,0,0-2.625.729,25.071,25.071,0,0,0-3.2,1.431c-.372.2-.747.406-1.121.626s-.739.446-1.092.675a25.031,25.031,0,0,0-2.865,2.149,16.229,16.229,0,0,0-1.9,1.939,5.147,5.147,0,0,0-1.371,2.849A1.5,1.5,0,0,0,1454.275,1023.437Z" transform="translate(-1449.775 -1009.199)" fill="#20375f"/>
    <path id="Path_5179" data-name="Path 5179" d="M1461.588,1027.327a1.359,1.359,0,0,0,.549.509,4.9,4.9,0,0,0,3.072.133,15.5,15.5,0,0,0,2.408-.7,23.135,23.135,0,0,0,2.731-1.236c.338-.178.678-.368,1.018-.568s.671-.4.991-.613a23.018,23.018,0,0,0,2.354-1.738,15.641,15.641,0,0,0,1.8-1.765,4.966,4.966,0,0,0,1.417-2.794,1.3,1.3,0,0,0-.726-1.235,4.726,4.726,0,0,0-2.924-.16,14.906,14.906,0,0,0-2.383.662,22.775,22.775,0,0,0-2.9,1.3q-.506.267-1.018.568t-.991.613a22.7,22.7,0,0,0-2.6,1.952,14.733,14.733,0,0,0-1.722,1.76,4.674,4.674,0,0,0-1.245,2.587A1.363,1.363,0,0,0,1461.588,1027.327Z" transform="translate(-1456.269 -1013.57)" fill="#395aa3"/>
    <path id="Path_5180" data-name="Path 5180" d="M1491.775,1035.849l-1.071,1.747-3.081,2.469,3.03-.928.087,2.331,2.488-3.025,3.537-.516-1.712-1.092,2.319-2.5-3.656,1.49Z" transform="translate(-1479.491 -1028.91)" fill="#20375f"/>
  </g>
</svg>
