<svg id="Component_23_1" data-name="Component 23 – 1" xmlns="http://www.w3.org/2000/svg" xmlns:xlink="http://www.w3.org/1999/xlink" width="10.899" height="8.61" viewBox="0 0 10.899 8.61">
  <defs>
    <linearGradient id="linear-gradient" x1="0.5" y1="1" x2="0.5" gradientUnits="objectBoundingBox">
      <stop offset="0" stop-color="#b8ffff"/>
      <stop offset="1" stop-color="#6481ff"/>
    </linearGradient>
  </defs>
  <path id="Path_83" data-name="Path 83" d="M238.942,619.107c-.489-.017-5.212-4.983-5.265-5.362a1.426,1.426,0,0,1,.287-.619h0c.024-.036.048-.074.074-.113l0,0a11.458,11.458,0,0,1,1.494-1.827,21.573,21.573,0,0,1,3.585-.68,27.885,27.885,0,0,1,3.436.53,8.373,8.373,0,0,1,1.715,2.094h0c.039.06.076.116.109.168h0a3.2,3.2,0,0,1,.191.322C244.689,613.875,239.431,619.125,238.942,619.107Z" transform="translate(-233.675 -610.497)" fill="url(#linear-gradient)"/>
  <path id="Path_84" data-name="Path 84" d="M235.672,614.04c-.067.472,2.739,4.006,5,4.21,1.162.1,1.959-1.684,2.371-2.356.428-.7-2.557-.867-3.183-.961s-.224,1.289-.111,1.741,1.03.654,1.269.632,1.028-1.422.483-1.595-.756.5-1.01.154,1.537-.652,1.8,0c.254.631-.5,1.681-1.742,1.54s-1.908-1.334-1.1-2.893c.883-1.693,2.768.254,3.9.99,1.092.709,2.049-1.608,1.975-2.4-.077-.819-2.248-2.038-4.552-2.1S235.975,611.893,235.672,614.04Z" transform="translate(-235.271 -610.903)" fill="#b3b0ff" opacity="0.2" style="mix-blend-mode: multiply;isolation: isolate"/>
  <path id="Path_85" data-name="Path 85" d="M242.762,611.165c-.378.117,1.609.972,1.911,1.022s3.045.091,3.493.044a4.655,4.655,0,0,0,1.724-1.166,16.259,16.259,0,0,0-3.61-.58C245.663,610.553,243.053,611.074,242.762,611.165Z" transform="translate(-240.903 -610.479)" fill="#fff" style="mix-blend-mode: soft-light;isolation: isolate"/>
  <path id="Path_86" data-name="Path 86" d="M234.37,617.3a11.74,11.74,0,0,0,2.575,1.549A11.413,11.413,0,0,0,238,615.8c-.149-.042-1.746-.8-1.943-.8S234.3,616.785,234.37,617.3Z" transform="translate(-234.229 -614.088)" fill="#8de1ff" style="mix-blend-mode: soft-light;isolation: isolate"/>
  <path id="Path_87" data-name="Path 87" d="M248.426,622.388c-.276-.006.924-2.768,1.053-2.918a12.982,12.982,0,0,1,3.285,0,11.154,11.154,0,0,1,.922,2.657A33.49,33.49,0,0,1,248.426,622.388Z" transform="translate(-245.436 -617.583)" fill="#a69ce7" opacity="0.2" style="mix-blend-mode: multiply;isolation: isolate"/>
  <path id="Path_88" data-name="Path 88" d="M274.911,617.136c-.023.529-2.305,1.423-2.477,1.423a12.434,12.434,0,0,1-.814-2.761,4.505,4.505,0,0,1,1.441-.894A14.636,14.636,0,0,1,274.911,617.136Z" transform="translate(-264.013 -614.016)" fill="#635ec0" opacity="0.4" style="mix-blend-mode: multiply;isolation: isolate"/>
  <path id="Path_89" data-name="Path 89" d="M248.482,634.087c-.3-.02,2.025,3.6,2.231,3.734s2.993-3.511,3.011-3.751S251.794,634.3,248.482,634.087Z" transform="translate(-245.491 -629.283)" fill="#3340c0" opacity="0.4" style="mix-blend-mode: multiply;isolation: isolate"/>
  <path id="Path_90" data-name="Path 90" d="M248.555,633.832a12.054,12.054,0,0,0,1.482,2.544c.26.268,1.586-1.517,2.412-1.747s1.314-.58,1.265-.84-1.275.022-2.707.092S248.686,633.759,248.555,633.832Z" transform="translate(-245.565 -629.028)" fill="#905ec0" opacity="0.2" style="mix-blend-mode: multiply;isolation: isolate"/>
  <path id="Path_91" data-name="Path 91" d="M266.732,629.576c-.082-.214-2.008.818-2.2,1.113s-2.394,3.362-2.446,3.4A60.393,60.393,0,0,0,266.732,629.576Z" transform="translate(-256.387 -625.724)" fill="#4068ff" style="mix-blend-mode: soft-light;isolation: isolate"/>
  <path id="Path_92" data-name="Path 92" d="M234.592,628.057a8.888,8.888,0,0,1,2.793,1.643c.35.439,2.026,3.295,2.026,3.295A39.594,39.594,0,0,1,234.592,628.057Z" transform="translate(-234.408 -624.524)" fill="#81f2ff" style="mix-blend-mode: soft-light;isolation: isolate"/>
  <path id="Path_93" data-name="Path 93" d="M242.952,611.6a6.632,6.632,0,0,0,1.911,1.022,19.419,19.419,0,0,0,3.493.044c.552-.179,2.663-1.558-1.654-1.64A12.478,12.478,0,0,0,242.952,611.6Z" transform="translate(-241.092 -610.92)" fill="#dbf2ff" style="mix-blend-mode: soft-light;isolation: isolate"/>
  <path id="Path_94" data-name="Path 94" d="M233.681,618.419a13.107,13.107,0,0,0,2.694,1.4c.349.052,1.113-2.557,1.1-2.692a6.553,6.553,0,0,0-1.352-.778c-.145-.068,1.07.572,1.163,1s-.78,2.042-1.335,2.018A10.189,10.189,0,0,1,233.681,618.419Z" transform="translate(-233.68 -615.171)" fill="#fff2ff" opacity="0.5" style="mix-blend-mode: soft-light;isolation: isolate"/>
  <path id="Path_95" data-name="Path 95" d="M246.664,616.034a6.72,6.72,0,0,1,2.11,0c1.139.181,1.028.6,1.028.6a16.1,16.1,0,0,1-2.011-.069A4.716,4.716,0,0,1,246.664,616.034Z" transform="translate(-244.06 -614.852)" fill="#fff"/>
  <path id="Path_96" data-name="Path 96" d="M269.413,618.752c0-.071.469-.188.561-.133s0,.475-.137.494S269.413,618.752,269.413,618.752Z" transform="translate(-262.248 -616.976)" fill="#dfe5ff"/>
  <path id="Path_97" data-name="Path 97" d="M250.95,618.6c-.217-.012.159.718.229.715s.735-.531.686-.572A8.706,8.706,0,0,0,250.95,618.6Z" transform="translate(-247.433 -616.975)" fill="#dfe5ff"/>
  <path id="Path_98" data-name="Path 98" d="M268.019,637.376c-.382.043.929-1.747,1.426-2.1s.355.482.139.73S268.019,637.376,268.019,637.376Z" transform="translate(-261.079 -630.233)" fill="#fff2ff" style="mix-blend-mode: soft-light;isolation: isolate"/>
  <path id="Path_99" data-name="Path 99" d="M273.523,632.685c-.108-.135.262-.375.306-.386a1.941,1.941,0,0,1,.491.11,2.694,2.694,0,0,1-.653.388C273.6,632.8,273.523,632.685,273.523,632.685Z" transform="translate(-265.519 -627.924)" fill="#dde3ff"/>
  <path id="Path_100" data-name="Path 100" d="M234.445,627.342a17.163,17.163,0,0,0,2.6,2.934c.526.383.593-.742.207-1.213A17.394,17.394,0,0,0,234.445,627.342Z" transform="translate(-234.281 -623.961)" fill="#72acef" opacity="0.4" style="mix-blend-mode: multiply;isolation: isolate"/>
  <path id="Path_101" data-name="Path 101" d="M233.859,622.911a6.309,6.309,0,0,0,2.558,1.542c.377-.082,1.149-2.281,1.149-2.281s-.786,2.282-.77,2.371a18.065,18.065,0,0,0,2.5.093c1.263-.011,2.512-.093,2.512-.093a27.752,27.752,0,0,1-5,.089,11.27,11.27,0,0,0,.505,1.046,6.62,6.62,0,0,0-1.014-1.089c-.393-.264-2.217-1.259-2.308-1.314S233.859,622.911,233.859,622.911Z" transform="translate(-233.822 -619.829)" fill="#c7d1ff"/>
  <path id="Path_102" data-name="Path 102" d="M270.992,620.924c.052.143.655,1.782.655,1.782l-.486-1.79Z" transform="translate(-263.511 -618.824)" fill="#c7d1ff"/>
  <path id="Path_103" data-name="Path 103" d="M244.073,618.418c.173-.449-.388-1.033-1.1-1.374s-.9,2.195-.345,2.61S244.073,618.418,244.073,618.418Z" transform="translate(-240.574 -615.702)" fill="#8dffff" style="mix-blend-mode: soft-light;isolation: isolate"/>
  <path id="Path_104" data-name="Path 104" d="M272.318,619.818c.5-.742,2.028.756,2.4,1.319.366.547-1.213,1.148-1.581.936S272.318,619.818,272.318,619.818Z" transform="translate(-264.571 -617.785)" fill="#8dcaff" style="mix-blend-mode: soft-light;isolation: isolate"/>
  <path id="Path_105" data-name="Path 105" d="M251.451,620.636c-.518,1.059.929.127,1.953.321s2.011,1.356,2.338,1.3-.529-2.165-.787-2.343a9.6,9.6,0,0,0-2.612-.067A1.476,1.476,0,0,0,251.451,620.636Z" transform="translate(-247.801 -617.925)" fill="#959cc0" opacity="0.2" style="mix-blend-mode: multiply;isolation: isolate"/>
  <path id="Path_106" data-name="Path 106" d="M279.4,625.065c-.067-.05-.243.505-.581.795a9.814,9.814,0,0,1-1.241.764,8.291,8.291,0,0,0,1.47-.736A1.667,1.667,0,0,0,279.4,625.065Z" transform="translate(-268.775 -622.138)" fill="#dde3ff"/>
  <path id="Path_107" data-name="Path 107" d="M235.476,621.858a4.019,4.019,0,0,0,.072.916,5.636,5.636,0,0,0,1.186.822,3.51,3.51,0,0,1-.954-1.174,2.73,2.73,0,0,1-.1-.858Z" transform="translate(-235.115 -619.342)" fill="#dde3ff"/>
  <path id="Path_108" data-name="Path 108" d="M234.592,628.1a15.24,15.24,0,0,1,2.8,1.7c.476.548.312,1.291-.1,1.149A25.094,25.094,0,0,1,234.592,628.1Z" transform="translate(-234.408 -624.567)" fill="#905ec0" opacity="0.4" style="mix-blend-mode: multiply;isolation: isolate"/>
  <path id="Path_109" data-name="Path 109" d="M248.708,634.339a5.3,5.3,0,0,0,1.174,1.92c.4.189,1.3-.541,2.209-1.021.937-.493,1.169-.2,1.357-.524a2.912,2.912,0,0,0,.245-.487A19.6,19.6,0,0,1,248.708,634.339Z" transform="translate(-245.689 -629.466)" fill="#905ec0" opacity="0.4" style="mix-blend-mode: multiply;isolation: isolate"/>
  <path id="Path_110" data-name="Path 110" d="M272.8,631.046a2.836,2.836,0,0,0-.449.747c.052.011.588-.606.795-.654s.245.428.289.382,1.209-1.317,1.266-1.384a11.438,11.438,0,0,0-1.411.628C273.069,630.9,272.8,631.046,272.8,631.046Z" transform="translate(-264.592 -626.192)" fill="#3340c0" opacity="0.4" style="mix-blend-mode: multiply;isolation: isolate"/>
  <path id="Path_111" data-name="Path 111" d="M245.841,613.294h0s-1.206-1.494-1.461-1.773a5.067,5.067,0,0,0-3.333-.887,10.14,10.14,0,0,0-3.873.672,11.315,11.315,0,0,0-1.673,1.7,11.458,11.458,0,0,1,1.494-1.827,21.572,21.572,0,0,1,3.585-.68,27.885,27.885,0,0,1,3.436.53,8.373,8.373,0,0,1,1.715,2.094h0C245.771,613.186,245.808,613.242,245.841,613.294Z" transform="translate(-235.134 -610.497)" fill="#5e2e84" opacity="0.5" style="mix-blend-mode: multiply;isolation: isolate"/>
  <path id="Path_112" data-name="Path 112" d="M246.5,633.666c-.168.072.34.393.4.427s.014-.419-.032-.49S246.5,633.666,246.5,633.666Z" transform="translate(-243.903 -628.951)" fill="#fff"/>
  <path id="Path_113" data-name="Path 113" d="M251.336,642.6c.22-.265,1.068,1.342,1.038,1.392S251.044,642.946,251.336,642.6Z" transform="translate(-247.761 -636.133)" fill="#fff"/>
  <path id="Path_114" data-name="Path 114" d="M238.942,629.576c-.489-.017-5.212-4.983-5.265-5.362a1.426,1.426,0,0,1,.287-.619,5.109,5.109,0,0,0,.19,1.156c.086.178,1.506,1.59,3.278,3.525a2.408,2.408,0,0,0,1.476.877,2.475,2.475,0,0,0,1.708-1.043c1.625-1.89,3.073-3.061,3.359-3.429a1.223,1.223,0,0,0,.3-1.085,5.511,5.511,0,0,1,.3.491C244.689,624.344,239.431,629.594,238.942,629.576Z" transform="translate(-233.675 -620.966)" fill="#5e2e84" opacity="0.5" style="mix-blend-mode: multiply;isolation: isolate"/>
</svg>
