<svg id="table" xmlns="http://www.w3.org/2000/svg" width="37.666" height="37.666" viewBox="0 0 37.666 37.666">
  <circle id="Ellipse_106" data-name="Ellipse 106" cx="18.833" cy="18.833" r="18.833" fill="#20375f"/>
  <circle id="Ellipse_107" data-name="Ellipse 107" cx="17.972" cy="17.972" r="17.972" transform="translate(0.861 0.861)" fill="#dbeafe"/>
  <path id="Path_4845" data-name="Path 4845" d="M1501.912,276.283a15.219,15.219,0,1,0,4.457,10.761A15.118,15.118,0,0,0,1501.912,276.283Zm-10.761,25.2a14.439,14.439,0,1,1,14.439-14.439A14.455,14.455,0,0,1,1491.152,301.483Z" transform="translate(-1472.319 -268.211)" fill="#20375f"/>
  <path id="Path_4846" data-name="Path 4846" d="M1513.708,295.415q0,.553-.042,1.1a14.141,14.141,0,0,1-3.373,8.126,14.283,14.283,0,0,1-4.567,3.534,14.073,14.073,0,0,1-5.108,1.387q-.542.042-1.095.042-.506,0-1-.036a14.131,14.131,0,0,1-8.217-3.379,14.268,14.268,0,0,1-3.534-4.566,14.107,14.107,0,0,1-1.387-5.109q-.042-.542-.042-1.095,0-.507.036-1a14.128,14.128,0,0,1,3.379-8.217,14.254,14.254,0,0,1,4.566-3.533,14.086,14.086,0,0,1,5.109-1.388q.542-.042,1.095-.042t1.095.042a14.083,14.083,0,0,1,5.546,1.61,14.286,14.286,0,0,1,6.115,6.329,14.116,14.116,0,0,1,1.387,5.108Q1513.707,294.862,1513.708,295.415Z" transform="translate(-1480.69 -276.582)" fill="#c84c41"/>
  <path id="Path_4847" data-name="Path 4847" d="M1513.666,296.51l-12.816-.819,12.081,4.358a14.066,14.066,0,0,1-.876,2.007l-11.254-5.771,9.492,8.352a14.3,14.3,0,0,1-1.548,1.548l-8.479-9.636,5.46,11.622a14.083,14.083,0,0,1-2.037.805l-3.878-12.042.806,12.624q-.542.042-1.095.042-.506,0-1-.036l.739-12.85-4.368,12.108a14.094,14.094,0,0,1-1.927-.833l5.716-11.326-8.378,9.521a14.292,14.292,0,0,1-1.489-1.479l9.6-8.559-11.648,5.472a14.1,14.1,0,0,1-.778-1.951l12.055-3.967-12.664.809q-.042-.542-.042-1.095,0-.507.036-1l12.848.739-12.106-4.368a14.092,14.092,0,0,1,.833-1.927l11.328,5.718-9.523-8.379a14.292,14.292,0,0,1,1.479-1.489l8.559,9.6-5.472-11.647a14.008,14.008,0,0,1,1.951-.778l3.967,12.055-.809-12.665q.542-.042,1.095-.042t1.095.042l-.818,12.814,4.357-12.079a14.079,14.079,0,0,1,2.007.875l-5.771,11.256,8.353-9.493a14.3,14.3,0,0,1,1.548,1.548l-9.635,8.478,11.621-5.46a14,14,0,0,1,.8,2.037l-12.042,3.878,12.625-.806q.042.542.042,1.095T1513.666,296.51Z" transform="translate(-1480.69 -276.582)" fill="#f57b47"/>
  <path id="Path_4848" data-name="Path 4848" d="M1548.674,337.23q-.068.354-.161.7a9.209,9.209,0,0,1-3.153,4.785,9.3,9.3,0,0,1-3.354,1.7,9.166,9.166,0,0,1-3.438.261q-.352-.039-.705-.107-.324-.062-.638-.146a9.2,9.2,0,0,1-4.842-3.169,9.291,9.291,0,0,1-1.7-3.354,9.185,9.185,0,0,1-.261-3.438q.04-.352.107-.705.062-.324.146-.638a9.174,9.174,0,0,1,1.688-3.361,9.3,9.3,0,0,1,4.834-3.182,9.177,9.177,0,0,1,3.438-.262q.352.039.705.107t.695.161a9.173,9.173,0,0,1,3.35,1.71,9.3,9.3,0,0,1,3.136,4.8,9.2,9.2,0,0,1,.261,3.438Q1548.742,336.876,1548.674,337.23Z" transform="translate(-1520.767 -316.659)" fill="#c84c41"/>
  <path id="Path_4849" data-name="Path 4849" d="M1541.31,336.2l8.147,1.027c-.026.234-.062.468-.106.7s-.1.466-.161.694l-8.071-2.087,7.17,4.254a9.107,9.107,0,0,1-.8,1.172l-6.471-5.053,5.032,6.483a9.27,9.27,0,0,1-1.176.8l-4.229-7.178,2.062,8.076a9.19,9.19,0,0,1-1.4.264l-1-8.151-1.028,8.147q-.351-.039-.7-.107c-.215-.041-.427-.09-.636-.145l2.04-8.1-4.263,7.186a9.1,9.1,0,0,1-1.127-.767l5.028-6.523-6.5,5.047a9.238,9.238,0,0,1-.769-1.125l7.168-4.284-8.095,2.067a9.163,9.163,0,0,1-.258-1.339l8.17-1.057-8.173-1.031q.039-.351.107-.7.062-.323.145-.636l8.1,2.04-7.185-4.263a9.06,9.06,0,0,1,.767-1.127l6.523,5.029L1534.566,329a9.383,9.383,0,0,1,1.125-.769l4.284,7.168-2.066-8.094a9.092,9.092,0,0,1,1.339-.258l1.057,8.171,1.031-8.173q.35.039.7.107t.692.161l-2.087,8.07,4.253-7.169a9.121,9.121,0,0,1,1.173.8l-5.054,6.472,3.6-2.793,2.886-2.24a9.407,9.407,0,0,1,.8,1.176l-3.148,1.854-4.031,2.375,8.076-2.062a9.111,9.111,0,0,1,.265,1.4Z" transform="translate(-1521.475 -317.367)" fill="#f57b47"/>
  <path id="Path_4850" data-name="Path 4850" d="M1724.645,374.945a14.488,14.488,0,0,1,1.231,1.815l-4.857,2.86-.827-1.22Z" transform="translate(-1696.963 -363.461)" fill="#9ad88a"/>
  <path id="Path_4851" data-name="Path 4851" d="M1788.246,391.749a.037.037,0,0,1-.032.007C1788.244,391.742,1788.255,391.739,1788.246,391.749Z" transform="translate(-1758.218 -378.461)" fill="#f57b47"/>
  <circle id="Ellipse_108" data-name="Ellipse 108" cx="5.818" cy="5.818" r="5.818" transform="translate(10.605 18.833) rotate(-45)" fill="#20375f"/>
  <path id="Path_4852" data-name="Path 4852" d="M1598.305,385.555c0,.115,0,.23-.007.344a8.6,8.6,0,0,1-2.286,5.518q-.233.254-.487.487a8.6,8.6,0,0,1-5.517,2.286c-.115,0-.229.007-.344.007s-.23,0-.344-.007a8.6,8.6,0,0,1-5.517-2.286c-.17-.155-.332-.318-.486-.487a8.6,8.6,0,0,1-2.287-5.518c0-.114-.007-.229-.007-.344s0-.23.007-.344a8.6,8.6,0,0,1,2.287-5.517c.154-.17.317-.332.486-.486a8.6,8.6,0,0,1,5.517-2.287c.114,0,.229-.007.344-.007s.23,0,.344.007a8.6,8.6,0,0,1,5.517,2.287q.254.231.487.486a8.6,8.6,0,0,1,2.286,5.517C1598.3,385.325,1598.305,385.44,1598.305,385.555Z" transform="translate(-1570.83 -366.722)" fill="#dbeafe"/>
  <path id="Path_4853" data-name="Path 4853" d="M1598.3,385.9h-7.8l5.517,5.518q-.233.254-.487.487l-5.517-5.518v7.8c-.115,0-.229.007-.344.007s-.23,0-.344-.007v-7.8L1583.8,391.9c-.17-.155-.332-.318-.486-.487l5.518-5.518h-7.8c0-.114-.007-.229-.007-.344s0-.23.007-.344h7.8l-5.518-5.517c.154-.17.317-.332.486-.486l5.517,5.517v-7.8c.114,0,.229-.007.344-.007s.23,0,.344.007v7.8l5.517-5.517q.254.231.487.486l-5.517,5.517h7.8c0,.114.007.229.007.344S1598.3,385.785,1598.3,385.9Z" transform="translate(-1570.83 -366.722)" fill="#c7dafd"/>
  <path id="Path_4854" data-name="Path 4854" d="M1605.6,397.868a1.322,1.322,0,0,0-1.086.624l-2.935.085a1.984,1.984,0,0,0-1.148-1.084l-.085-2.935a1.324,1.324,0,1,0-1.463.042l.085,2.94a1.984,1.984,0,0,0-1.07,1.143l-2.949.085a1.324,1.324,0,1,0,.042,1.463l2.954-.085a1.984,1.984,0,0,0,1.128,1.065l.085,2.954a1.324,1.324,0,1,0,1.463-.042l-.085-2.949a1.984,1.984,0,0,0,1.079-1.134l2.94-.085a1.324,1.324,0,1,0,1.044-2.086Z" transform="translate(-1581.034 -380.36)" fill="#c7dafd"/>
  <g id="Group_561" data-name="Group 561" transform="translate(11.601 11.643)">
    <path id="Path_4855" data-name="Path 4855" d="M1648.465,404.65a1.324,1.324,0,0,1-.72-2.431l.044-9.569a1.324,1.324,0,1,1,1.463.007l-.044,9.569a1.324,1.324,0,0,1-.743,2.424Z" transform="translate(-1641.286 -390.227)" fill="#20375f"/>
    <path id="Path_4856" data-name="Path 4856" d="M1651.681,405.255l.046-9.981a.976.976,0,1,0-.766,0l-.046,9.981a.976.976,0,1,0,.766,0Z" transform="translate(-1644.109 -393.051)" fill="#d4bb9d"/>
    <path id="Path_4857" data-name="Path 4857" d="M1593.787,444.9a1.324,1.324,0,0,1,2.431-.721l9.569.044a1.324,1.324,0,1,1-.007,1.463l-9.569-.044a1.324,1.324,0,0,1-2.424-.743Z" transform="translate(-1593.787 -437.726)" fill="#20375f"/>
    <path id="Path_4858" data-name="Path 4858" d="M1598.83,448.122l9.981.046a.976.976,0,1,0,0-.766l-9.981-.046a.975.975,0,1,0,0,.766Z" transform="translate(-1596.611 -440.55)" fill="#d4bb9d"/>
    <circle id="Ellipse_109" data-name="Ellipse 109" cx="1.979" cy="1.979" r="1.979" transform="translate(4.661 8.34) rotate(-68.924)" fill="#20375f"/>
    <circle id="Ellipse_110" data-name="Ellipse 110" cx="1.491" cy="1.491" r="1.491" transform="matrix(0.569, -0.822, 0.822, 0.569, 5.144, 7.581)" fill="#d4bb9d"/>
    <path id="Path_4859" data-name="Path 4859" d="M1654.5,444.315a1.33,1.33,0,0,1,1.722,1.635A2.231,2.231,0,0,0,1654.5,444.315Z" transform="translate(-1647.829 -438.289)" fill="#20375f"/>
  </g>
</svg>
